<svg width="25" height="24" viewBox="0 0 25 24" fill="none" xmlns="http://www.w3.org/2000/svg">
<path d="M10.0251 4.83655C11.0739 2.22188 11.5983 0.914551 12.5 0.914551C13.4018 0.914551 13.9262 2.22188 14.975 4.83655L15.0239 4.9583C15.6164 6.43546 15.9126 7.17404 16.5164 7.62296C17.1202 8.07187 17.9129 8.14286 19.4981 8.28483L19.7847 8.31049C22.3791 8.54285 23.6763 8.65902 23.9539 9.48433C24.2314 10.3096 23.2681 11.1861 21.3413 12.939L20.6983 13.5241C19.723 14.4114 19.2353 14.8551 19.008 15.4366C18.9656 15.5451 18.9303 15.6562 18.9025 15.7693C18.7531 16.3755 18.8959 17.0191 19.1815 18.3064L19.2704 18.7071C19.7953 21.0729 20.0577 22.2558 19.5995 22.766C19.4283 22.9567 19.2057 23.0939 18.9585 23.1614C18.2969 23.3419 17.3576 22.5765 15.479 21.0457C14.2454 20.0406 13.6286 19.538 12.9205 19.4249C12.642 19.3804 12.3581 19.3804 12.0796 19.4249C11.3714 19.538 10.7547 20.0406 9.5211 21.0457C7.6425 22.5765 6.7032 23.3419 6.0416 23.1614C5.79437 23.0939 5.57183 22.9567 5.40059 22.766C4.94236 22.2558 5.2048 21.0729 5.7297 18.7071L5.81861 18.3064C6.10422 17.0191 6.24702 16.3755 6.09762 15.7693C6.06975 15.6562 6.0345 15.5451 5.9921 15.4366C5.7648 14.8551 5.27713 14.4114 4.30179 13.5241L3.65874 12.939C1.73202 11.1861 0.768657 10.3096 1.04623 9.48433C1.3238 8.65902 2.62101 8.54285 5.21543 8.31049L5.50201 8.28483C7.08723 8.14286 7.87984 8.07187 8.48364 7.62296C9.08744 7.17404 9.3837 6.43546 9.97623 4.9583L10.0251 4.83655Z" stroke="#232323"/>
</svg>
