<svg width="61" height="51" viewBox="0 0 61 51" fill="none" xmlns="http://www.w3.org/2000/svg">
<g clip-path="url(#clip0_2827_110661)">
<path d="M31.0446 32H26.7136L25.9553 26.1973H20.6981L19.955 32H16.0109L20.3876 0H26.6729L31.0446 32ZM21.2426 21.8518H25.3853L23.314 5.68384L21.2426 21.8518Z" fill="#8A0F0C"/>
<path d="M49.7934 7.35799V8.50509C49.7934 11.7965 48.9333 13.8996 47.0198 14.9485C49.3252 15.9819 50.2209 18.426 50.2209 21.8053V24.3888C50.2209 29.3234 47.9969 31.9742 43.7015 31.9742H36.943V0H43.4267C47.8798 0 49.7934 2.42338 49.7934 7.35799ZM41.2231 4.57291V13.0315H42.9025C44.5057 13.0315 45.4828 12.2047 45.4828 9.64702V7.86436C45.4828 5.57533 44.8161 4.57291 43.2944 4.57291H41.2231ZM41.2231 17.5992V27.4168H43.6863C45.1316 27.4168 45.9103 26.6365 45.9103 24.2596V21.4694C45.9103 18.4983 45.0909 17.5837 43.1366 17.5837L41.2231 17.5992Z" fill="#0F265C"/>
<path d="M58.8524 5.17188L56.7047 7.3369V9.5536L58.8524 7.37307L61.0001 9.5536V7.3369L58.8524 5.17188Z" fill="#0F265C"/>
<path d="M61.0001 14.7061V12.5049L58.8524 10.3398L56.7047 12.5049V14.7061L58.8524 12.5255L61.0001 14.7061Z" fill="#0F265C"/>
<path d="M58.8524 15.4912L56.7047 17.6562V32.0002H61.0001V17.6562L58.8524 15.4912Z" fill="#0F265C"/>
<path d="M58.8524 2.21153L61.0001 4.38689V0H56.7047V4.38689L58.8524 2.21153Z" fill="#0F265C"/>
<path d="M4.29534 14.7009V12.4945L2.15785 10.3398L0 12.5152V14.7164L2.15785 12.5255L4.29534 14.7009Z" fill="#8A0F0C"/>
<path d="M4.29534 4.38172V0H0V4.39722L2.15785 2.21153L4.29534 4.38172Z" fill="#8A0F0C"/>
<path d="M4.29534 27.4324V17.6459L2.15785 15.4912L0 17.6666V32.0002H11.3643V27.4324H4.29534Z" fill="#8A0F0C"/>
<path d="M2.15785 7.37307L4.29534 9.54843V7.33173L2.15785 5.17188L0 7.34723V9.56393L2.15785 7.37307Z" fill="#8A0F0C"/>
</g>
<path d="M3.962 39.23C2.317 39.23 1.211 39.979 0.84 41.358L2.002 41.652C2.254 40.77 2.884 40.357 3.948 40.357C5.194 40.357 5.782 40.938 5.789 42.261L3.612 42.527C1.729 42.765 0.56 43.437 0.56 44.991C0.56 46.356 1.561 47.21 3.15 47.21C4.368 47.21 5.264 46.727 5.789 45.81V47H7.035V42.429C7.035 40.28 6.027 39.23 3.962 39.23ZM5.789 43.234V43.255C5.789 43.591 5.789 44.046 5.67 44.424C5.432 45.453 4.585 46.132 3.409 46.132C2.345 46.132 1.792 45.712 1.792 44.907C1.792 44.081 2.373 43.661 3.752 43.486L5.789 43.234ZM11.872 39.23C9.863 39.23 8.435 40.714 8.435 43.087C8.435 45.425 9.849 46.93 11.872 46.93C13.076 46.93 13.909 46.44 14.399 45.579V46.58C14.399 48.267 13.587 49.387 12.047 49.387C11.067 49.387 10.346 48.925 10.003 48.064L8.743 48.393C9.275 49.807 10.486 50.57 12.047 50.57C14.385 50.57 15.645 48.911 15.645 46.594V39.44H14.399V40.581C13.909 39.727 13.083 39.23 11.872 39.23ZM12.082 45.747C10.64 45.747 9.758 44.753 9.758 43.087C9.758 41.456 10.626 40.413 12.082 40.413C13.503 40.413 14.399 41.414 14.399 43.087C14.399 44.704 13.559 45.747 12.082 45.747ZM20.853 46.041C19.495 46.041 18.634 45.131 18.522 43.57H24.318C24.43 40.882 23.142 39.23 20.825 39.23C18.634 39.23 17.185 40.791 17.185 43.22C17.185 45.621 18.641 47.21 20.853 47.21C22.393 47.21 23.597 46.454 24.192 45.11L22.988 44.711C22.575 45.565 21.896 46.041 20.853 46.041ZM18.55 42.569C18.732 41.169 19.544 40.364 20.825 40.364C22.12 40.364 22.911 41.155 23.023 42.569H18.55ZM31.0474 47H32.2934V42.632C32.2934 40.294 31.0824 39.23 29.2624 39.23C27.9534 39.23 27.2674 39.839 26.9104 40.532V39.44H25.6644V47H26.9104V42.842C26.9104 41.155 27.7574 40.413 28.9964 40.413C30.2494 40.413 31.0474 41.162 31.0474 42.842V47ZM37.292 47.21C38.853 47.21 39.994 46.447 40.526 45.033L39.266 44.704C38.93 45.551 38.286 46.027 37.292 46.027C35.787 46.027 35.01 44.907 35.01 43.22C35.01 41.512 35.794 40.413 37.292 40.413C38.216 40.413 38.972 40.924 39.294 41.799L40.526 41.428C40.127 40.07 38.902 39.23 37.306 39.23C35.066 39.23 33.687 40.819 33.687 43.22C33.687 45.593 35.045 47.21 37.292 47.21ZM44.0105 50.36L48.1265 39.44H46.8595L44.6475 45.39L42.2885 39.44H40.9795L44.0455 46.972L42.7995 50.36H44.0105Z" fill="#232323"/>
<defs>
<clipPath id="clip0_2827_110661">
<rect width="61" height="32" fill="white"/>
</clipPath>
</defs>
</svg>
