<svg width="51" height="50" viewBox="0 0 51 50" fill="none" xmlns="http://www.w3.org/2000/svg">
<path d="M49.4059 12.3828C49.4059 6.17188 44.318 1.08398 38.1071 1.08398C33.2926 1.08398 29.152 4.14062 27.5406 8.4082H10.3336V2.71484H8.2926V8.41797H2.39417V48.916H45.236V21.123C47.775 19.0527 49.4059 15.8984 49.4059 12.3828ZM38.1071 3.125C43.2926 3.125 47.4723 7.19727 47.3649 12.3828C47.3649 17.4707 43.1949 21.6406 38.1071 21.6406C33.0192 21.6406 28.8492 17.4707 28.8492 12.3828C28.8492 7.29492 33.0192 3.125 38.1071 3.125ZM26.984 10.4492C26.8766 11.0742 26.818 11.7285 26.818 12.3828C26.818 14.8926 27.6481 17.2168 29.0543 19.1016H4.32776V10.4492H26.984ZM43.1949 46.875H4.32776V21.1328H30.9879V21.123C32.9313 22.7148 35.4215 23.6719 38.1071 23.6719C39.9332 23.6719 41.6617 23.2324 43.1949 22.4512V46.875Z" fill="#232323"/>
<path d="M43.4 14.5215L39.1324 11.7676V4.0332H37.1989V12.8906L42.2867 16.25L43.4 14.5215Z" fill="#232323"/>
<path d="M14.0934 29.2773H16.6422V40.2637H19.5914V26.7285H14.0934V29.2773Z" fill="#232323"/>
<path d="M27.9313 26.3184C26.0953 26.3184 24.6793 26.9336 23.7614 28.252C22.8434 29.4727 22.3356 31.2012 22.3356 33.3398C22.3356 35.4785 22.8434 37.1094 23.7614 38.4277C24.6793 39.7461 26.1051 40.3613 27.9313 40.3613C29.8649 40.3613 31.1832 39.7461 32.1012 38.4277C33.0192 37.207 33.527 35.4785 33.527 33.3398C33.527 31.2012 33.0192 29.5703 32.1012 28.252C31.193 26.9336 29.7672 26.3184 27.9313 26.3184ZM30.0699 36.6016C29.5621 37.4121 28.9469 37.8223 28.0387 37.8223C27.1207 37.8223 26.4078 37.4121 26.0074 36.6016C25.5973 35.791 25.3922 34.668 25.3922 33.3496C25.3922 32.0312 25.5973 30.9082 26.0074 30.0977C26.4176 29.2871 27.0231 28.877 28.0387 28.877C28.9567 28.877 29.6696 29.2871 30.0699 30.0977C30.4801 30.9082 30.6852 32.0312 30.6852 33.3496C30.6852 34.668 30.4801 35.791 30.0699 36.6016Z" fill="#232323"/>
</svg>
