<svg width="66" height="50" viewBox="0 0 66 50" fill="none" xmlns="http://www.w3.org/2000/svg">
<g clip-path="url(#clip0_625_9081)">
<path d="M53.4264 1.04395H3.48898C1.73056 1.04395 0.300049 2.48292 0.300049 4.25175V37.0123C0.300049 38.7811 1.73056 40.2201 3.48898 40.2201H34.9712C35.5332 40.2201 35.989 39.7617 35.989 39.1963C35.989 38.6309 35.5334 38.1724 34.9712 38.1724H3.48898C2.85295 38.1724 2.33549 37.6519 2.33549 37.0121V4.25175C2.33549 3.61195 2.85295 3.09143 3.48898 3.09143H53.4264C54.0624 3.09143 54.5799 3.61195 54.5799 4.25175V18.4483C54.5799 19.0136 55.0355 19.4721 55.5977 19.4721C56.1597 19.4721 56.6154 19.0137 56.6154 18.4483V4.25175C56.6153 2.48292 55.1848 1.04395 53.4264 1.04395Z" fill="#232323"/>
<path d="M51.2553 20.7002C43.5109 20.7002 37.2104 27.038 37.2104 34.8281C37.2104 42.6182 43.511 48.9561 51.2553 48.9561C58.9995 48.9561 65.3001 42.6183 65.3001 34.8281C65.3001 27.0379 58.9995 20.7002 51.2553 20.7002ZM51.2553 46.9086C44.6333 46.9086 39.2459 41.4893 39.2459 34.8281C39.2459 28.1669 44.6333 22.7477 51.2553 22.7477C57.8773 22.7477 63.2647 28.1669 63.2647 34.8281C63.2647 41.4893 57.8771 46.9086 51.2553 46.9086Z" fill="#232323"/>
<path d="M17.6017 8.68799H8.91696C7.75711 8.68799 6.8136 9.63709 6.8136 10.8038V17.3559C6.8136 18.5226 7.75711 19.4717 8.91696 19.4717H17.6017C18.7615 19.4717 19.7051 18.5226 19.7051 17.3559V10.8038C19.7051 9.63709 18.7615 8.68799 17.6017 8.68799ZM11.1559 17.4241H8.91696C8.87951 17.4241 8.84917 17.3936 8.84917 17.3559V10.8038C8.84917 10.7661 8.87951 10.7356 8.91696 10.7356H11.156V17.4241H11.1559ZM17.6695 17.3559C17.6695 17.3936 17.6391 17.4241 17.6017 17.4241H13.1915V15.1036H14.345C14.907 15.1036 15.3628 14.6453 15.3628 14.0798C15.3628 13.5143 14.9071 13.056 14.345 13.056H13.1915V10.7355H17.6017C17.6391 10.7355 17.6695 10.766 17.6695 10.8037V17.3559Z" fill="#232323"/>
<path d="M44.1987 7.5957C42.9969 7.5957 41.8783 7.95979 40.9447 8.58273C39.9835 7.94204 38.8514 7.5957 37.6852 7.5957C34.4303 7.5957 31.7822 10.2594 31.7822 13.5336C31.7822 16.8078 34.4302 19.4714 37.6852 19.4714C38.8874 19.4714 40.0064 19.1071 40.9404 18.4836C41.9017 19.1238 43.035 19.4714 44.1987 19.4714C47.4536 19.4714 50.1017 16.8078 50.1017 13.5336C50.1017 10.2594 47.4537 7.5957 44.1987 7.5957ZM39.416 17.011C38.8948 17.2745 38.3071 17.4238 37.6852 17.4238C35.5526 17.4238 33.8178 15.6786 33.8178 13.5336C33.8178 11.3885 35.5527 9.64319 37.6852 9.64319C38.2921 9.64319 38.8846 9.78711 39.4183 10.0562C38.7131 11.0344 38.2958 12.2355 38.2958 13.5334C38.2958 14.7959 38.6951 16.0082 39.416 17.011ZM44.1987 17.4238C43.5928 17.4238 42.9998 17.2796 42.4658 17.0104C43.1709 16.0322 43.5881 14.8313 43.5881 13.5334C43.5881 12.9681 43.1325 12.5096 42.5703 12.5096C42.0082 12.5096 41.5525 12.968 41.5525 13.5334C41.5525 14.3044 41.3276 15.0232 40.9414 15.6283C40.5476 15.0091 40.3312 14.2849 40.3312 13.5334C40.3312 11.3883 42.0662 9.64306 44.1986 9.64306C46.3311 9.64306 48.0661 11.3883 48.0661 13.5334C48.0661 15.6786 46.3313 17.4238 44.1987 17.4238Z" fill="#232323"/>
<path d="M16.5161 25.0684H7.83138C7.26936 25.0684 6.8136 25.5267 6.8136 26.0922C6.8136 26.6576 7.26923 27.116 7.83138 27.116H16.5161C17.0781 27.116 17.5339 26.6576 17.5339 26.0922C17.5339 25.5267 17.0781 25.0684 16.5161 25.0684Z" fill="#232323"/>
<path d="M33.8856 31.6201H7.83138C7.26936 31.6201 6.8136 32.0784 6.8136 32.6439C6.8136 33.2094 7.26923 33.6677 7.83138 33.6677H33.8857C34.4477 33.6677 34.9035 33.2094 34.9035 32.6439C34.9035 32.0784 34.4477 31.6201 33.8856 31.6201Z" fill="#232323"/>
<path d="M29.5433 25.0684H20.8586C20.2966 25.0684 19.8408 25.5267 19.8408 26.0922C19.8408 26.6576 20.2965 27.116 20.8586 27.116H29.5433C30.1054 27.116 30.5611 26.6576 30.5611 26.0922C30.5611 25.5267 30.1054 25.0684 29.5433 25.0684Z" fill="#232323"/>
<path d="M36.0567 25.0684H33.8856C33.3236 25.0684 32.8678 25.5267 32.8678 26.0922C32.8678 26.6576 33.3234 27.116 33.8856 27.116H36.0567C36.6188 27.116 37.0745 26.6576 37.0745 26.0922C37.0745 25.5267 36.6189 25.0684 36.0567 25.0684Z" fill="#232323"/>
<path d="M59.5739 29.7364C59.1764 29.3366 58.532 29.3366 58.1346 29.7364L49.0839 38.8406L44.3756 34.1044C43.9781 33.7046 43.3337 33.7046 42.9363 34.1044C42.5388 34.5042 42.5388 35.1523 42.9363 35.5522L48.3643 41.0123C48.563 41.2123 48.8235 41.3122 49.0839 41.3122C49.3443 41.3122 49.6048 41.2123 49.8035 41.0123L59.5738 31.1842C59.9714 30.7843 59.9714 30.1362 59.5739 29.7364Z" fill="#232323"/>
</g>
<defs>
<clipPath id="clip0_625_9081">
<rect width="65" height="50" fill="white" transform="translate(0.300049)"/>
</clipPath>
</defs>
</svg>
