<svg width="51" height="50" viewBox="0 0 51 50" fill="none" xmlns="http://www.w3.org/2000/svg">
<g clip-path="url(#clip0_625_9084)">
<path d="M48.3756 3.71576L46.7692 1.75964C45.072 -0.298464 42.0186 -0.594205 39.9632 1.10024L20.6332 17.0139C20.3637 16.9886 20.092 16.9749 19.8181 16.9749C17.827 16.9749 15.8825 17.6734 14.3433 18.9413C12.6502 20.3342 9.08184 24.3916 6.26892 28.5173C2.46366 34.0984 1.35133 37.7081 2.86889 39.5534C3.48902 40.306 4.49666 40.6874 5.8638 40.6874C11.4438 40.6874 22.6674 34.4179 25.3018 32.2483C27.0786 30.7856 28.1791 28.7184 28.4009 26.4276L47.7175 10.5224C48.7154 9.70162 49.3333 8.54105 49.4574 7.25465C49.5815 5.96814 49.1968 4.71069 48.3756 3.71576ZM26.3276 26.2252C26.1598 27.9629 25.3253 29.5307 23.9775 30.6403C21.2516 32.8851 10.5629 38.6042 5.8639 38.6042C5.83974 38.6042 5.8164 38.6037 5.79265 38.6034L21.0744 25.9063C21.5169 25.5387 21.5775 24.8819 21.2099 24.4394C20.8423 23.9969 20.1854 23.936 19.743 24.3039L4.32488 37.1143C4.48687 35.8381 5.39597 33.4963 7.99045 29.6911C10.6143 25.8428 14.0781 21.8577 15.6676 20.5499C16.8351 19.5882 18.3091 19.0586 19.8182 19.0586C21.7807 19.0586 23.62 19.9266 24.8656 21.4411C25.9762 22.7884 26.4953 24.4874 26.3276 26.2252ZM28.2639 23.8421C27.9841 22.4882 27.3781 21.2137 26.4739 20.1168C25.5691 19.0165 24.4258 18.1755 23.1489 17.6415L25.8331 15.4317L30.8484 21.7139L28.2639 23.8421ZM47.3837 7.05453C47.3129 7.78633 46.9616 8.44657 46.3936 8.91367L32.4569 20.3894L27.4416 14.1075L41.2879 2.70843C42.4575 1.74422 44.1953 1.91319 45.1604 3.08365L46.7672 5.04018C47.2353 5.60719 47.4543 6.32263 47.3837 7.05453Z" fill="#232323"/>
<path d="M35.3559 40.5922C32.3585 38.3391 27.4135 38.7785 20.6582 41.8981C11.6534 46.0563 7.29328 45.5257 5.22111 44.3485C3.23968 43.2227 3.00904 41.3116 2.99863 41.2148C2.94446 40.6454 2.44017 40.2252 1.87025 40.276C1.2972 40.3264 0.873541 40.8318 0.923856 41.405C0.934793 41.5281 1.22283 44.4397 4.13909 46.1296C7.766 48.2315 13.6178 47.4442 21.5315 43.7895C27.4464 41.0582 31.7916 40.5266 34.0972 42.2526C36.7533 44.2409 36.1185 48.758 36.112 48.8014C36.0256 49.3702 36.4165 49.9014 36.9853 49.988C37.0384 49.9961 37.0911 50 37.1433 50C37.6494 50 38.0934 49.6305 38.1718 49.1148C38.2076 48.8801 39.0045 43.3351 35.3559 40.5922Z" fill="#232323"/>
</g>
<defs>
<clipPath id="clip0_625_9084">
<rect width="50" height="50" fill="white" transform="translate(0.199951)"/>
</clipPath>
</defs>
</svg>
