<svg width="51" height="50" viewBox="0 0 51 50" fill="none" xmlns="http://www.w3.org/2000/svg">
<g clip-path="url(#clip0_625_9087)">
<path d="M50.3493 13.4792C49.9821 12.4343 49.2711 11.7967 48.1856 11.5728C48.0424 11.5422 47.9004 11.5031 47.756 11.4774C46.7855 11.3073 46.482 11.0051 46.2715 10.0262C46.2501 9.91402 46.2531 9.79859 46.2804 9.68773C46.3076 9.57687 46.3584 9.47319 46.4294 9.38375C46.6546 9.08396 46.8641 8.77274 47.0572 8.45134C47.6299 7.39045 47.6275 6.34302 46.8822 5.3788C46.343 4.65937 45.6977 4.02605 44.9682 3.50053C44.0687 2.87281 43.108 2.88872 42.1424 3.35859C41.7951 3.54091 41.4671 3.75778 41.1633 4.00589C41.0352 4.1215 40.8744 4.19463 40.7031 4.21522C40.5317 4.23582 40.3582 4.20287 40.2063 4.12091C40.074 4.05683 39.9375 4.00204 39.7976 3.95694C39.3264 3.80644 39.0633 3.50053 39.0364 2.99762C39.0045 2.68898 38.943 2.38412 38.8528 2.08724C38.7103 1.50347 38.3785 0.983321 37.9091 0.60808C37.4397 0.232839 36.8592 0.0236439 36.2583 0.0131831C35.6231 -0.000276878 34.9892 -0.000276878 34.3504 0.0119594C33.7742 0.029046 33.2178 0.22577 32.759 0.574615C32.3001 0.92346 31.9618 1.40698 31.7914 1.95753C31.6779 2.38335 31.5929 2.81625 31.5368 3.25336C31.5192 3.383 31.4684 3.50589 31.3893 3.61009C31.3102 3.71429 31.2054 3.79626 31.0853 3.84804C31.0086 3.87633 30.9338 3.90944 30.8613 3.94716C30.2261 4.35707 29.6766 4.2653 29.099 3.77095C28.2631 3.05758 27.2878 2.8312 26.2182 3.20686C25.4202 3.48829 23.5955 5.34454 23.3141 6.14357C23.0826 6.78044 23.1071 7.48225 23.3826 8.10138C23.505 8.38771 23.6274 8.68873 23.8501 8.89919C24.5991 9.6089 24.3017 10.3357 23.9333 11.0773C23.8847 11.1612 23.8169 11.2323 23.7354 11.2849C23.6539 11.3374 23.5611 11.3698 23.4646 11.3795C23.1134 11.4554 22.756 11.4945 22.406 11.574C21.0255 11.8873 20.1897 12.92 20.1836 14.3431C20.1836 14.9133 20.1836 15.4848 20.1836 16.0562C20.1743 16.6568 20.3653 17.2434 20.7265 17.7233C21.0878 18.2033 21.5986 18.5492 22.1784 18.7066C22.5566 18.8086 22.9419 18.8818 23.3312 18.9256C23.4777 18.9389 23.6177 18.9924 23.7356 19.0803C23.8536 19.1682 23.9449 19.287 23.9994 19.4236C24.0802 19.6023 24.1462 19.7907 24.2344 19.9608C24.4546 20.394 24.3751 20.7709 24.0789 21.1379C23.8162 21.4509 23.5949 21.7963 23.4205 22.1658C22.9885 23.1312 23.0962 24.0502 23.6959 24.8994C24.2156 25.6336 24.8552 26.2752 25.5879 26.7972C26.5559 27.4898 27.71 27.4984 28.7049 26.8547C28.9656 26.6859 29.2324 26.5256 29.4747 26.3323C29.6093 26.2111 29.7797 26.1371 29.9601 26.1215C30.1405 26.1058 30.3211 26.1493 30.4746 26.2454C30.5739 26.3022 30.6794 26.3474 30.7891 26.38C31.3141 26.5195 31.554 26.8596 31.6017 27.4005C31.658 28.0196 31.7987 28.6241 32.1806 29.1442C32.7276 29.8881 33.4448 30.3029 34.3834 30.2993C34.9696 30.2993 35.5571 30.2993 36.1445 30.2993C37.5494 30.2993 38.6007 29.4427 38.9066 28.0723C38.9801 27.737 39.029 27.398 39.0877 27.0603C39.1379 26.7777 39.2995 26.6272 39.5455 26.4803C40.3091 26.0202 40.9394 26.0765 41.6602 26.6651C42.9048 27.6819 44.475 27.5216 45.525 26.3677C45.8921 25.9566 46.3131 25.5871 46.6962 25.1857C47.0955 24.7718 47.3525 24.2413 47.4298 23.6714C47.507 23.1015 47.4005 22.5218 47.1257 22.0165C46.9122 21.6323 46.6709 21.2643 46.4037 20.9152C46.3165 20.8161 46.2613 20.693 46.2454 20.562C46.2294 20.431 46.2535 20.2982 46.3144 20.1811C46.3742 20.0638 46.4221 19.9408 46.4575 19.814C46.6117 19.2217 46.974 18.9036 47.6006 18.873C47.8765 18.8421 48.1487 18.7839 48.4132 18.6992C49.2968 18.4729 49.8977 17.9235 50.2587 17.0926C50.3346 16.9152 50.3174 16.6558 50.5989 16.6215V13.7827C50.386 13.79 50.3921 13.604 50.3493 13.4792ZM48.0571 15.8714C48.0668 16.2079 47.9249 16.3792 47.5883 16.4294C47.0242 16.5138 46.4661 16.6338 45.9032 16.717C45.2606 16.8124 44.8225 17.1367 44.6341 17.7693C44.417 18.5021 44.1233 19.21 43.7578 19.8813C43.4323 20.4747 43.4935 21.0254 43.901 21.565C44.2437 22.019 44.5533 22.4986 44.8862 22.9624C45.0477 23.1875 45.0979 23.4029 44.8862 23.6182C44.5068 24 44.1258 24.3802 43.7431 24.7587C43.6746 24.8293 43.5829 24.8727 43.4849 24.881C43.3236 24.8608 43.1715 24.7945 43.0468 24.6901C42.5805 24.361 42.1081 24.0416 41.6455 23.7112C41.1499 23.3527 40.6346 23.2879 40.09 23.5803C39.3867 23.9551 38.649 24.2616 37.8872 24.4956C37.3047 24.6767 36.973 25.0756 36.8837 25.6886C36.8029 26.2527 36.6817 26.8107 36.5948 27.3736C36.5386 27.7333 36.3831 27.9279 35.9829 27.9071C35.5448 27.8838 35.103 27.8887 34.6624 27.9071C34.2892 27.9218 34.0922 27.7847 34.0408 27.3956C33.9686 26.8315 33.8474 26.2735 33.7532 25.7119C33.6516 25.116 33.3517 24.6926 32.7545 24.509C31.9768 24.2723 31.2242 23.9595 30.5076 23.5754C29.9753 23.2866 29.4747 23.3637 28.995 23.6978C28.5153 24.0318 28.0502 24.339 27.5986 24.6853C27.2584 24.9459 26.9977 24.9141 26.7187 24.5984C26.4397 24.2827 26.1313 23.9866 25.8204 23.6978C25.5549 23.4531 25.5426 23.2157 25.7507 22.9306C26.0958 22.457 26.4238 21.9712 26.7664 21.4952C27.1226 20.9997 27.1899 20.4833 26.8962 19.9376C26.5185 19.2357 26.2118 18.4978 25.9807 17.735C25.7923 17.1232 25.359 16.8112 24.7373 16.7157C24.1903 16.6313 23.6494 16.5065 23.1011 16.4355C22.7217 16.3854 22.5541 16.219 22.57 15.8311C22.592 15.3912 22.592 14.9506 22.57 14.5108C22.5443 14.0898 22.7474 13.932 23.1305 13.8769C23.6788 13.7974 24.2197 13.675 24.7667 13.5955C25.3786 13.5049 25.7837 13.1941 25.9673 12.6031C26.207 11.8261 26.5205 11.0738 26.9035 10.3565C27.1899 9.82425 27.1115 9.32501 26.7713 8.84535C26.4311 8.36569 26.13 7.90193 25.7923 7.44674C25.5561 7.13227 25.5475 6.87653 25.8473 6.59999C26.1729 6.30387 26.4813 5.98817 26.7823 5.66758C27.0271 5.40695 27.2608 5.3837 27.5509 5.59906C28.0208 5.94902 28.5116 6.27205 28.9864 6.61467C29.4821 6.97319 29.9924 7.03315 30.5419 6.73703C31.2439 6.36052 31.9819 6.05514 32.7447 5.82543C33.3566 5.64188 33.6724 5.21361 33.7654 4.58589C33.8474 4.03893 33.9734 3.49808 34.0457 2.9499C34.0946 2.57302 34.2598 2.39926 34.649 2.41517C35.0883 2.4323 35.5301 2.43597 35.9695 2.41517C36.3587 2.39437 36.5349 2.57057 36.5924 2.93644C36.683 3.51521 36.7956 4.09032 36.8886 4.6691C36.9816 5.24788 37.2741 5.6321 37.8272 5.8034C38.6337 6.05823 39.4163 6.38333 40.1659 6.77497C40.6628 7.0307 41.145 6.9683 41.5917 6.6526C42.0812 6.30754 42.5854 5.96982 43.0713 5.61252C43.3527 5.4045 43.5877 5.38859 43.8398 5.65902C44.1617 6.0053 44.4994 6.33813 44.8409 6.66362C45.0734 6.88509 45.0795 7.10168 44.8996 7.35374C44.5484 7.8432 44.2094 8.34244 43.8594 8.83189C43.5094 9.32134 43.4445 9.84016 43.737 10.3883C44.1115 11.0913 44.4168 11.8289 44.6487 12.5909C44.8274 13.177 45.2301 13.5025 45.8444 13.5906C46.3915 13.6701 46.9324 13.7937 47.4806 13.872C47.8845 13.9295 48.0925 14.1008 48.0644 14.5426C48.0363 14.9843 48.0448 15.4309 48.0571 15.8714Z" fill="#232323"/>
<path d="M35.7296 35.2257C35.2853 35.3303 34.836 35.412 34.3834 35.4704C34.2285 35.484 34.081 35.5425 33.959 35.6388C33.837 35.7351 33.7459 35.865 33.6968 36.0125C33.5157 36.4665 33.3786 36.94 33.1314 37.3658C32.9625 37.6583 33.0188 37.914 33.1987 38.1844C33.4876 38.62 33.8106 39.0324 34.0909 39.4705C34.4663 40.0219 34.6581 40.6778 34.639 41.3446C34.6199 42.0114 34.3908 42.6551 33.9844 43.1842C33.4472 43.9086 32.7704 44.5045 32.1181 45.1188C30.8392 46.3216 29.1039 46.3216 27.8238 45.3402C27.4884 45.082 27.1384 44.8422 26.7847 44.6061C26.6741 44.5227 26.5428 44.4711 26.405 44.4569C26.2672 44.4427 26.1281 44.4663 26.0027 44.5253C25.5365 44.7223 25.0812 44.9462 24.599 45.1004C24.2576 45.2093 24.1022 45.4345 24.052 45.7734C23.9724 46.3057 23.8904 46.838 23.7619 47.3641C23.4597 48.5939 22.7058 49.3929 21.4881 49.7551C21.3486 49.7955 21.1369 49.7551 21.132 49.9998H17.7053C17.7053 49.749 17.4752 49.7551 17.3259 49.6927C16.2747 49.2338 15.5587 48.4923 15.2907 47.3531C15.1683 46.8123 15.0766 46.2653 14.986 45.7183C14.9444 45.4589 14.8404 45.2521 14.5772 45.1579C14.0694 44.9768 13.5774 44.7602 13.0891 44.5326C12.7758 44.387 12.5029 44.436 12.2226 44.6428C11.8163 44.9425 11.4125 45.2472 10.9805 45.5128C9.58287 46.3693 8.07513 46.2017 6.91618 45.049C6.41768 44.5547 5.92123 44.0587 5.42681 43.5611C4.26296 42.3901 4.09652 40.8471 4.98134 39.457C5.26159 39.0165 5.57856 38.6005 5.88206 38.1759C5.97196 38.0693 6.02726 37.9378 6.0406 37.799C6.05393 37.6602 6.02468 37.5206 5.95672 37.3989C5.73484 36.9642 5.54386 36.5144 5.3852 36.0529C5.33838 35.8967 5.24565 35.7582 5.11906 35.6554C4.99247 35.5526 4.83788 35.4903 4.67539 35.4765C4.12733 35.4014 3.58392 35.2956 3.04772 35.1596C1.50939 34.7362 0.606217 33.5481 0.600098 31.9562C0.600098 31.2721 0.600098 30.5869 0.600098 29.9017C0.608664 28.311 1.56324 27.1008 3.11625 26.7141C3.64004 26.5844 4.17362 26.5122 4.70721 26.4229C4.9948 26.3752 5.24568 26.2773 5.33869 25.9628C5.49028 25.4975 5.67767 25.0446 5.8992 24.6083C6.0791 24.2253 6.0534 23.8985 5.77682 23.5694C5.48584 23.1959 5.21696 22.8057 4.97155 22.4008C4.18341 21.1907 4.21279 19.8031 5.10862 18.6614C5.75912 17.8001 6.53748 17.0434 7.41672 16.4173C8.47165 15.6966 9.61958 15.6488 10.7516 16.2582C11.2827 16.5433 11.76 16.9202 12.2508 17.2726C12.3627 17.3673 12.5 17.427 12.6456 17.4442C12.7912 17.4614 12.9386 17.4353 13.0695 17.3693C13.5137 17.1661 13.9617 16.9691 14.4255 16.8101C14.5821 16.7611 14.7206 16.6669 14.8236 16.5393C14.9267 16.4117 14.9896 16.2564 15.0043 16.093C15.0713 15.5765 15.1711 15.0648 15.303 14.561C15.4608 14.0324 15.9969 13.6751 16.4925 13.7351C17.0371 13.7999 17.4385 14.2514 17.4715 14.8437C17.4817 15.0722 17.4674 15.3011 17.4287 15.5265C17.3186 16.2019 17.184 16.8725 17.0726 17.5504C16.9845 18.1206 16.6712 18.5085 16.1082 18.6626C15.1209 18.9461 14.1669 19.335 13.2629 19.8226C13.0291 19.9606 12.7587 20.0237 12.4881 20.0034C12.2174 19.983 11.9595 19.8802 11.749 19.7088C11.1444 19.2659 10.5325 18.8348 9.91329 18.4155C9.34422 18.0288 8.91834 18.0679 8.4178 18.5378C8.0017 18.9282 7.60396 19.3381 7.20378 19.7468C6.59187 20.3684 6.57107 20.744 7.08752 21.4599C7.50606 22.0435 7.9246 22.626 8.32357 23.2231C8.65767 23.7248 8.68214 24.2338 8.38843 24.7453C7.91644 25.5668 7.5489 26.444 7.29434 27.3565C7.09119 28.0907 6.62736 28.4223 5.90409 28.5239C5.18082 28.6254 4.45265 28.7466 3.73795 28.9118C3.14318 29.05 2.91677 29.3437 2.90086 29.9506C2.88495 30.5575 2.89229 31.1902 2.90086 31.8093C2.9082 32.5435 3.15174 32.847 3.87012 32.9938C4.5885 33.1406 5.31299 33.2654 6.03749 33.3756C6.67632 33.471 7.09119 33.7892 7.2613 34.4095C7.51081 35.307 7.87049 36.1701 8.33213 36.9792C8.71396 37.6607 8.65644 38.2774 8.19139 38.8905C7.76796 39.4497 7.37022 40.0272 6.98472 40.6133C6.61757 41.1701 6.64083 41.5213 7.08874 42.0242C7.51215 42.4975 7.96157 42.9468 8.43493 43.3702C8.95383 43.8388 9.30751 43.8596 9.88637 43.4828C10.4852 43.0871 11.0727 42.6748 11.6487 42.2457C12.2202 41.8186 12.7966 41.7697 13.4293 42.1123C14.2692 42.5842 15.1613 42.9566 16.0874 43.2221C16.6883 43.3849 17.0126 43.7862 17.0983 44.4054C17.1999 45.1493 17.343 45.886 17.4924 46.6214C17.6331 47.3164 17.9427 47.5623 18.6391 47.5721C19.2106 47.5783 19.7821 47.5721 20.3524 47.5721C21.1809 47.566 21.4722 47.3372 21.6203 46.5247C21.7426 45.8517 21.876 45.1787 21.9739 44.5008C22.0719 43.8229 22.4378 43.3824 23.1096 43.1854C24.0042 42.9305 24.8665 42.5737 25.6796 42.1221C26.2536 41.7966 26.7811 41.8223 27.3293 42.1943C27.9486 42.6176 28.5532 43.0508 29.1785 43.4779C29.7341 43.8584 30.1294 43.845 30.6238 43.3739C31.0632 42.9603 31.4805 42.5259 31.9076 42.0964C32.4363 41.5592 32.473 41.1725 32.0545 40.5326C31.6616 39.9318 31.2382 39.3518 30.8307 38.7657C30.4635 38.2383 30.3766 37.7109 30.7083 37.1199C31.1761 36.2653 31.5448 35.36 31.8073 34.4218C31.9296 33.9984 32.1499 33.6178 32.6076 33.504C33.537 33.2527 34.4874 33.0864 35.4469 33.0073C36.1591 32.9632 36.6548 33.3499 36.7417 33.9335C36.8286 34.5172 36.4063 35.0593 35.7296 35.2257Z" fill="#232323"/>
<path d="M28.0404 31.0114C28.0588 35.1265 24.9148 38.7399 20.8053 39.3504C20.3659 39.4153 19.929 39.4202 19.53 39.4447C18.3421 39.4438 17.1676 39.1945 16.0817 38.7129C14.9959 38.2313 14.0227 37.528 13.2248 36.6481C12.4268 35.7683 11.8217 34.7313 11.4483 33.6038C11.0749 32.4763 10.9414 31.2832 11.0564 30.101C11.4541 25.8354 15.2173 22.4068 19.4701 22.4338C19.8074 22.4305 20.1331 22.5563 20.3807 22.7853C20.6282 23.0144 20.7788 23.3295 20.8016 23.6659C20.8125 23.9967 20.6924 24.3184 20.4673 24.5611C20.2423 24.8038 19.9305 24.9478 19.5998 24.9618C18.1006 25.0315 16.7544 25.4512 15.6126 26.4558C13.712 28.1163 13.0708 30.7385 13.985 33.1344C14.8514 35.403 17.1155 36.9277 19.5876 36.8983C22.7156 36.864 25.2244 34.5012 25.4619 31.3589C25.4998 30.8695 25.5022 30.3702 25.9171 30.0129C26.3087 29.6789 26.7615 29.5651 27.2364 29.7755C27.482 29.8728 27.6913 30.0439 27.8354 30.2653C27.9795 30.4868 28.0511 30.7475 28.0404 31.0114Z" fill="#232323"/>
<path d="M35.3049 9.08643C34.1045 9.08861 32.9317 9.44625 31.9343 10.1142C30.937 10.7822 30.1599 11.7306 29.7011 12.8397C29.2423 13.9488 29.1223 15.1689 29.3563 16.3461C29.5903 17.5233 30.1678 18.6048 31.016 19.4542C31.8641 20.3036 32.9449 20.8827 34.1219 21.1186C35.2989 21.3545 36.5194 21.2365 37.6294 20.7795C38.7394 20.3226 39.6891 19.5471 40.3588 18.551C41.0285 17.5549 41.388 16.3828 41.3922 15.1826C41.3944 14.3822 41.2386 13.5893 40.9336 12.8493C40.6286 12.1093 40.1804 11.4368 39.6149 10.8704C39.0493 10.304 38.3774 9.85482 37.6378 9.54869C36.8982 9.24255 36.1054 9.08546 35.3049 9.08643ZM35.3269 18.6883C34.3966 18.6922 33.5024 18.3282 32.8394 17.6756C32.1764 17.023 31.7983 16.1348 31.7877 15.2046C31.7644 13.2639 33.3786 11.6218 35.2951 11.6304C35.7586 11.6283 36.218 11.7175 36.647 11.8929C37.076 12.0683 37.4663 12.3265 37.7955 12.6527C38.1247 12.9789 38.3865 13.3668 38.5658 13.7941C38.7451 14.2215 38.8384 14.68 38.8405 15.1434C38.8426 15.6068 38.7534 16.0661 38.5779 16.4951C38.4025 16.924 38.1443 17.3142 37.818 17.6434C37.4917 17.9726 37.1038 18.2343 36.6764 18.4135C36.249 18.5928 35.7904 18.6862 35.3269 18.6883Z" fill="#232323"/>
</g>
<defs>
<clipPath id="clip0_625_9087">
<rect width="50" height="50" fill="white" transform="translate(0.600098)"/>
</clipPath>
</defs>
</svg>
