<svg width="50" height="50" viewBox="0 0 50 50" fill="none" xmlns="http://www.w3.org/2000/svg">
<g clip-path="url(#clip0_625_9090)">
<path d="M25.0149 50.03C31.6964 50.03 37.9762 47.4258 42.7083 42.6937C47.0982 38.3038 49.6875 32.4705 50 26.2651C50.0298 25.655 49.5536 25.1193 48.9434 25.0895C48.3333 25.0598 47.7976 25.536 47.7678 26.1461C47.4851 31.786 45.119 37.0985 41.1161 41.1014C36.8155 45.402 31.0863 47.783 25 47.783C18.9137 47.783 13.1845 45.4169 8.88391 41.1014C-1.35563e-05 32.2175 -1.35563e-05 17.7532 8.88391 8.8693C16.4583 1.2949 28.244 0.0300151 37.2024 5.72942L34.6875 8.80978L41.9048 8.08061L41.1756 0.863349L38.6309 3.98835C28.7649 -2.44022 15.6845 -1.08606 7.30654 7.29192C-2.45537 17.0538 -2.45537 32.9169 7.30654 42.6788C12.0536 47.4258 18.3333 50.03 25.0149 50.03Z" fill="#232323"/>
<path d="M36.8155 19.8515C36.8155 19.8367 36.8155 19.8218 36.8006 19.8218C36.8006 19.792 36.7857 19.7771 36.7857 19.7474C36.7857 19.7325 36.7709 19.7027 36.7709 19.6878C36.7709 19.673 36.756 19.6581 36.756 19.6432C36.7262 19.5688 36.6965 19.5093 36.6518 19.4498L31.9197 12.5003C31.7113 12.1878 31.3691 12.0093 30.997 12.0093H19.003C18.631 12.0093 18.2887 12.1878 18.0804 12.5003L13.3482 19.4349C13.3036 19.4944 13.2738 19.5688 13.2441 19.6283C13.2441 19.6432 13.2292 19.6581 13.2292 19.673C13.2143 19.6878 13.2143 19.7176 13.2143 19.7325C13.2143 19.7623 13.1994 19.7771 13.1994 19.8069C13.1994 19.8218 13.1994 19.8367 13.1845 19.8367C13.1697 19.9111 13.1548 19.9855 13.1548 20.0599V36.8605C13.1548 37.4706 13.6607 37.9765 14.2709 37.9765H35.7143C36.3244 37.9765 36.8304 37.4706 36.8304 36.8605V20.0748C36.8304 19.9855 36.8304 19.9111 36.8155 19.8515ZM19.5982 14.2414H30.4018L33.6012 18.9438H16.384L19.5982 14.2414ZM34.5982 35.7593H15.4018V21.1908H34.6131V35.7593H34.5982Z" fill="#232323"/>
</g>
<defs>
<clipPath id="clip0_625_9090">
<rect width="50" height="50" fill="white"/>
</clipPath>
</defs>
</svg>
