<svg width="176" height="80" viewBox="0 0 176 80" fill="none" xmlns="http://www.w3.org/2000/svg">
<g clip-path="url(#clip0_339_5760)">
<path fill-rule="evenodd" clip-rule="evenodd" d="M36.7747 80L0.833374 66.9029V14.2226H9.50789V60.8155L36.7737 70.7516L64.0409 60.8159V8.69103H50.36V0H72.7161V66.9035L36.7747 80ZM36.7747 64.8661L15.0282 56.9419V14.2226H58.5208V31.219H49.8467V22.9135H23.7022V50.8542L36.7747 55.6177L49.8471 50.8542V42.5492H58.5212V56.9426L36.7747 64.8661Z" fill="#D71920"/>
<path d="M112.889 14.2371V56.7946H104.898V20.5807H92.236V56.7946H84.2451V14.2371H112.889ZM133.604 29.8188C138.44 29.8188 142.169 30.9172 144.791 33.1138C147.414 35.3104 148.726 38.5849 148.725 42.9372C148.725 47.6179 147.363 51.0977 144.638 53.3766C141.913 55.6556 138.133 56.7949 133.297 56.7946H121.372V14.2371H144.423L143.562 20.4572H129.363V29.8188H133.604ZM133.112 50.8203C135.096 50.9826 137.062 50.3517 138.583 49.0654C139.772 47.8951 140.366 45.8934 140.366 43.0601C140.456 42.0424 140.341 41.0169 140.03 40.044C139.719 39.0711 139.216 38.1704 138.553 37.3947C137.007 36.0863 135.007 35.4442 132.99 35.6088H129.363V50.8206L133.112 50.8203ZM160.774 13.3129C162.923 13.211 165.064 13.6443 167.006 14.574C168.948 15.5037 170.629 16.9009 171.9 18.6407C174.523 22.1916 175.834 27.7655 175.834 35.3624C175.834 42.7116 174.451 48.2752 171.685 52.053C170.366 53.8922 168.61 55.3733 166.576 56.3625C164.542 57.3516 162.295 57.8178 160.036 57.7189C157.931 57.746 155.843 57.3327 153.906 56.5056C151.97 55.6784 150.226 54.4554 148.788 52.9149L152.537 48.4802C153.565 49.3615 154.701 50.1068 155.919 50.6978C157.1 51.214 158.379 51.466 159.668 51.4364C160.835 51.4804 161.992 51.2056 163.015 50.6414C164.038 50.0771 164.889 49.2447 165.477 48.2331C166.808 46.0987 167.536 42.6498 167.659 37.8866H154.197V31.974H167.659C167.494 27.4585 166.787 24.2355 165.537 22.3051C164.998 21.3979 164.226 20.6515 163.302 20.1426C162.378 19.6338 161.336 19.381 160.282 19.4103C158.98 19.3863 157.685 19.6163 156.471 20.0877C155.158 20.6668 153.936 21.4344 152.844 22.3663L149.094 17.9321C150.627 16.469 152.406 15.2907 154.35 14.4523C156.396 13.6519 158.579 13.2647 160.774 13.3128V13.3129Z" fill="black"/>
</g>
<defs>
<clipPath id="clip0_339_5760">
<rect width="175" height="80" fill="white" transform="translate(0.833374)"/>
</clipPath>
</defs>
</svg>
