<svg width="220" height="50" viewBox="0 0 220 50" fill="none" xmlns="http://www.w3.org/2000/svg">
<g clip-path="url(#clip0_346_6293)">
<path fill-rule="evenodd" clip-rule="evenodd" d="M49.3507 41.7139C48.9372 41.3504 48.4575 41.0678 47.9372 40.881C46.8454 40.4843 45.6463 40.4843 44.5546 40.881C44.0357 41.0698 43.5569 41.3522 43.1427 41.7139C42.7352 42.0763 42.4051 42.5155 42.1718 43.0057C41.9263 43.5294 41.8023 44.1007 41.8088 44.6778C41.8088 45.2918 41.9315 45.8485 42.1718 46.3528C42.4052 46.8428 42.7353 47.282 43.1427 47.6446C43.5559 48.0074 44.035 48.2897 44.5546 48.4766C45.6463 48.8733 46.8454 48.8733 47.9372 48.4766C48.458 48.2913 48.9379 48.0088 49.3507 47.6446C49.7579 47.2822 50.0874 46.8429 50.3199 46.3528C50.563 45.8487 50.6846 45.2904 50.6846 44.6778C50.6915 44.1005 50.5669 43.529 50.3199 43.0057C50.0875 42.5154 49.758 42.0762 49.3507 41.7139ZM48.4061 45.6443C48.2937 45.9198 48.126 46.17 47.9131 46.3798C47.7 46.5835 47.447 46.7419 47.1695 46.8453C46.5762 47.0631 45.9233 47.0631 45.33 46.8453C45.0543 46.7398 44.8023 46.5816 44.5885 46.3798C44.3711 46.1722 44.2006 45.9215 44.0882 45.6443C43.8489 45.0218 43.8489 44.3343 44.0882 43.7118C44.2004 43.4345 44.3709 43.1839 44.5885 42.9766C44.8018 42.7748 45.054 42.6172 45.33 42.5132C45.9231 42.2937 46.5765 42.2937 47.1695 42.5132C47.4467 42.6161 47.6997 42.7738 47.9131 42.9766C48.1259 43.1863 48.2936 43.4364 48.4061 43.7118C48.642 44.3348 48.642 45.0212 48.4061 45.6443Z" fill="#C11718"/>
<path fill-rule="evenodd" clip-rule="evenodd" d="M25.0402 30.2895C26.394 29.7217 27.5545 28.9603 28.5217 28.0054C29.491 27.0454 30.2576 25.9048 30.7769 24.6499C31.3186 23.359 31.5938 21.9743 31.5863 20.577C31.5863 19.1129 31.3165 17.7561 30.7769 16.5065C30.2377 15.2599 29.497 14.1792 28.5286 13.2632C27.5603 12.3472 26.403 11.6286 25.0561 11.1159C23.6992 10.6024 22.2252 10.3459 20.634 10.3465H9.02276V7.97836H27.8542V0.718262H0.833374V31.1429H20.6091C22.2079 31.1429 23.6849 30.8585 25.0402 30.2895ZM9.02276 23.88V17.4967H20.0617C21.3265 17.4967 22.1906 17.7995 22.6713 18.4055C23.152 19.0114 23.3969 19.7344 23.3953 20.577C23.3953 21.4978 23.1643 22.2757 22.7003 22.9164C22.2364 23.5571 21.382 23.88 20.1185 23.88H9.02276Z" fill="#C11718"/>
<path fill-rule="evenodd" clip-rule="evenodd" d="M71.9204 31.1429L58.8294 0.718262H46.9063L33.5361 31.1429H42.3375L44.2321 26.6865H61.278L63.2279 31.1429H71.9204ZM47.2415 19.6436L52.1427 7.92467H53.4242L58.1039 19.6436H47.2415Z" fill="#C11718"/>
<path fill-rule="evenodd" clip-rule="evenodd" d="M60.2606 40.7656H57.8296L55.9308 43.5192H54.0725V40.7656H51.9714V48.5731H54.0725V45.4275H55.9876L57.9305 48.5731H60.4322L57.7172 44.3811L60.2606 40.7656Z" fill="#C11718"/>
<path fill-rule="evenodd" clip-rule="evenodd" d="M68.4462 41.6294C68.1453 41.3517 67.7916 41.1358 67.4055 40.9944C66.9825 40.8395 66.5345 40.7622 66.0835 40.7663H61.4177V48.5734H63.5192V46.9077H66.0863C66.5349 46.9116 66.9809 46.8404 67.4055 46.6974C67.7894 46.5653 68.1431 46.3595 68.4462 46.0918C68.7394 45.8216 68.9722 45.4938 69.1297 45.1294C69.4627 44.3226 69.4627 43.4192 69.1297 42.6124C68.9718 42.2424 68.7392 41.9081 68.4462 41.6298M66.9227 44.7383C66.6831 44.9235 66.3794 45.0168 66.0066 45.0168H63.5192V42.66H66.005C66.3786 42.66 66.6831 42.769 66.9227 42.9858C67.1622 43.2026 67.2779 43.4981 67.2779 43.8739C67.2779 44.2599 67.1594 44.5465 66.9227 44.7378" fill="#C11718"/>
<path fill-rule="evenodd" clip-rule="evenodd" d="M15.8566 45.7222V40.7656H13.7551V48.5731H15.7683L19.9158 43.6472V48.5731H22.0173V40.7656H20.0008L15.8566 45.7222Z" fill="#C11718"/>
<path fill-rule="evenodd" clip-rule="evenodd" d="M7.22253 45.979H7.16448L4.70897 40.7656H2.02087V48.5731H4.06393V43.6605L6.32241 48.5731H8.00901L10.3104 43.6605V48.5731H12.4119V40.7656H9.88079L7.22253 45.979Z" fill="#C11718"/>
<path fill-rule="evenodd" clip-rule="evenodd" d="M39.8186 41.6294C39.5183 41.3519 39.1653 41.1361 38.7799 40.9944C38.3561 40.8394 37.9073 40.7622 37.4555 40.7663H32.7905V48.5734H34.8945V46.9077H37.4575C37.9071 46.9115 38.3542 46.8404 38.7799 46.6974C39.1633 46.5655 39.5164 46.3596 39.8186 46.0919C40.1122 45.8218 40.3452 45.494 40.5025 45.1294C40.8333 44.3222 40.8333 43.4196 40.5025 42.6124C40.3441 42.2425 40.1115 41.9083 39.8186 41.6298M38.2943 44.7383C38.0547 44.9236 37.751 45.0168 37.3794 45.0168H34.8945V42.66H37.3782C37.751 42.66 38.0547 42.769 38.2943 42.9858C38.5338 43.2026 38.6524 43.4981 38.6524 43.8739C38.6524 44.2599 38.5322 44.5465 38.2943 44.7379" fill="#C11718"/>
<path fill-rule="evenodd" clip-rule="evenodd" d="M31.635 40.7656H29.2036L27.3036 43.5192H25.4441V40.7656H23.3467V48.5731H25.4441V45.4275H27.3604L29.3066 48.5731H31.8079L29.09 44.3811L31.635 40.7656Z" fill="#C11718"/>
<path fill-rule="evenodd" clip-rule="evenodd" d="M95.5694 0.779297H86.7905V7.62601H89.8674L95.5694 0.779297Z" fill="#C11718"/>
<path fill-rule="evenodd" clip-rule="evenodd" d="M181.309 22.4764C182.255 20.5155 182.728 18.3427 182.729 15.9579C182.731 13.5731 182.257 11.3995 181.309 9.43697C180.361 7.47379 179.108 5.79642 177.529 4.40165C175.95 3.00687 174.121 1.92779 172.024 1.15753C169.927 0.387277 167.736 0.000130296 165.432 0.000130296C163.181 -0.0082093 160.947 0.383849 158.837 1.15753C156.749 1.92779 154.914 3.00916 153.332 4.40165C151.755 5.79764 150.502 7.47379 149.555 9.43697C148.607 11.4002 148.133 13.5733 148.133 15.9579C148.133 18.3425 148.609 20.5156 149.555 22.4764C150.5 24.4372 151.755 26.117 153.332 27.5138C154.909 28.9105 156.749 29.9884 158.837 30.7571C160.937 31.5285 163.129 31.9124 165.431 31.9124C167.734 31.9124 169.928 31.5285 172.024 30.7571C174.119 29.9856 175.952 28.9061 177.529 27.5138C179.106 26.1214 180.361 24.4388 181.309 22.4764ZM173.842 19.728C173.379 20.8455 172.739 21.7989 171.921 22.5882C171.092 23.384 170.105 24.0011 169.022 24.4004C167.911 24.8251 166.723 25.0368 165.459 25.0355C164.158 25.0355 162.962 24.8251 161.866 24.4004C160.788 23.9911 159.804 23.3752 158.968 22.5882C158.133 21.7991 157.482 20.8457 157.017 19.728C156.551 18.6103 156.32 17.3536 156.322 15.9579C156.322 14.563 156.553 13.3067 157.017 12.189C157.48 11.0713 158.13 10.1176 158.968 9.32797C159.803 8.5403 160.788 7.9237 161.866 7.51375C162.962 7.09108 164.157 6.88035 165.459 6.88035C166.721 6.88035 167.909 7.09149 169.022 7.51375C170.135 7.93602 171.101 8.54076 171.921 9.32797C172.738 10.1163 173.379 11.0699 173.842 12.189C174.305 13.308 174.538 14.5643 174.539 15.9579C174.539 17.3523 174.307 18.609 173.842 19.728" fill="#C11718"/>
<path fill-rule="evenodd" clip-rule="evenodd" d="M158.769 43.0042C158.537 42.514 158.207 42.0747 157.8 41.7124C157.386 41.3494 156.906 41.0669 156.385 40.8796C155.294 40.4829 154.096 40.4829 153.004 40.8796C152.485 41.068 152.006 41.3504 151.591 41.7124C151.184 42.0745 150.855 42.5139 150.623 43.0042C150.382 43.5299 150.257 44.1005 150.257 44.6778C150.257 45.255 150.382 45.8256 150.623 46.3513C150.855 46.8416 151.184 47.2809 151.591 47.6431C152.005 48.0062 152.484 48.2886 153.004 48.4751C154.096 48.8718 155.294 48.8718 156.385 48.4751C156.907 48.2898 157.387 48.0073 157.8 47.6431C158.207 47.2807 158.537 46.8415 158.769 46.3513C159.018 45.8274 159.144 45.2549 159.137 44.6763H159.135C159.142 44.0991 159.018 43.5276 158.771 43.0042M156.858 45.644C156.745 45.9201 156.576 46.1704 156.361 46.3795C156.149 46.5836 155.897 46.7421 155.62 46.845C155.026 47.0629 154.374 47.0629 153.78 46.845C153.505 46.7392 153.253 46.5811 153.038 46.3795C152.821 46.1716 152.65 45.921 152.537 45.644C152.414 45.3356 152.354 45.0064 152.36 44.6751C152.356 44.3452 152.416 44.0176 152.538 43.7103C152.651 43.4333 152.822 43.1828 153.04 42.9752C153.253 42.7735 153.506 42.616 153.782 42.5117C154.375 42.2922 155.028 42.2922 155.621 42.5117C155.897 42.6145 156.148 42.7721 156.36 42.9748C156.575 43.1833 156.744 43.4336 156.856 43.7099C157.09 44.3335 157.09 45.0188 156.856 45.6424" fill="#C11718"/>
<path fill-rule="evenodd" clip-rule="evenodd" d="M165.61 45.979H165.551L163.093 40.7656H160.407V48.5731H162.45V43.6605L164.709 48.5731H166.395L168.695 43.6605V48.5731H170.796V40.7656H168.268L165.61 45.979Z" fill="#C11718"/>
<path fill-rule="evenodd" clip-rule="evenodd" d="M184.474 40.7656L181.045 48.5731H183.302L183.787 47.4311H188.163L188.661 48.5731H190.891L187.532 40.7656H184.474ZM184.559 45.6241L185.817 42.617H186.144L187.345 45.6241H184.559Z" fill="#C11718"/>
<path fill-rule="evenodd" clip-rule="evenodd" d="M172.14 48.5731H174.242V42.6037H177.887V48.5731H179.989V40.7656H172.14V48.5731Z" fill="#C11718"/>
<path fill-rule="evenodd" clip-rule="evenodd" d="M194.874 0.718262L190.804 22.1744C190.584 23.3115 189.899 23.88 188.748 23.88H184.791V31.1429H189.025C191.699 31.1429 193.872 30.5192 195.543 29.2718C197.214 28.0244 198.31 25.9881 198.831 23.1631L201.726 7.97836H211.644V31.1429H219.833V0.718262H194.874Z" fill="#C11718"/>
<path fill-rule="evenodd" clip-rule="evenodd" d="M212.687 40.9942C212.3 41.1372 211.943 41.3499 211.635 41.6215C211.333 41.8961 211.094 42.2317 210.936 42.6054C210.766 43.0066 210.681 43.4381 210.687 43.873C210.687 44.4749 210.822 44.9944 211.1 45.4333C211.36 45.8563 211.724 46.2082 212.157 46.4566L210.972 48.5732H213.255L214.1 46.9346H216.561V48.5732H218.665V40.7661L214.003 40.7689C213.554 40.7633 213.109 40.8397 212.689 40.9942M216.564 42.6587V45.0288H214.075C213.703 45.0288 213.397 44.9327 213.154 44.7357C212.911 44.5387 212.788 44.2484 212.786 43.8718C212.786 43.4858 212.909 43.1855 213.154 42.9751C213.399 42.7648 213.703 42.6574 214.076 42.6574L216.564 42.6587Z" fill="#C11718"/>
<path fill-rule="evenodd" clip-rule="evenodd" d="M203.468 45.7222V40.7656H201.367V48.5731H203.383L207.527 43.6472V48.5731H209.628V40.7656H207.614L203.468 45.7222Z" fill="#C11718"/>
<path fill-rule="evenodd" clip-rule="evenodd" d="M197.923 43.6177H194.05V40.7656H191.95V48.5731H194.05V45.4824H197.923V48.5731H200.024V40.7656H197.923V43.6177Z" fill="#C11718"/>
<path fill-rule="evenodd" clip-rule="evenodd" d="M114.415 43.6177H110.541V40.7656H108.439V48.5731H110.541V45.4824H114.415V48.5731H116.514V40.7656H114.415V43.6177Z" fill="#C11718"/>
<path fill-rule="evenodd" clip-rule="evenodd" d="M84.2311 20.0283V0.717773H76.0417V31.1425H83.8988L100.054 11.9406V31.1425H108.243V0.717773H100.387L84.2311 20.0283Z" fill="#C11718"/>
<path fill-rule="evenodd" clip-rule="evenodd" d="M99.0774 42.6299H102.151V48.5731H104.252V42.6299H107.324V40.7656H99.0774V42.6299Z" fill="#C11718"/>
<path fill-rule="evenodd" clip-rule="evenodd" d="M91.8323 45.7222V40.7656H89.7312V48.5731H91.7461L95.8918 43.6472V48.5731H97.9917V40.7656H95.9773L91.8323 45.7222Z" fill="#C11718"/>
<path fill-rule="evenodd" clip-rule="evenodd" d="M87.6296 40.7656H81.1852L80.0407 46.7105H79.0686V49.999H80.9142L81.0565 48.5723H86.5443L86.7008 49.999H88.5293V46.7097H87.63L87.6296 40.7656ZM85.5297 46.7105H82.2297L82.9148 42.5734H85.5309L85.5297 46.7105Z" fill="#C11718"/>
<path fill-rule="evenodd" clip-rule="evenodd" d="M121.003 40.7656L117.572 48.5731H119.83L120.317 47.4311H124.691L125.19 48.5731H127.422L124.064 40.7656H121.003ZM121.088 45.6241L122.346 42.617H122.673L123.875 45.6241H121.088Z" fill="#C11718"/>
<path fill-rule="evenodd" clip-rule="evenodd" d="M130.206 40.9942C129.82 41.1377 129.464 41.3504 129.156 41.6215C128.854 41.8953 128.616 42.2311 128.459 42.6054C128.287 43.0061 128.201 43.4378 128.207 43.873C128.207 44.475 128.345 44.9951 128.621 45.4333C128.882 45.8555 129.245 46.2071 129.677 46.4566L128.494 48.5732H130.779L131.621 46.9346H134.081V48.5732H136.181V40.7661L131.521 40.7689C131.072 40.7634 130.626 40.8398 130.206 40.9942M134.081 42.6587V45.0288H131.593C131.221 45.0288 130.913 44.9327 130.672 44.7357C130.43 44.5387 130.308 44.2484 130.308 43.8718C130.308 43.4858 130.43 43.1855 130.672 42.9751C130.913 42.7648 131.221 42.6574 131.593 42.6574L134.081 42.6587Z" fill="#C11718"/>
<path fill-rule="evenodd" clip-rule="evenodd" d="M144.176 20.577C144.176 19.1129 143.908 17.7561 143.371 16.5065C142.83 15.2599 142.09 14.1792 141.123 13.2632C140.156 12.3472 138.997 11.6286 137.648 11.1159C136.293 10.6024 134.815 10.3461 133.228 10.3461H121.615V7.97836H140.444V0.718262H113.424V31.1429H133.201C134.796 31.1429 136.271 30.8585 137.628 30.2895C138.984 29.7206 140.145 28.9592 141.111 28.0054C142.081 27.0457 142.849 25.9051 143.369 24.6499C143.909 23.3587 144.183 21.974 144.174 20.577M135.289 22.9164C134.826 23.5571 133.972 23.88 132.71 23.88H121.615V17.4967H132.655C133.917 17.4967 134.78 17.7995 135.263 18.4055C135.745 19.0114 135.988 19.7344 135.988 20.577C135.988 21.4978 135.756 22.2757 135.291 22.9164" fill="#C11718"/>
<path fill-rule="evenodd" clip-rule="evenodd" d="M149.73 40.7656H147.302L145.399 43.5192H143.541V40.7656H141.441V48.5731H143.541V45.4275H145.456L147.401 48.5731H149.903L147.186 44.3811L149.73 40.7656Z" fill="#C11718"/>
<path fill-rule="evenodd" clip-rule="evenodd" d="M72.5961 45.5515H77.2406V43.69H72.5961V42.6299H77.7675V40.7656H70.4958V48.5731H77.9539V46.6528H72.5961V45.5515Z" fill="#C11718"/>
</g>
<defs>
<clipPath id="clip0_346_6293">
<rect width="219" height="50" fill="white" transform="translate(0.833374)"/>
</clipPath>
</defs>
</svg>
