<svg width="192" height="100" viewBox="0 0 192 100" fill="none" xmlns="http://www.w3.org/2000/svg">
<g clip-path="url(#clip0_339_5743)">
<path fill-rule="evenodd" clip-rule="evenodd" d="M139.968 20.5903C140.659 18.7016 141.401 16.9646 142.194 15.2952C142.914 13.7137 143.857 12.2431 144.993 10.9275C145.298 10.5277 145.684 10.1965 146.126 9.95543C146.567 9.71431 147.055 9.56865 147.556 9.52787C148.315 9.52787 148.753 10.0675 148.888 11.0118C148.968 12.4766 148.762 13.9428 148.281 15.3289C147.792 17.1333 147.168 18.9714 146.595 20.8263C146.022 22.6813 145.077 24.57 144.335 26.054C143.556 27.5556 142.659 28.9934 141.654 30.3542C140.743 31.5852 139.968 32.226 139.074 32.1923C138.18 32.1586 137.826 31.6189 137.708 30.5059C137.61 28.9121 137.821 27.3142 138.332 25.8011C138.77 24.1316 139.31 22.4284 139.968 20.5903ZM148.399 7.6223C146.855 7.54636 145.317 7.86559 143.93 8.54979C142.366 9.31643 140.954 10.3622 139.765 11.6358C138.438 13.0854 137.304 14.7009 136.393 16.4419C135.342 18.3685 134.522 20.4117 133.947 22.5296C133.029 25.0438 132.941 27.7859 133.694 30.3542C134.011 31.2678 134.602 32.0612 135.387 32.6257C136.172 33.1902 137.112 33.4983 138.079 33.5076C139.674 33.6081 141.266 33.2698 142.683 32.5296C144.31 31.6859 145.764 30.5415 146.966 29.1569C148.299 27.7118 149.433 26.0955 150.339 24.3508C151.356 22.4578 152.153 20.455 152.716 18.3812C153.639 15.8913 153.687 13.1613 152.851 10.6409C152.492 9.74311 151.869 8.97475 151.066 8.43622C150.263 7.89768 149.316 7.61402 148.349 7.6223H148.399Z" fill="#DD2B1C"/>
<path fill-rule="evenodd" clip-rule="evenodd" d="M165.195 11.8044C166.882 9.46042 168.197 8.29685 169.36 8.43176C169.62 8.42685 169.872 8.5222 170.064 8.69803C170.255 8.87386 170.372 9.11668 170.389 9.37611C170.407 10.3329 170.199 11.2804 169.782 12.1417C169.388 13.2027 168.885 14.2199 168.281 15.1771C167.76 15.9385 167.197 16.6704 166.595 17.3694C165.905 18.1025 165.013 18.6133 164.032 18.8365C162.935 19.0894 162.446 18.6173 162.531 17.3188C162.975 15.2975 163.888 13.4087 165.195 11.8044ZM163.037 20.0675C163.63 19.5914 164.367 19.3299 165.128 19.3255C165.46 19.3346 165.779 19.4618 166.026 19.6843C166.273 19.9068 166.433 20.21 166.477 20.5397C166.656 21.516 166.574 22.5222 166.241 23.4571C166.038 24.1484 165.785 24.8398 165.532 25.5481C165.247 26.2496 164.926 26.9363 164.571 27.6054C164.19 28.3242 163.714 28.9879 163.155 29.5785C162.908 29.8748 162.589 30.1021 162.228 30.2381C161.868 30.374 161.478 30.4141 161.097 30.3542C160.322 30.2193 159.9 29.4941 159.816 28.1788C159.804 26.5493 160.186 24.941 160.929 23.4908C161.413 22.229 162.128 21.0682 163.037 20.0675ZM174.419 8.26312C174.011 7.72297 173.48 7.28813 172.87 6.99481C172.26 6.70148 171.589 6.55816 170.912 6.57678C169.183 6.43098 167.445 6.71484 165.853 7.40309C164.253 8.13821 162.805 9.16794 161.586 10.4385C160.261 11.8152 159.127 13.3636 158.214 15.0422C157.291 16.8353 156.534 18.7094 155.954 20.6409C154.875 24.3339 154.706 27.0152 155.414 28.6678C155.817 29.5032 156.45 30.2059 157.239 30.693C158.027 31.18 158.939 31.4311 159.866 31.4166C162.103 31.6126 164.335 30.9828 166.14 29.6459C168.067 28.3025 169.65 26.5229 170.76 24.452C171.907 22.3103 172.143 20.5903 171.401 19.393C171.18 18.8744 170.843 18.4133 170.416 18.045C169.99 17.6767 169.484 17.411 168.939 17.2682L170.423 16.1552C171.259 15.5411 172.038 14.8525 172.75 14.0979C173.471 13.2888 174.042 12.3581 174.436 11.3491C174.679 10.8705 174.804 10.3408 174.802 9.80408C174.799 9.26734 174.668 8.73905 174.419 8.26312Z" fill="#DD2B1C"/>
<path fill-rule="evenodd" clip-rule="evenodd" d="M78.5005 24.7894C79.0605 23.9876 79.894 23.418 80.8445 23.1874C81.7382 23.0187 82.2779 23.4741 82.5308 24.6545C82.6619 26.317 82.4199 27.9878 81.8226 29.5449C81.148 31.6528 80.5241 33.609 79.917 35.3965C79.3812 37.035 78.7216 38.6303 77.944 40.1688C77.3162 41.4957 76.5831 42.7702 75.7517 43.98C74.9086 45.1435 74.0654 45.6663 73.2897 45.6663C72.514 45.6663 72.0249 44.8737 71.9406 43.4909C71.8745 41.7863 72.062 40.0814 72.4971 38.4319C72.8977 36.6194 73.4621 34.8471 74.1834 33.1368C74.8192 31.4795 75.557 29.8631 76.3925 28.297C77.0062 27.0766 77.7109 25.9041 78.5005 24.7894ZM77.1008 19.7304C77.6931 19.2628 78.3383 18.8666 79.0232 18.5499C79.7315 18.2127 81.3672 17.4875 83.8799 16.4083C85.5058 15.6899 86.9818 14.6716 88.2307 13.4066C89.6545 12.0349 90.6453 10.2761 91.0806 8.34758C91.0806 8.21267 91.0806 8.17894 90.7939 8.34758C90.3046 8.61392 89.856 8.94897 89.4617 9.34252C88.3856 10.2807 87.2158 11.1057 85.971 11.8046C83.9777 12.8935 82.0467 14.0927 80.1868 15.3965C78.5087 16.5543 76.9992 17.939 75.7011 19.5112C74.8972 20.5331 74.1647 21.6093 73.5089 22.7321C72.9524 23.6258 72.3622 24.7051 71.6371 26.0036C70.9022 27.3078 70.2434 28.6535 69.664 30.0339C68.8478 32.0671 68.2267 34.1732 67.8091 36.324C67.1488 38.7172 67.2133 41.2525 67.9946 43.609C68.3187 44.5686 68.9548 45.3922 69.8013 45.9484C70.6479 46.5046 71.6562 46.7615 72.6657 46.6781C74.2522 46.6664 75.811 46.2608 77.202 45.4977C78.7481 44.6264 80.1247 43.4839 81.2661 42.125C82.5141 40.6873 83.553 39.0807 84.3521 37.3526C85.2088 35.5351 85.8647 33.6295 86.3082 31.6697C86.5972 30.3859 86.7387 29.0733 86.7298 27.7574C86.7576 26.7019 86.5502 25.6536 86.1227 24.6882C85.7874 23.8353 85.1989 23.1055 84.4364 22.5972C83.4704 22.0779 82.3768 21.844 81.2829 21.9226C79.4371 21.9758 77.6598 22.6334 76.2239 23.7945C74.4208 25.2548 72.8857 27.0181 71.6877 29.0053L71.5527 28.8535C71.9145 27.8997 72.3254 26.9654 72.7838 26.0542C73.2909 24.9581 73.8537 23.8887 74.4701 22.8501C74.8074 22.3442 75.1615 21.8552 75.4988 21.3661C75.9771 20.7792 76.5139 20.2424 77.1008 19.7641V19.7304Z" fill="#DD2B1C"/>
<path fill-rule="evenodd" clip-rule="evenodd" d="M47.303 19.3422C48.3206 17.3395 49.59 15.475 51.0804 13.7942C52.3034 12.1115 54.1052 10.9404 56.1394 10.5058C57.8258 10.2697 58.8882 11.4502 59.5121 14.0471C60.0063 17.1551 59.9263 20.3273 59.276 23.4063C58.5091 27.2372 57.3798 30.9865 55.9033 34.6036C54.5201 38.1734 52.8273 41.6154 50.8443 44.8903C49.106 47.8084 47.114 50.5678 44.8915 53.1365C42.8969 55.5323 40.0355 57.0418 36.932 57.3355C33.7617 57.6559 32.0248 56.1719 31.6538 52.9342C31.2909 49.2836 31.4843 45.5992 32.2271 42.0067C32.958 37.996 34.2762 34.115 36.1394 30.489C37.8258 27.0151 39.276 24.3675 40.3384 22.5294C41.3191 20.8894 42.448 19.3427 43.7111 17.9089C44.4825 17.1232 45.1614 16.2519 45.7347 15.3119C45.7679 15.2406 45.7851 15.1629 45.7851 15.0842C45.7851 15.0056 45.7679 14.9279 45.7347 14.8566C45.7347 14.7554 45.5829 14.6711 45.4649 14.7385C44.6729 15.1755 43.9222 15.6835 43.2221 16.2562C42.1765 17.0488 40.5914 18.3642 38.5172 20.1854C35.9229 22.5004 33.6133 25.1157 31.6369 27.9763C28.7415 31.7318 26.5166 35.9592 25.0602 40.4721C23.3738 45.7672 23.3738 50.028 25.0602 53.2546C25.8653 54.8052 27.073 56.1105 28.5567 57.0333C30.0403 57.9561 31.745 58.4625 33.4919 58.4991C37.1465 58.8436 40.8221 58.1108 44.0652 56.3911C47.4962 54.5095 50.6324 52.1345 53.3738 49.3422C56.4353 46.2945 59.1293 42.8987 61.4008 39.2242C63.6733 35.5673 65.379 31.5874 66.4598 27.4198C67.5828 23.2809 67.1819 18.8764 65.33 15.0083C64.6432 13.4486 63.5561 12.0982 62.1789 11.0942C60.8018 10.0903 59.1836 9.46836 57.4885 9.29165C54.1158 9.02184 50.9455 10.978 47.7752 15.0083C44.6049 19.0387 42.8173 24.6374 42.4969 31.7537C42.4969 32.1416 42.4969 32.2933 42.8679 32.3271C43.2389 32.3608 43.3907 31.9055 43.5593 30.9611C43.728 30.0168 43.8797 29.1567 44.0146 28.3473C44.3349 27.072 44.7291 25.8164 45.1951 24.5868C45.7951 22.7991 46.4989 21.0479 47.303 19.3422Z" fill="#DD2B1C"/>
<path fill-rule="evenodd" clip-rule="evenodd" d="M100.052 20.3374C101.418 18.3644 102.564 17.2514 103.424 16.9648C104.284 16.6781 104.908 16.9648 105.111 17.8922C105.335 19.088 105.188 20.3239 104.689 21.4336C104.266 22.7441 103.659 23.9876 102.885 25.1266C101.832 26.6174 100.341 27.7431 98.6184 28.3476C97.7077 28.3476 97.3536 27.5718 97.5728 25.8686C97.945 23.8532 98.7951 21.9564 100.052 20.3374ZM109.124 16.8636C108.693 16.2707 108.104 15.811 107.424 15.5367C106.744 15.2624 106.001 15.1846 105.279 15.3121C103.486 15.456 101.769 16.0986 100.322 17.1671C98.7837 18.2827 97.3653 19.5542 96.0888 20.9614C94.7822 22.4161 93.5712 23.9539 92.4632 25.5651C91.4182 27.0881 90.6214 28.7672 90.1023 30.5398C89.6358 31.972 89.3968 33.4686 89.3941 34.9749C89.3741 36.1312 89.5922 37.2792 90.0349 38.3476C90.434 39.3063 91.1319 40.1107 92.0248 40.641C93.2682 41.2586 94.6908 41.4141 96.0383 41.0794C97.6067 40.7867 99.0918 40.1535 100.389 39.2245C101.871 38.0409 103.123 36.5946 104.082 34.958C105.279 33.0187 105.92 31.9395 106.055 31.5853C106.392 30.8771 106.392 30.3543 106.224 30.1519C106.055 29.9496 105.802 30.1519 105.397 30.6578C104.993 31.1637 104.369 32.1756 103.458 33.6427C102.781 34.7579 101.953 35.7738 100.996 36.6612C100.239 37.2364 99.316 37.5501 98.3654 37.555C97.9913 37.639 97.6036 37.6419 97.2283 37.5633C96.8531 37.4848 96.499 37.3267 96.19 37.0997C95.7697 36.5748 95.5223 35.9327 95.4818 35.2616C95.3823 34.4721 95.3823 33.6733 95.4818 32.8838C95.5248 32.0905 95.8136 31.3302 96.3081 30.7084C98.4195 30.1102 100.474 29.3258 102.446 28.3644C103.983 27.5265 105.405 26.495 106.679 25.2953C108.022 24.134 109.024 22.6304 109.58 20.9445C109.826 20.2757 109.913 19.5586 109.834 18.8503C109.755 18.1419 109.512 17.4617 109.124 16.8636Z" fill="#DD2B1C"/>
<path fill-rule="evenodd" clip-rule="evenodd" d="M126.359 13.3897C126.673 14.0822 126.745 14.8607 126.561 15.5988C126.18 17.8114 125.616 19.9886 124.875 22.1081C124.133 24.3678 123.323 26.4588 122.531 28.3138C121.759 30.0062 120.886 31.6506 119.917 33.2379C119.04 34.5701 118.231 35.2278 117.438 35.2278C116.645 35.2278 116.241 34.4689 116.173 33.0355C116.263 30.7152 116.642 28.4151 117.303 26.189C118.046 23.121 119.257 20.1859 120.895 17.4875C122.581 14.7893 123.762 13.3391 124.622 13.103C125.482 12.8669 126.106 12.9344 126.359 13.3897ZM126.662 1.92256C124.976 0.5229 123.964 -0.101046 123.559 0.0169975C123.155 0.135041 123.155 0.337402 123.559 0.556627C124.171 0.927445 124.737 1.36893 125.246 1.87197C126.117 2.92406 126.698 4.18548 126.932 5.53133C127.402 7.31953 127.494 9.18619 127.202 11.0119C127.202 11.4167 126.78 11.5853 126.123 11.5684C125.08 11.5263 124.039 11.6807 123.053 12.0237C120.949 12.8551 119.076 14.1794 117.59 15.8855C115.192 18.4331 113.495 21.559 112.666 24.958C111.603 28.8028 111.485 31.7033 112.261 33.6595C112.583 34.5654 113.188 35.3435 113.987 35.8782C114.786 36.4128 115.736 36.6756 116.696 36.6274C118.527 36.6722 120.317 36.0757 121.755 34.9411C123.529 33.5619 125.042 31.8772 126.224 29.9664C127.591 27.8476 128.721 25.5857 129.596 23.221C130.525 20.5716 131.092 17.8093 131.283 15.0086C131.489 12.4028 131.197 9.78168 130.423 7.28513C129.7 5.17867 128.397 3.31958 126.662 1.92256Z" fill="#DD2B1C"/>
<path fill-rule="evenodd" clip-rule="evenodd" d="M7.47168 80.0167C4.3121 86.3347 2.04211 93.0595 0.726318 99.9999C49.7539 65.2275 113.492 45.0589 191.94 39.494C129.996 38.4147 68.506 51.9223 7.47168 80.0167Z" fill="#DD2B1C"/>
<path fill-rule="evenodd" clip-rule="evenodd" d="M187.134 8.68474H187.59C188.146 8.68474 188.484 8.44866 188.484 8.07766C188.484 7.70667 188.18 7.48744 187.657 7.48744C187.483 7.47207 187.308 7.47207 187.134 7.48744V8.68474ZM186.021 6.8635C186.519 6.80259 187.021 6.77443 187.522 6.77918C188.106 6.71187 188.696 6.82987 189.209 7.11645C189.36 7.20965 189.484 7.34172 189.567 7.4989C189.65 7.65608 189.689 7.83263 189.681 8.01021C189.662 8.25245 189.568 8.4826 189.41 8.66748C189.252 8.85236 189.04 8.98241 188.804 9.03888C188.969 9.10942 189.114 9.21807 189.228 9.35587C189.343 9.49367 189.423 9.65668 189.462 9.83145C189.63 10.3205 189.782 10.877 189.866 11.0288H188.703C188.563 10.7126 188.451 10.3855 188.365 10.0507C188.231 9.51105 188.011 9.37614 187.539 9.35928H187.202V11.0456H186.089L186.021 6.8635Z" fill="#DD2B1C"/>
<path fill-rule="evenodd" clip-rule="evenodd" d="M187.64 5.58178C186.973 5.58178 186.321 5.77959 185.766 6.15018C185.212 6.52078 184.78 7.04752 184.524 7.6638C184.269 8.28007 184.202 8.95821 184.332 9.61244C184.463 10.2667 184.784 10.8676 185.255 11.3393C185.727 11.811 186.328 12.1322 186.982 12.2623C187.637 12.3925 188.315 12.3257 188.931 12.0704C189.547 11.8151 190.074 11.3829 190.445 10.8282C190.815 10.2736 191.013 9.62152 191.013 8.95447C191.013 8.05997 190.658 7.20212 190.025 6.56962C189.393 5.93712 188.535 5.58178 187.64 5.58178ZM191.94 8.95447C191.94 9.80496 191.688 10.6364 191.216 11.3435C190.743 12.0507 190.072 12.6018 189.286 12.9273C188.5 13.2528 187.635 13.3379 186.801 13.172C185.967 13.0061 185.201 12.5965 184.6 11.9951C183.998 11.3938 183.589 10.6275 183.423 9.79339C183.257 8.95924 183.342 8.09462 183.667 7.30886C183.993 6.52311 184.544 5.85151 185.251 5.37901C185.958 4.9065 186.79 4.6543 187.64 4.6543C188.206 4.65429 188.767 4.76608 189.29 4.98323C189.813 5.20039 190.287 5.51865 190.687 5.91974C191.086 6.32084 191.403 6.79688 191.618 7.32055C191.833 7.84421 191.943 8.40521 191.94 8.97133V8.95447Z" fill="#DD2B1C"/>
</g>
<defs>
<clipPath id="clip0_339_5743">
<rect width="191.214" height="100" fill="white" transform="translate(0.726318)"/>
</clipPath>
</defs>
</svg>
