<svg width="144" height="100" viewBox="0 0 144 100" fill="none" xmlns="http://www.w3.org/2000/svg">
<g clip-path="url(#clip0_339_5831)">
<path d="M71.6642 56.0844L55.6052 46.5039L48.0232 47.2057L71.6642 59.5728V56.0844Z" fill="#3F93CB" stroke="#3F93CB" stroke-width="0.5" stroke-linecap="round" stroke-linejoin="round"/>
<path d="M71.6642 70.4499L48.0232 53.7858V47.2056L71.6642 59.5727V70.4499Z" fill="white" stroke="#3F93CB" stroke-width="0.5" stroke-linecap="round" stroke-linejoin="round"/>
<path d="M71.6642 56.0844L48.0232 42.1663V36.5269L71.6642 46.1073V56.0844Z" fill="white" stroke="#3F93CB" stroke-width="0.5" stroke-linecap="round" stroke-linejoin="round"/>
<path d="M71.6642 44.409L48.0232 32.3877V27.75L71.6642 36.3287V44.409Z" fill="white" stroke="#3F93CB" stroke-width="0.5" stroke-linecap="round" stroke-linejoin="round"/>
<path d="M71.6642 34.4218L48.0232 25.2939V21.897L71.6642 25.2888V34.4218Z" fill="white" stroke="#3F93CB" stroke-width="0.5" stroke-linecap="round" stroke-linejoin="round"/>
<path d="M71.6642 22.4614L51.1709 20.9409L48.0232 21.8969L71.6642 25.2887V22.4614Z" fill="#3F93CB" stroke="#3F93CB" stroke-width="0.5" stroke-linecap="round" stroke-linejoin="round"/>
<path d="M71.6642 22.4614L48.0232 20.7121V18.3882L71.6642 14.2539V22.4614Z" fill="white" stroke="#3F93CB" stroke-width="0.5" stroke-linecap="round" stroke-linejoin="round"/>
<path d="M71.6642 11.4263L48.0232 17.4319V15.6064L71.6642 5.87842V11.4263Z" fill="white" stroke="#3F93CB" stroke-width="0.5" stroke-linecap="round" stroke-linejoin="round"/>
<path d="M71.6642 11.4263L48.0232 17.4319L50.2098 18.0065L71.6642 14.2536V11.4263Z" fill="#3F93CB" stroke="#3F93CB" stroke-width="0.5" stroke-linecap="round" stroke-linejoin="round"/>
<path d="M71.6642 4.80532L48.0232 14.2536V11.655L71.6642 0.126953V4.80532Z" fill="white" stroke="#3F93CB" stroke-width="0.5" stroke-linecap="round" stroke-linejoin="round"/>
<path d="M71.6642 4.80566L48.0232 14.2539L50.342 14.6557L71.6642 5.87864V4.80566Z" fill="#3F93CB" stroke="#3F93CB" stroke-width="0.5" stroke-linecap="round" stroke-linejoin="round"/>
<path d="M71.6642 34.4217L53.2558 27.2974L48.0232 27.7499L71.6642 36.3286V34.4217Z" fill="#3F93CB" stroke="#3F93CB" stroke-width="0.5" stroke-linecap="round" stroke-linejoin="round"/>
<path d="M71.6642 44.4086L54.1051 35.4282L48.0232 36.5266L71.6642 46.1071V44.4086Z" fill="#3F93CB" stroke="#3F93CB" stroke-width="0.5" stroke-linecap="round" stroke-linejoin="round"/>
<path d="M71.6642 70.4499L95.3103 53.7858V47.2056L71.6642 59.5727V70.4499Z" fill="#3F93CB" stroke="#3F93CB" stroke-width="0.5" stroke-linecap="round" stroke-linejoin="round"/>
<path d="M71.6642 56.0844L95.3103 42.1663V36.5269L71.6642 46.1073V56.0844Z" fill="#3F93CB" stroke="#3F93CB" stroke-width="0.5" stroke-linecap="round" stroke-linejoin="round"/>
<path d="M71.6642 44.409L95.3103 32.3877V27.75L71.6642 36.3287V44.409Z" fill="#3F93CB" stroke="#3F93CB" stroke-width="0.5" stroke-linecap="round" stroke-linejoin="round"/>
<path d="M71.6642 34.4218L95.3103 25.2939V21.897L71.6642 25.2888V34.4218Z" fill="#3F93CB" stroke="#3F93CB" stroke-width="0.5" stroke-linecap="round" stroke-linejoin="round"/>
<path d="M71.6642 22.4614L92.1625 20.9409L95.3103 21.8969L71.6642 25.2887V22.4614Z" fill="#F8FAF7" stroke="#3F93CB" stroke-width="0.5" stroke-linecap="round" stroke-linejoin="round"/>
<path d="M71.6642 22.4614L95.3103 20.7121V18.3882L71.6642 14.2539V22.4614Z" fill="#3F93CB" stroke="#3F93CB" stroke-width="0.5" stroke-linecap="round" stroke-linejoin="round"/>
<path d="M71.6642 11.4263L95.3103 17.4319V15.6064L71.6642 5.87842V11.4263Z" fill="#3F93CB" stroke="#3F93CB" stroke-width="0.5" stroke-linecap="round" stroke-linejoin="round"/>
<path d="M71.6642 11.4263L95.3103 17.4319L93.1236 18.0065L71.6642 14.2536V11.4263Z" fill="#F8FAF7" stroke="#3F93CB" stroke-width="0.5" stroke-linecap="round" stroke-linejoin="round"/>
<path d="M71.6642 4.80532L95.3103 14.2536V11.655L71.6642 0.126953V4.80532Z" fill="#3F93CB" stroke="#3F93CB" stroke-width="0.5" stroke-linecap="round" stroke-linejoin="round"/>
<path d="M71.6642 4.80566L95.3103 14.2539L92.9914 14.6557L71.6642 5.87864V4.80566Z" fill="#F8FAF7" stroke="#3F93CB" stroke-width="0.5" stroke-linecap="round" stroke-linejoin="round"/>
<path d="M71.6642 34.4217L90.0776 27.2974L95.3103 27.7499L71.6642 36.3286V34.4217Z" fill="#F8FAF7" stroke="#3F93CB" stroke-width="0.5" stroke-linecap="round" stroke-linejoin="round"/>
<path d="M71.6642 44.4086L89.2233 35.4282L95.3103 36.5266L71.6642 46.1071V44.4086Z" fill="#F8FAF7" stroke="#3F93CB" stroke-width="0.5" stroke-linecap="round" stroke-linejoin="round"/>
<path d="M71.6642 56.0844L87.7283 46.5039L95.3103 47.2057L71.6642 59.5728V56.0844Z" fill="#F8FAF7" stroke="#3F93CB" stroke-width="0.5" stroke-linecap="round" stroke-linejoin="round"/>
<path d="M0.30896 97.2388C0.30896 95.5099 1.36668 94.4674 2.8007 94.4674C3.26475 94.4627 3.71705 94.6133 4.08564 94.8952C4.45423 95.1772 4.71792 95.5743 4.83477 96.0235H4.15844C4.03942 95.7662 3.84707 95.5498 3.60552 95.4014C3.36398 95.253 3.08399 95.1793 2.8007 95.1895C1.82943 95.1895 1.17344 95.9624 1.17344 97.2236C1.17344 98.4847 1.82943 99.2881 2.81595 99.2881C3.15272 99.2865 3.47801 99.1655 3.73404 98.9468C3.99007 98.728 4.16026 98.4255 4.21438 98.0931L4.97207 98.1389C4.91294 98.679 4.64681 99.1751 4.22959 99.5231C3.81236 99.8711 3.27651 100.044 2.73459 100.005C1.37685 100 0.30896 98.9983 0.30896 97.2388Z" fill="#3F93CB"/>
<path d="M8.78091 95.2557H7.01636V94.5845H11.3845V95.2761H9.61997V99.9239H8.78091V95.2557Z" fill="#3F93CB"/>
<path d="M14.0898 94.498H15.8137C17.0189 94.498 17.8732 94.8998 17.8732 96.105C17.8732 97.3102 17.0036 97.7983 15.8137 97.7983H14.9289V99.8324H14.0898V94.498ZM15.7324 97.1423C16.6172 97.1423 17.0392 96.8118 17.0392 96.1253C17.0392 95.4388 16.6019 95.1744 15.7324 95.1744H14.9289V97.1271L15.7324 97.1423Z" fill="#3F93CB"/>
<path d="M28.0282 94.5845H28.9486V97.1271C28.9486 97.7017 28.8571 98.3424 28.8215 98.8814L29.4215 97.7576L31.4098 94.5845H32.4625V99.9239H31.5421V97.3813C31.5421 96.8118 31.6336 96.2016 31.6692 95.6473L31.0691 96.7711L29.1012 99.9442H28.0282V94.5845Z" fill="#3F93CB"/>
<path d="M36.8103 95.2557H35.0458V94.5845H39.4139V95.2761H37.6494V99.9239H36.8103V95.2557Z" fill="#3F93CB"/>
<path d="M42.1193 94.5845H45.9382V95.2761H43.0499V96.8016H45.4907V97.4932H43.0499V99.2476H46.0298V99.9392H42.1193V94.5845Z" fill="#3F93CB"/>
<path d="M55.7882 94.5845H56.6273V96.705H57.5629C58.7732 96.705 59.597 97.1576 59.597 98.2305C59.597 99.4103 58.7732 99.9036 57.5629 99.9036H55.7882V94.5845ZM57.4765 99.2628C58.3308 99.2628 58.7935 98.9679 58.7935 98.2458C58.7935 97.6254 58.3461 97.3508 57.4612 97.3508H56.6273V99.2425L57.4765 99.2628Z" fill="#3F93CB"/>
<path d="M62.5566 94.5845H63.4008V96.7711H65.4654V94.5845H66.3146V99.9239H65.4654V97.4881H63.4008V99.9239H62.5566V94.5845Z" fill="#3F93CB"/>
<path d="M70.8506 94.5845H71.8269L73.6322 99.9239H72.7372L71.8574 97.0152C71.6795 96.4355 71.5015 95.8405 71.3489 95.2354H71.3133C71.1506 95.8405 70.9777 96.4355 70.8048 97.0152L69.9098 99.9239H69.0504L70.8506 94.5845ZM70.0573 97.7424H72.5999V98.3933H70.0573V97.7424Z" fill="#3F93CB"/>
<path d="M87.713 94.5842H88.5521V96.7861H89.8335L91.8167 99.9237H90.8963L89.3403 97.4777H88.5521V99.9237H87.713V94.5842ZM89.2386 96.9539L90.0268 95.4741C90.4539 94.6758 90.7895 94.4876 91.3235 94.4876C91.4379 94.4846 91.5518 94.5036 91.6591 94.5435L91.5116 95.3012C91.4461 95.2788 91.3775 95.2668 91.3082 95.2656C91.0692 95.2656 90.9065 95.3572 90.6217 95.886L89.9708 97.1116L89.2386 96.9539Z" fill="#3F93CB"/>
<path d="M93.9474 97.2082C93.9474 95.4691 94.9949 94.4673 96.49 94.4673C97.985 94.4673 99.0326 95.4843 99.0326 97.2082C99.0326 98.9321 97.985 100 96.49 100C94.9949 100 93.9474 98.9778 93.9474 97.2082ZM98.0155 97.2082C98.0155 95.9267 97.4206 95.1741 96.49 95.1741C95.5594 95.1741 94.9644 95.9166 94.9644 97.2082C94.9644 98.4998 95.5645 99.2829 96.49 99.2829C97.4155 99.2829 97.9952 98.5202 97.9952 97.2082H98.0155Z" fill="#3F93CB"/>
<path d="M20.7311 97.2082C20.7311 95.4691 21.7786 94.4673 23.2737 94.4673C24.7687 94.4673 25.8163 95.4843 25.8163 97.2082C25.8163 98.9321 24.7687 100 23.2737 100C21.7786 100 20.7311 98.9778 20.7311 97.2082ZM24.7992 97.2082C24.7992 95.9267 24.2043 95.1741 23.2737 95.1741C22.3431 95.1741 21.7481 95.9166 21.7481 97.2082C21.7481 98.4998 22.3482 99.2829 23.2737 99.2829C24.1992 99.2829 24.7789 98.5202 24.7789 97.2082H24.7992Z" fill="#3F93CB"/>
<path d="M101.662 94.5845H102.938L104.214 98.3373H104.255L105.501 94.5845H106.777V99.9239H105.908L105.933 95.4744H105.903L104.555 99.9036H103.858L102.521 95.454H102.496L102.541 99.9036H101.677L101.662 94.5845Z" fill="#3F93CB"/>
<path d="M109.778 94.5845H113.958V99.9239H113.017V95.2761H110.718V99.9239H109.778V94.5845Z" fill="#3F93CB"/>
<path d="M118.356 94.5845H119.373L121.27 99.9239H120.319L119.394 97.0152C119.205 96.4355 119.017 95.8405 118.855 95.2354H118.819C118.646 95.8405 118.468 96.4355 118.28 97.0152L117.339 99.9239H116.439L118.356 94.5845ZM117.502 97.4118H120.167V98.1441H117.502V97.4118Z" fill="#3F93CB"/>
<path d="M123.879 94.5845H124.799V96.7711H127.052V94.5845H127.947V99.9239H127.027V97.4881H124.774V99.9239H123.879V94.5845Z" fill="#3F93CB"/>
<path d="M131.166 94.5843H132.015V97.1269C132.015 97.7015 131.934 98.3422 131.898 98.8813L132.524 97.7371L134.385 94.564H135.402V99.9034H134.532V97.3608C134.532 96.7913 134.614 96.181 134.654 95.6268H134.629L134.049 96.7302L132.188 99.9034H131.171L131.166 94.5843Z" fill="#3F93CB"/>
<path d="M140.045 97.0301L140.711 97.4115L139.109 99.8015H138.066L140.045 97.0301ZM141.535 97.6301H140.431C139.302 97.6047 138.397 97.1216 138.397 96.008C138.397 94.8943 139.302 94.4824 140.517 94.4824H142.44V99.8219H141.535V97.6301ZM141.535 96.9742V95.1181H140.624C139.765 95.1181 139.297 95.352 139.297 96.008C139.297 96.664 139.765 96.9742 140.624 96.9742H141.535Z" fill="#3F93CB"/>
<path d="M78.2088 97.0301L78.88 97.4115L77.2731 99.8015H76.2561L78.2088 97.0301ZM79.7039 97.6301H78.6207C77.4918 97.6047 76.5866 97.1216 76.5866 96.008C76.5866 94.8943 77.4918 94.4824 78.7072 94.4824H80.6294V99.8219H79.7242L79.7039 97.6301ZM79.7039 96.9742V95.1181H78.7936C77.9342 95.1181 77.4613 95.352 77.4613 96.008C77.4613 96.664 77.9342 96.9742 78.7936 96.9742H79.7039Z" fill="#3F93CB"/>
<path d="M49.3911 94.4673H52.5185V99.8525H51.6235V95.3724H50.2861V97.7625C50.2861 97.9659 50.2861 98.1184 50.2861 98.2252C50.2769 98.3701 50.2599 98.5144 50.2353 98.6575C50.2148 98.834 50.165 99.0059 50.0878 99.166C50.0109 99.31 49.9133 99.442 49.7979 99.5575C49.6763 99.6757 49.5321 99.7681 49.374 99.8293C49.2159 99.8905 49.047 99.9191 48.8775 99.9135C48.7503 99.9145 48.6236 99.8974 48.5012 99.8627V98.9575C48.5821 98.99 48.6683 99.0072 48.7555 99.0083C48.8344 99.0103 48.9128 98.9939 48.9842 98.9604C49.0557 98.9268 49.1184 98.8771 49.1674 98.8151C49.2503 98.7118 49.3062 98.5895 49.3301 98.4591C49.3619 98.3324 49.3823 98.2031 49.3911 98.0727C49.3911 97.9659 49.3911 97.793 49.3911 97.5642V94.4673Z" fill="#3F93CB"/>
<path d="M0.30896 79.6392H8.88765V90.6231H6.41117V81.7241H2.79053V90.6231H0.30896V79.6392Z" fill="#3F93CB"/>
<path d="M22.6074 84.2052H20.1411V82.2627H27.5502V84.2052H25.0839V90.6227H22.6074V84.2052Z" fill="#3F93CB"/>
<path d="M33.688 82.0597C33.1882 82.0327 32.6885 82.1152 32.2238 82.3014C31.7592 82.4876 31.3408 82.773 30.998 83.1378L30.9624 82.2631H28.8622V93.7251H31.3539V89.9519C31.9331 90.4384 32.6795 90.6793 33.4338 90.6231C35.3153 90.6231 37.0849 89.1789 37.0849 86.3109C37.0798 83.7327 35.7882 82.2021 33.688 82.0597ZM33.21 88.8484C32.0811 88.8484 31.1759 87.7551 31.1759 86.4075C31.1759 85.0599 32.0913 83.9616 33.21 83.9616C34.3287 83.9616 35.2441 85.0549 35.2441 86.4075C35.2441 87.7602 34.3338 88.8484 33.21 88.8484Z" fill="#3F93CB"/>
<path d="M63.9347 82.0594C63.4348 82.0318 62.9349 82.1139 62.4701 82.3002C62.0054 82.4864 61.5871 82.7722 61.2447 83.1375L61.2091 82.2629H59.1089V93.7248H61.5955V89.9516C62.1747 90.4382 62.9211 90.6791 63.6754 90.6229C65.5569 90.6229 67.3265 89.1787 67.3265 86.3107C67.3265 83.7325 66.0349 82.2018 63.9347 82.0594ZM63.4262 88.8482C62.3024 88.8482 61.3921 87.7548 61.3921 86.4073C61.3921 85.0597 62.3075 83.9613 63.4262 83.9613C64.5449 83.9613 65.4603 85.0546 65.4603 86.4073C65.4603 87.7599 64.5805 88.8482 63.4516 88.8482H63.4262Z" fill="#3F93CB"/>
<path d="M42.6888 82.0594C41.8229 82.0634 40.9776 82.3238 40.2596 82.8077C39.5415 83.2915 38.9828 83.9772 38.654 84.7782C38.3252 85.5792 38.241 86.4597 38.412 87.3085C38.583 88.1573 39.0016 88.9365 39.6149 89.5477C40.2283 90.1589 41.0089 90.5748 41.8583 90.7428C42.7077 90.9109 43.5878 90.8236 44.3877 90.4921C45.1876 90.1605 45.8713 89.5994 46.3527 88.8797C46.8341 88.16 47.0915 87.3138 47.0925 86.4479C47.1095 85.8657 47.0071 85.2862 46.7916 84.7451C46.5761 84.2039 46.2521 83.7127 45.8395 83.3015C45.4269 82.8904 44.9345 82.5681 44.3927 82.3544C43.8508 82.1408 43.2709 82.0404 42.6888 82.0594ZM42.6023 88.6244C42.1656 88.6375 41.7349 88.5199 41.3656 88.2865C40.9962 88.0532 40.705 87.7147 40.5294 87.3147C40.3538 86.9146 40.3017 86.4712 40.3799 86.0414C40.4581 85.6115 40.663 85.2149 40.9683 84.9023C41.2735 84.5897 41.6652 84.3755 42.0931 84.2872C42.521 84.1989 42.9655 84.2404 43.3696 84.4066C43.7737 84.5727 44.1189 84.8558 44.3609 85.2195C44.603 85.5832 44.7308 86.011 44.7279 86.4479C44.7398 86.7326 44.6933 87.0167 44.5913 87.2827C44.4893 87.5488 44.334 87.7911 44.1349 87.995C43.9359 88.1988 43.6972 88.3598 43.4337 88.468C43.1701 88.5763 42.8872 88.6295 42.6023 88.6244Z" fill="#3F93CB"/>
<path d="M72.8795 82.0593C72.0141 82.0653 71.1698 82.3273 70.4531 82.8124C69.7364 83.2975 69.1793 83.9839 68.8521 84.7851C68.5248 85.5863 68.4421 86.4664 68.6142 87.3145C68.7864 88.1627 69.2057 88.9409 69.8195 89.5511C70.4332 90.1612 71.2138 90.5761 72.0629 90.7434C72.912 90.9106 73.7917 90.8228 74.5909 90.4909C75.3902 90.159 76.0734 89.598 76.5543 88.8785C77.0352 88.159 77.2924 87.3132 77.2935 86.4478C77.3105 85.8647 77.2078 85.2843 76.9917 84.7424C76.7756 84.2006 76.4506 83.7089 76.0369 83.2976C75.6233 82.8863 75.1296 82.5642 74.5866 82.3512C74.0435 82.1382 73.4625 82.0388 72.8795 82.0593ZM72.7931 88.6242C72.3568 88.6384 71.9263 88.522 71.5566 88.29C71.187 88.0579 70.895 87.7208 70.7182 87.3217C70.5413 86.9227 70.4876 86.48 70.564 86.0502C70.6403 85.6205 70.8432 85.2234 71.1467 84.9097C71.4502 84.596 71.8405 84.3801 72.2674 84.2896C72.6944 84.1991 73.1387 84.2381 73.5433 84.4017C73.948 84.5653 74.2946 84.846 74.5387 85.2078C74.7828 85.5696 74.9134 85.996 74.9136 86.4325C74.9268 86.7178 74.8815 87.0028 74.7805 87.27C74.6796 87.5371 74.525 87.7808 74.3264 87.9861C74.1279 88.1914 73.8894 88.3539 73.6257 88.4636C73.362 88.5733 73.0787 88.628 72.7931 88.6242Z" fill="#3F93CB"/>
<path d="M48.3639 79.6392H56.9426V90.6231H54.4559V81.7241H50.8455V90.6231H48.3639V79.6392Z" fill="#3F93CB"/>
<path d="M80.0191 82.2627H81.5446C81.5446 82.2627 83.5787 86.702 83.7974 87.3021L86.2484 82.3797L87.657 82.3135L89.6911 90.6329H87.774L86.5027 85.8579C85.8868 87.4641 85.1366 89.0154 84.2601 90.4956H83.3448C83.3448 90.4956 81.2446 86.5902 80.9751 85.8783L79.8309 90.638H77.9138L80.0191 82.2627Z" fill="#3F93CB"/>
<path d="M93.9373 79.6392H96.9273L100.375 90.6231H97.7511L96.312 85.06C96.0069 83.9616 95.712 82.6648 95.4221 81.5003H95.3509C95.0865 82.6648 94.7916 83.9463 94.4865 85.06L93.0473 90.6231H90.5048L93.9373 79.6392ZM92.7626 86.077H98.0461V88.0094H92.7626V86.077Z" fill="#3F93CB"/>
<path d="M110.266 82.2627H112.503V84.9222H113.347C115.178 84.9222 116.582 85.6494 116.582 87.7394C116.582 89.8294 115.178 90.6176 113.347 90.6176H110.266V82.2627ZM113.246 88.7361C114.054 88.7361 114.441 88.4107 114.441 87.7191C114.441 87.0275 114.054 86.7478 113.246 86.7478H112.503V88.726L113.246 88.7361Z" fill="#3F93CB"/>
<path d="M119.506 86.58L121.357 87.2563L119.485 90.6227H116.973L119.506 86.58ZM121.85 87.8971H121.001C119.475 87.8971 117.685 87.114 117.685 85.029C117.685 82.9441 119.099 82.2627 120.858 82.2627H124.103V90.6227H121.845L121.85 87.8971ZM121.85 86.219V84.0832H121.138C120.324 84.0832 119.907 84.4188 119.907 85.1002C119.9 85.259 119.927 85.4174 119.988 85.5643C120.049 85.7111 120.141 85.8427 120.259 85.9496C120.377 86.0565 120.516 86.1361 120.668 86.1827C120.82 86.2292 120.981 86.2416 121.138 86.219H121.85Z" fill="#3F93CB"/>
<path d="M125.811 82.2627H128.288V85.2782H130.968V82.2627H133.444V90.6227H130.968V87.4648H128.288V90.6431H125.811V82.2627Z" fill="#3F93CB"/>
<path d="M16.5815 88.0754C16.2936 88.3791 15.9298 88.6004 15.5277 88.7164C15.1256 88.8324 14.6999 88.8389 14.2944 88.7352C13.889 88.6315 13.5186 88.4214 13.2216 88.1266C12.9246 87.8318 12.7117 87.463 12.6049 87.0584H18.997C19.0867 86.4874 19.057 85.9041 18.9099 85.3451C18.7627 84.7862 18.5012 84.2639 18.1419 83.8111C17.7826 83.3584 17.3334 82.9851 16.8225 82.7148C16.3116 82.4445 15.7502 82.2831 15.1738 82.2407C14.5974 82.1984 14.0184 82.2761 13.4735 82.4688C12.9286 82.6616 12.4297 82.9653 12.0081 83.3607C11.5865 83.7561 11.2515 84.2346 11.0243 84.766C10.797 85.2974 10.6825 85.8702 10.6878 86.4482C10.6878 88.7569 12.2134 90.8265 14.8678 90.8265C17.268 90.8265 17.9189 89.7179 18.6919 88.6399L16.5815 88.0754ZM14.878 84.0683C15.3216 84.0687 15.7562 84.1938 16.132 84.4294C16.5079 84.665 16.8099 85.0015 17.0036 85.4006H12.7473C12.9406 85.0023 13.2418 84.6662 13.6167 84.4307C13.9916 84.1952 14.4251 84.0696 14.8678 84.0683H14.878Z" fill="#3F93CB"/>
<path d="M141.214 87.9735C140.898 88.3782 140.463 88.675 139.971 88.823C139.479 88.971 138.953 88.9629 138.466 88.7998C137.979 88.6368 137.554 88.3268 137.25 87.9125C136.946 87.4981 136.778 86.9999 136.769 86.4861C136.76 85.9723 136.91 85.4684 137.199 85.0434C137.488 84.6185 137.901 84.2936 138.383 84.1132C138.864 83.9329 139.389 83.906 139.886 84.0364C140.383 84.1667 140.827 84.4478 141.158 84.841L143.024 84.0629C142.517 83.2586 141.766 82.6379 140.88 82.2917C139.995 81.9456 139.022 81.8921 138.104 82.1393C137.186 82.3865 136.371 82.9213 135.779 83.6653C135.187 84.4093 134.849 85.3233 134.814 86.2735C134.779 87.2237 135.05 88.16 135.586 88.9452C136.122 89.7303 136.896 90.3231 137.793 90.6366C138.691 90.9501 139.666 90.9678 140.574 90.6871C141.482 90.4064 142.277 89.8421 142.841 89.0769L141.214 87.9735Z" fill="#3F93CB"/>
<path d="M106.015 82.3647H104.489L101.057 90.6231H103.111L105.12 85.6599L107.143 90.6231H109.178L106.015 82.3647Z" fill="#3F93CB"/>
</g>
<defs>
<clipPath id="clip0_339_5831">
<rect width="142.715" height="100" fill="white" transform="translate(0.30896)"/>
</clipPath>
</defs>
</svg>
