<svg width="221" height="60" viewBox="0 0 221 60" fill="none" xmlns="http://www.w3.org/2000/svg">
<g clip-path="url(#clip0_346_6267)">
<path d="M37.9887 -0.000271662C36.938 -0.00221728 35.8887 0.0755591 34.8498 0.232387C33.6287 0.435571 32.5112 1.04245 31.6763 1.95578C31.1533 2.56185 30.6858 3.21361 30.2794 3.90322L21.6818 18.0954L19.457 3.56716C19.3801 2.96826 19.2053 2.38605 18.9396 1.84376C18.728 1.39955 18.4092 1.01494 18.0117 0.724611C17.6143 0.434278 17.1508 0.247352 16.663 0.180685C15.9776 0.0545282 15.2817 -0.00606463 14.5848 -0.000271662H6.34082L0.666626 26.7124H9.29002L12.7825 10.2884H12.9981L15.6972 26.7124H19.9227C20.4047 26.7169 20.8863 26.6823 21.3628 26.6089C22.4838 26.428 23.0874 25.9713 24.105 24.3082L32.5473 10.2625H32.7974L29.279 26.7124H37.9024L43.5421 -0.000271662H37.9887ZM54.3731 4.68736L54.925 2.10227C54.9895 1.79362 55.0127 1.47778 54.994 1.16302C54.9714 0.893626 54.8601 0.639299 54.6776 0.439758C54.4951 0.240217 54.2515 0.106696 53.9851 0.0600472C53.7237 0.0101034 53.4576 -0.0101316 53.1917 -0.000271662H46.9225L45.9308 4.68736H54.3731ZM53.5108 8.77181L49.682 26.7124H41.2569L45.5083 6.66065H51.7775C52.0432 6.65562 52.3089 6.67582 52.5708 6.72097C52.8383 6.76728 53.083 6.90048 53.2669 7.0999C53.4509 7.29931 53.5639 7.55382 53.5884 7.82394C53.6029 8.14282 53.571 8.46212 53.4935 8.77181H53.5108ZM79.6569 7.56543C78.0373 6.59653 76.1589 6.14832 74.2759 6.2815C71.0722 6.33029 67.9581 7.34552 65.3421 9.19404L65.4283 8.78904C65.4922 8.50628 65.524 8.21723 65.5232 7.92735C65.5386 7.68185 65.4714 7.43825 65.3323 7.23528C65.1933 7.0323 64.9903 6.88161 64.7557 6.80714C64.269 6.66483 63.7611 6.60941 63.2552 6.64342H57.3309L53.071 26.7124H61.6426L63.5053 17.923C63.7088 16.827 64.0357 15.7574 64.4797 14.7348C64.9004 13.848 65.5648 13.0992 66.3955 12.5759C67.2262 12.0525 68.1888 11.7761 69.1709 11.7791C72.0511 11.6585 73.2066 13.2699 72.6202 16.1393L70.3609 26.7124H78.8894L81.1229 16.1824C81.9076 12.5202 82.5716 9.57319 79.6483 7.56543H79.6569ZM129.397 16.4668C128.629 20.0773 126.275 22.4987 123.593 22.4987C120.911 22.4987 119.6 20.0083 120.342 16.5443C121.084 13.0803 123.395 10.7882 125.939 10.7882C128.655 10.7882 130.25 12.5977 129.388 16.4495L129.397 16.4668ZM130.018 6.03161C127.201 5.96334 124.436 6.79667 122.127 8.4099L123.455 2.16259C123.532 1.85819 123.572 1.54583 123.576 1.23196C123.566 0.989649 123.484 0.755744 123.341 0.559542C123.199 0.36334 123.001 0.213566 122.774 0.128983C122.406 0.0149094 122.02 -0.0289388 121.636 -0.000271662H115.427L109.753 26.7124H118.281L118.661 24.9373C120.412 26.3824 122.633 27.1365 124.904 27.057C127.961 27.135 130.944 26.1182 133.316 24.1903C135.689 22.2624 137.293 19.5505 137.839 16.5443C139.15 10.1764 136.054 6.03161 130.018 6.03161ZM182.456 10.1419C184.25 10.0902 187.053 10.297 186.139 13.9851C182.482 14.0799 174.066 14.0626 170.47 16.26C169.604 16.7273 168.848 17.3743 168.253 18.1575C167.658 18.9408 167.238 19.8421 167.02 20.8011C165.986 25.6352 169.849 27.2983 174.074 27.2638C177.42 27.2638 180.723 26.135 184.043 24.7304C183.95 25.3694 183.921 26.016 183.957 26.6607H192.779C192.472 26.1899 192.28 25.6543 192.217 25.0964C192.154 24.5384 192.222 23.9735 192.416 23.4465L194.581 13.2785C194.926 11.6499 195.072 10.1074 194.305 8.82351C192.597 6.03161 186.673 5.97129 183.483 5.97129C180.525 5.97129 175.385 6.27289 172.634 8.3582C171.14 9.52599 170.034 11.118 169.461 12.9252H177.645C178.645 10.6331 180.663 10.2453 182.456 10.2022V10.1419ZM185.311 17.3199C185.027 18.1985 184.573 19.0125 183.974 19.7154C182.345 21.22 180.216 22.0674 177.998 22.0937C176.808 22.0937 175.17 21.5249 175.497 19.9308C175.972 17.7421 179.455 17.6214 180.904 17.5439L185.311 17.3199ZM166.434 17.8972C166.667 16.6897 166.794 15.4644 166.814 14.235C166.776 12.7935 166.337 11.391 165.546 10.185C163.364 6.7382 158.94 6.06608 154.836 6.06608C151.524 6.06608 147.833 6.48831 144.617 8.55639C143.194 9.44407 141.964 10.6074 140.998 11.9778C140.032 13.3483 139.351 14.898 138.994 16.5357C137.27 24.5495 143.884 27.2466 150.403 27.238C156.327 27.238 161.976 25.5146 165.46 20.7149C165.58 20.534 165.52 20.3444 165.253 20.3444H156.552C156 21.0839 155.277 21.6788 154.445 22.078C153.613 22.4772 152.697 22.6688 151.774 22.6365C148.946 22.6365 147.031 20.9131 147.463 17.8972H166.434ZM154.361 10.1419C156.629 10.0557 159.044 11.5809 158.233 14.4504H148.523C148.523 14.4504 149.386 10.3401 154.37 10.1419H154.361ZM110.011 17.8972C110.244 16.6897 110.371 15.4644 110.391 14.235C110.353 12.7948 109.917 11.393 109.132 10.185C106.95 6.7382 102.518 6.06608 98.4128 6.06608C95.1014 6.06608 91.4106 6.48831 88.1941 8.55639C86.7718 9.44868 85.543 10.6168 84.5802 11.9918C83.6175 13.3668 82.9403 14.9206 82.5889 16.5616C80.8642 24.5753 87.4783 27.2725 93.9976 27.2638C99.9219 27.2638 105.57 25.5404 109.063 20.7408C109.175 20.5598 109.114 20.3703 108.847 20.3703H100.137C99.5864 21.1103 98.8637 21.7056 98.0316 22.1048C97.1994 22.5041 96.2826 22.6954 95.3601 22.6624C92.5316 22.6624 90.6259 20.939 91.0484 17.923L110.011 17.8972ZM97.9385 10.1419C100.206 10.0557 102.621 11.5809 101.81 14.4504H92.0746C92.0746 14.4504 92.9369 10.3401 97.9212 10.1419H97.9385Z" fill="#153D8A"/>
<path d="M164.097 39.6383L163.062 44.4982H157.811L156.086 52.6671C155.689 54.5025 156.086 54.7611 158.225 54.7611C159.199 54.7611 159.992 54.7611 161.053 54.6921L160.001 59.6383C157.97 59.8941 155.925 60.0179 153.879 60.0088C148.704 60.0088 146.842 58.7335 147.773 54.3561L149.851 44.4896H145.686L146.799 39.2419H150.964L152.335 32.7964H158.639C158.639 32.7964 160.294 32.7964 159.949 34.3647L158.915 39.2419H163.821C163.821 39.2419 164.175 39.2419 164.089 39.6296L164.097 39.6383Z" fill="#9D9D9C"/>
<path d="M114.883 41.5597L111.046 59.4572H102.621L106.881 39.4399H113.15C113.416 39.4331 113.681 39.4504 113.943 39.4916C114.213 39.538 114.46 39.6722 114.646 39.8732C114.831 40.0742 114.945 40.3308 114.97 40.6032C114.98 40.9197 114.946 41.236 114.866 41.5425L114.883 41.5597Z" fill="#9D9D9C"/>
<path d="M115.746 37.484L116.298 34.8989C116.375 34.5921 116.407 34.2756 116.393 33.9596C116.369 33.6855 116.254 33.4271 116.067 33.2257C115.879 33.0242 115.63 32.8913 115.358 32.848C115.098 32.8069 114.836 32.7896 114.573 32.7963H108.304L107.303 37.484H115.746Z" fill="#E63517"/>
<path d="M141.168 40.4138C139.548 39.4449 137.67 38.9967 135.787 39.1299C132.594 39.184 129.493 40.1991 126.887 42.0424L126.965 41.6288C127.031 41.3462 127.065 41.0573 127.068 40.7671C127.081 40.522 127.012 40.2795 126.871 40.0782C126.731 39.8768 126.527 39.7281 126.292 39.6555C125.806 39.5132 125.298 39.4578 124.792 39.4918H118.859L114.599 59.5177H123.162L125.033 50.7197C125.244 49.6324 125.582 48.5737 126.042 47.5659C126.463 46.6792 127.127 45.9304 127.958 45.407C128.789 44.8837 129.751 44.6073 130.733 44.6103C133.605 44.4897 134.76 46.101 134.183 48.9705L131.906 59.5177H140.435L142.668 49.0136C143.453 45.3514 144.117 42.4044 141.193 40.3966L141.168 40.4138Z" fill="#9D9D9C"/>
<path d="M178.947 42.7311C181.215 42.6363 183.629 44.1701 182.819 47.0396H173.134C173.134 47.0396 173.997 42.9293 178.981 42.7311H178.947ZM191.019 50.4864C191.252 49.2761 191.379 48.0478 191.399 46.8156C191.36 45.3783 190.924 43.9798 190.14 42.7742C187.958 39.3274 183.526 38.6553 179.421 38.6553C176.11 38.6553 172.419 39.0689 169.202 41.1456C167.778 42.0303 166.546 43.1916 165.578 44.5607C164.611 45.9298 163.929 47.4789 163.571 49.1163C161.846 57.1301 168.461 59.8272 174.98 59.81C180.904 59.81 186.552 58.0866 190.045 53.2955C190.157 53.1146 190.097 52.925 189.829 52.925H181.128C180.575 53.6629 179.852 54.2565 179.021 54.6556C178.189 55.0546 177.273 55.2472 176.351 55.2171C173.523 55.2171 171.617 53.4937 172.039 50.4778L191.019 50.4864Z" fill="#9D9D9C"/>
<path d="M220.123 51.0898C217.752 56.7425 213.225 59.9567 204.541 59.9567C195.857 59.9567 191.39 56.5616 192.968 49.263C194.495 42.1109 200.609 38.5693 209.12 38.5693C216.493 38.5693 221.279 40.8011 220.641 47.0743H212.681C212.776 44.92 211.431 43.6792 208.145 43.6792C206.495 43.5826 204.868 44.0995 203.577 45.1305C202.285 46.1615 201.422 47.6335 201.152 49.263C200.393 52.839 202.083 54.8468 205.809 54.8468C208.732 54.8468 210.931 53.606 211.974 51.0898H220.123Z" fill="#9D9D9C"/>
</g>
<defs>
<clipPath id="clip0_346_6267">
<rect width="220" height="60" fill="white" transform="translate(0.666626)"/>
</clipPath>
</defs>
</svg>
