<svg width="154" height="100" viewBox="0 0 154 100" fill="none" xmlns="http://www.w3.org/2000/svg">
<g clip-path="url(#clip0_532_7961)">
<path d="M41.5821 30.7454V36.8419C42.3735 35.263 43.4287 33.8595 44.7477 32.5875C46.0666 31.3595 47.5614 30.7016 49.3201 30.7016C50.9908 30.7016 52.2218 31.0525 53.1011 31.7981C53.9804 32.4998 54.5959 33.2893 54.9916 34.1665C55.2115 34.7367 55.4313 35.3069 55.5192 35.8332C55.6511 36.3595 55.6951 36.7981 55.739 37.1051C55.9149 36.7542 56.1347 36.3595 56.3985 35.877C56.6623 35.3946 57.014 34.9121 57.3658 34.3858C58.0692 33.4647 58.9046 32.6314 59.9597 31.8858C61.0149 31.1402 62.202 30.7454 63.5209 30.7454C65.6752 30.7454 67.214 31.3156 68.0933 32.4998C68.9727 33.684 69.5442 34.956 69.808 36.3595C69.9399 37.0174 70.0278 37.6753 70.0278 38.2454C70.0278 38.8595 70.0718 39.3858 70.0718 39.9121V61.6665H72.5778V63.1139H60.6632V61.6665H62.8175V42.1928C62.8175 39.5174 62.6416 37.6314 62.2899 36.5349C61.9382 35.4384 61.2787 34.9121 60.2235 34.9121C59.0804 34.9121 58.0692 35.57 57.1459 36.8858C56.2227 38.2016 55.739 39.7805 55.739 41.6665V61.6226H57.8933V63.07H46.3304V61.6226H48.4847V42.149C48.4847 39.4735 48.3089 37.5876 47.9571 36.4911C47.6054 35.3946 46.9459 34.8683 45.8908 34.8683C44.7477 34.8683 43.7365 35.5261 42.8132 36.8419C41.8899 38.1577 41.4063 39.7367 41.4063 41.6226V61.5788H43.5606V63.0262H33.6684H31.8218H18.1925V61.4472H22.3252L19.0718 49.2981H8.30025L7.50887 52.3682C7.4649 52.456 7.42094 52.6753 7.33301 52.9823C7.24508 53.2893 7.20111 53.6402 7.11318 54.0349C7.11318 54.0349 7.11318 54.0349 7.11318 54.0788C7.11318 54.1226 7.11318 54.1226 7.11318 54.1665C7.02525 54.5612 6.93731 54.9121 6.84938 55.263C6.76145 55.6139 6.76145 55.8332 6.76145 55.9647C6.76145 58.377 7.11318 59.8244 7.77266 60.3507C8.43214 60.877 9.48732 61.2279 10.9382 61.3595C11.0261 61.3595 11.0701 61.3595 11.158 61.4033C11.2459 61.4472 11.3339 61.4472 11.4218 61.4472V63.0262H0.166626V61.4472C1.83732 61.3595 2.98042 60.7454 3.6399 59.6051C4.29938 58.4647 4.87094 57.0174 5.35456 55.263C5.44249 54.9121 5.48645 54.6051 5.57439 54.3419C5.66232 54.0349 5.75025 53.7279 5.79421 53.4209L15.8623 14.9998H18.6321L30.6347 61.5788H33.8002H34.3278V33.07H31.7339V31.6226H37.1856C38.0649 31.6226 38.8563 31.5349 39.5597 31.3595C40.3071 31.3156 40.9666 31.0963 41.5821 30.7454ZM134.349 71.0525C134.261 71.184 134.217 71.3595 134.174 71.4911C134.13 71.6665 134.174 71.8419 134.305 71.9297C134.437 72.0174 134.613 72.0612 134.789 71.9735C135.053 71.7981 135.317 71.6226 135.405 71.5788C136.328 71.0086 137.515 70.0875 138.834 69.0788C139.098 68.8595 139.449 68.9033 139.669 69.1665C139.845 69.3858 139.845 69.6928 139.669 69.8682C139.01 70.8332 138.394 71.7104 138.086 72.3683C138.086 72.3683 138.086 72.3683 138.086 72.4121C138.042 72.4998 138.042 72.6314 138.13 72.6753C138.218 72.763 138.35 72.763 138.438 72.6753C139.317 72.1051 140.636 70.4823 141.955 68.8156C142.351 68.3332 142.703 67.8507 143.142 67.3683C143.274 67.1928 143.45 67.149 143.67 67.149C143.978 67.1928 144.374 67.1928 144.725 67.2367C146.484 67.3682 147.539 67.456 148.199 68.7718C148.33 69.0349 148.242 69.3419 148.023 69.4735L144.066 73.1577V73.2016C144.066 73.2454 144.11 73.2893 144.154 73.377C144.242 73.4647 144.417 73.5525 144.593 73.6402C144.945 73.7718 145.385 73.8156 145.868 73.684C146.836 73.2454 148.33 72.3683 149.605 71.4911C149.561 71.0086 149.561 70.5261 149.693 70.0875C149.825 69.4735 150.133 68.9472 150.617 68.4209C151.1 67.9823 151.672 67.8068 152.199 67.8946C152.463 67.9384 152.683 68.0261 152.859 68.1577C153.035 68.2893 153.211 68.4647 153.299 68.684V68.7279C153.43 69.0788 153.43 69.5174 153.167 69.9998C152.859 70.5262 151.98 71.3156 150.836 72.1051C151.056 75.3507 150.089 76.1402 149.254 76.6665C149.21 76.7104 149.122 76.7104 149.078 76.6665C149.034 76.6226 148.99 76.5349 149.034 76.4911C149.342 75.8332 149.517 75.4823 149.649 72.9384C148.462 73.7279 147.187 74.4735 146.308 74.8683C146.264 74.8683 146.264 74.9121 146.22 74.9121C145.473 75.1314 144.725 75.0876 144.154 74.8683C143.802 74.7367 143.494 74.5612 143.274 74.2981C143.011 74.0349 142.879 73.684 142.835 73.377C142.835 73.1139 142.923 72.8068 143.099 72.5437C143.099 72.4998 143.142 72.4998 143.186 72.456L146.88 69.0349C146.44 68.6402 145.736 68.5963 144.637 68.5086C144.417 68.5086 144.154 68.4647 143.89 68.4647C143.582 68.8156 143.23 69.2542 142.923 69.6928C140.988 72.1051 139.01 74.5174 137.559 74.1665H137.515C136.636 73.8595 136.592 73.1139 137.031 72.1051C136.68 72.3244 136.372 72.5437 136.108 72.7191C134.877 73.4647 133.954 73.7279 133.47 73.2016C132.811 72.4998 132.899 71.6226 133.426 70.6577C133.822 69.956 135.053 68.9472 135.844 68.1139C135.888 68.07 135.932 68.07 136.02 68.07C136.064 68.07 136.108 68.1577 136.108 68.2016C136.108 69.1226 135.317 69.2981 134.349 71.0525ZM150.661 70.6139C151.32 70.0875 151.848 69.6051 152.024 69.3419C152.067 69.2542 152.111 69.1665 152.067 69.1226C152.067 69.1226 152.067 69.1226 152.024 69.0788C151.98 69.0349 151.936 69.0349 151.848 69.0349C151.672 68.9911 151.452 69.0788 151.276 69.2542C150.968 69.5612 150.749 69.956 150.661 70.3068C150.661 70.3946 150.661 70.4823 150.661 70.6139ZM118.214 73.684C118.698 72.5875 119.401 71.7981 120.324 71.3156C121.292 70.7893 122.523 70.5262 123.93 70.7016C124.369 69.9121 124.853 69.2104 125.336 68.4209C124.413 68.4647 123.578 68.5525 122.699 68.6402C120.061 68.8595 117.555 69.0788 113.993 68.9472C112.411 68.9033 109.817 68.9472 106.959 69.2542C107.179 74.2104 100.364 73.9033 99.177 70.5261C99.0011 70.57 98.7813 70.6139 98.6054 70.6577C94.7804 71.7104 93.3735 72.1051 91.3951 74.8683C91.1752 71.8858 94.6485 70.4823 98.2977 69.4735C98.5175 69.4297 98.7813 69.3419 99.0011 69.2981C99.0011 69.2981 99.0011 69.2981 99.0011 69.2542C100.144 46.1402 101.683 23.0261 103.002 -0.0878906C104.277 22.6753 105.948 45.2191 106.871 67.9823C109.773 67.7191 112.411 67.6314 113.993 67.6753C117.467 67.8068 119.973 67.5876 122.567 67.3683C123.666 67.2805 124.809 67.1928 126.084 67.1051C128.546 62.9823 130.788 59.8683 132.855 57.9823C135.097 55.877 137.163 55.1753 139.01 55.877L139.142 55.9209L139.23 56.0086C139.625 56.4472 139.889 56.9297 140.021 57.456C140.241 58.3332 140.065 59.2104 139.625 60.0437C139.186 60.8332 138.526 61.6226 137.647 62.4121C134.789 64.9998 129.909 67.3244 126.831 68.1577L126.787 68.2016L126.392 68.8595C125.952 69.5174 125.556 70.1314 125.161 70.8332C126.26 71.0963 127.842 71.4911 131.536 71.6665C131.624 71.6665 131.667 71.7104 131.667 71.7981C131.667 71.8858 131.624 71.9297 131.58 71.9735C130.744 72.3244 129.205 72.5437 128.15 72.456C126.963 72.3683 125.732 72.1928 124.501 71.9735C123.666 73.5963 122.742 75.7454 121.336 79.6051C119.973 83.4647 117.203 90.263 112.938 94.956C108.542 99.7367 102.65 102.149 95.0003 96.7981C99.7046 97.9823 103.178 102.324 112.059 94.1665C116.192 89.649 118.874 82.9823 120.236 79.2542C121.555 75.6139 122.435 73.4209 123.27 71.8419C122.303 71.7981 121.511 71.9296 120.896 72.2805C120.236 72.6314 119.709 73.2454 119.313 74.1226C119.181 74.3858 118.874 74.5174 118.61 74.4297L118.522 74.3858C118.39 74.3419 118.258 74.2104 118.214 74.0788C118.126 73.9911 118.126 73.8595 118.214 73.684ZM101.727 68.7718C102.606 68.5963 103.53 68.4647 104.409 68.3332C104.277 66.5349 103.574 64.8682 103.134 63.1139C102.562 64.8244 101.727 66.5788 101.727 68.4209C101.727 68.5525 101.727 68.684 101.727 68.7718ZM104.277 69.5612C103.53 69.649 102.782 69.7805 102.035 69.9121C102.606 71.0086 103.881 70.877 104.277 69.5612ZM133.69 58.9033C131.887 60.57 129.909 63.2016 127.755 66.7104C130.656 65.7016 134.481 63.7718 136.855 61.6226C137.603 60.9647 138.218 60.263 138.57 59.5612C138.878 58.9472 139.01 58.377 138.878 57.8068C138.79 57.5437 138.658 57.2367 138.438 56.9735C137.119 56.5349 135.492 57.1928 133.69 58.9033ZM118.214 15.9647C120.412 15.9647 122.171 17.8946 122.171 20.3068C122.171 22.7191 120.412 24.649 118.214 24.649C116.016 24.649 114.257 22.7191 114.257 20.3068C114.257 17.8946 116.016 15.9647 118.214 15.9647ZM114.653 33.2016H112.059V31.7542H117.555C118.434 31.7542 119.225 31.6665 119.929 31.4911C120.632 31.3156 121.248 31.0525 121.907 30.7454V61.7104H124.413V63.1577H112.147V61.7104H114.653V33.2016ZM95.2201 54.9998L96.0554 55.7893C95.0882 57.9823 93.9011 59.9121 92.4063 61.5788C90.9554 63.2454 89.1528 64.0349 87.0865 64.0349C83.7451 64.0349 80.8434 62.456 78.2934 59.2542C75.7873 56.0525 74.5123 52.1051 74.5123 47.2805C74.5123 42.6753 75.6554 38.7718 77.8977 35.5261C80.1399 32.2805 82.6459 30.7016 85.4597 30.7016C88.5373 30.7016 91.1313 32.1489 93.2416 35.0437C95.352 37.9384 96.4511 41.6665 96.4951 46.2279H82.4701V52.763C82.4701 56.3595 82.8658 58.9033 83.7011 60.3946C84.4925 61.8858 85.7235 62.6753 87.2623 62.6753C88.7571 62.6753 90.0761 62.149 91.2192 61.0525C92.3184 59.956 93.2856 58.7718 94.033 57.4121C94.2528 57.0174 94.5166 56.6226 94.6925 56.184C94.8683 55.7893 95.0882 55.3946 95.2201 54.9998ZM82.4701 44.8682H89.3287V41.4911C89.3287 41.0963 89.3287 40.7454 89.3287 40.3507C89.3287 39.956 89.3287 39.6051 89.2847 39.2104C89.1968 37.456 88.977 35.8332 88.4933 34.3858C88.0537 32.9384 87.1744 32.1928 85.8114 32.1928C84.7123 32.1928 83.9209 32.6753 83.4813 33.684C82.9977 34.6928 82.7339 35.8332 82.558 37.0612C82.514 37.6314 82.514 38.2016 82.4701 38.7279C82.4701 39.2981 82.4261 39.7805 82.4261 40.2191V44.8682H82.4701ZM18.8959 47.763L13.752 28.2893L8.65197 47.763H18.8959Z" fill="#6D6E70"/>
</g>
<defs>
<clipPath id="clip0_532_7961">
<rect width="153" height="100" fill="white" transform="translate(0.166626)"/>
</clipPath>
</defs>
</svg>
