<svg width="239" height="50" viewBox="0 0 239 50" fill="none" xmlns="http://www.w3.org/2000/svg">
<g clip-path="url(#clip0_346_6283)">
<path fill-rule="evenodd" clip-rule="evenodd" d="M25.5822 42.273C16.09 42.273 8.36715 34.5243 8.36715 24.9991C8.36715 15.4739 16.0906 7.72743 25.5822 7.72743C35.0737 7.72743 42.7957 15.4755 42.7957 24.9995C42.7957 34.5235 35.0749 42.273 25.5822 42.273ZM25.5822 0C11.8431 0 0.665649 11.2144 0.665649 24.9991C0.665649 38.7837 11.8431 50 25.5822 50C39.3212 50 50.4972 38.7856 50.4972 24.9991C50.4972 11.2126 39.3212 0 25.5822 0Z" fill="#023E84"/>
<path fill-rule="evenodd" clip-rule="evenodd" d="M17.2207 20.7987H33.9457L25.5832 7.74023L17.2207 20.7987Z" fill="#E6332A"/>
<path fill-rule="evenodd" clip-rule="evenodd" d="M106.14 27.2998L95.9531 12.2285H87.757V37.7726H95.2783V22.445L105.583 37.7726H113.66V12.2285H106.14V27.2998Z" fill="#023E84"/>
<path fill-rule="evenodd" clip-rule="evenodd" d="M136.874 12.2285H116.821V18.3579H122.947V37.7726H130.746V18.3579H136.874V12.2285Z" fill="#023E84"/>
<path fill-rule="evenodd" clip-rule="evenodd" d="M215.996 27.4447V12.2285H208.196V27.2998C208.196 28.8673 207.877 32.3699 203.74 32.3699C199.603 32.3699 199.284 28.8669 199.284 27.2998V12.2285H191.485V27.4447C191.485 30.1821 192.123 38.5011 203.74 38.5011C215.358 38.5011 215.996 30.1826 215.996 27.4447Z" fill="#023E84"/>
<path fill-rule="evenodd" clip-rule="evenodd" d="M188.27 19.8916C188.27 18.7232 187.951 12.2285 178.641 12.2285H167.103V37.7726H174.901V17.8486H176.812C179.596 17.8486 180.471 19.3437 180.471 20.7685C180.471 22.1863 179.677 23.5688 177.216 23.7084V32.6609L180.79 37.7726H190.22L182.421 27.5547C185.047 26.7158 188.27 24.7086 188.27 19.8916Z" fill="#023E84"/>
<path fill-rule="evenodd" clip-rule="evenodd" d="M65.2204 12.2285L55.313 37.7726H63.6679L69.9558 18.3224L73.0012 27.7437H69.768L67.9911 33.346H74.8117L76.2421 37.7726H84.597L74.6896 12.2285H65.2204Z" fill="#023E84"/>
<path fill-rule="evenodd" clip-rule="evenodd" d="M144.568 12.2285L134.661 37.7726H143.015L149.302 18.3224L152.347 27.7437H149.116L147.339 33.346H154.158L155.588 37.7726H163.943L154.036 12.2285H144.568Z" fill="#023E84"/>
<path fill-rule="evenodd" clip-rule="evenodd" d="M229.994 21.5703C228.6 21.2783 226.691 20.8407 226.691 19.3082C226.691 18.3965 227.245 17.1178 229.593 17.1178C231.573 17.1178 233.316 18.2721 234.626 19.3621L235.737 20.4447L237.656 14.0965C237.435 13.9709 237.247 13.8728 237.187 13.8545L237.186 13.8569C235.919 13.0577 233.043 11.498 228.959 11.498C222.433 11.498 219.169 15.0733 219.169 19.1976C219.169 24.708 223.584 26.1313 225.814 26.7518C228.759 27.5907 231.148 27.8819 231.148 30.217C231.148 31.7508 229.832 32.3696 228.402 32.3696C226.769 32.3696 225.074 31.6385 223.447 30.5255V30.5195C223.447 30.5195 222.499 29.8402 221.561 29.0518C221.531 29.0273 221.505 29.0033 221.476 28.978L221.474 28.9805C221.27 28.8048 221.065 28.626 220.873 28.4485L220.104 30.9944L219.436 33.2096L218.84 35.1801C222.313 37.5958 224.946 38.5011 228.2 38.5011C234.727 38.5011 238.667 35.1817 238.667 30.1083C238.667 24.0884 234.093 22.445 229.994 21.5703Z" fill="#023E84"/>
</g>
<defs>
<clipPath id="clip0_346_6283">
<rect width="238" height="50" fill="white" transform="translate(0.666626)"/>
</clipPath>
</defs>
</svg>
