<svg width="252" height="70" viewBox="0 0 252 70" fill="none" xmlns="http://www.w3.org/2000/svg">
<g clip-path="url(#clip0_339_5763)">
<path d="M30.7552 12.2949L40.525 17.8705L50.251 23.457C50.3174 23.4938 50.3726 23.5475 50.4111 23.6125C50.4496 23.6776 50.47 23.7517 50.4701 23.8272V46.1732C50.4684 46.2553 50.444 46.3353 50.3996 46.4044C50.3551 46.4736 50.2924 46.5292 50.2182 46.5653L40.525 52.13L30.7552 57.7165C30.6911 57.756 30.6171 57.777 30.5416 57.777C30.4662 57.777 30.3922 57.756 30.3281 57.7165L20.602 52.1409L10.876 46.5435C10.8097 46.5067 10.7545 46.453 10.716 46.3879C10.6775 46.3228 10.6571 46.2487 10.657 46.1732V23.8272C10.6574 23.7449 10.6813 23.6644 10.7259 23.595C10.7705 23.5256 10.8339 23.4702 10.9089 23.4352L20.602 17.8705L30.3281 12.2949C30.3922 12.2553 30.4662 12.2344 30.5416 12.2344C30.6171 12.2344 30.6911 12.2553 30.7552 12.2949ZM40.0541 18.6219L30.5471 13.177L21.0292 18.6219L11.5222 24.0668V45.9228L21.0292 51.3677L30.5471 56.8126L40.0541 51.3677L49.572 45.9228V24.0777L40.0541 18.6328V18.6219Z" fill="#C28B71"/>
<path d="M30.766 0.05471L45.815 8.71215L60.8531 17.3478C60.9174 17.386 60.9705 17.4403 61.007 17.5053C61.0435 17.5702 61.0622 17.6436 61.0612 17.7181V52.2716C61.0621 52.3542 61.0388 52.4353 60.994 52.5049C60.9493 52.5746 60.8851 52.6297 60.8093 52.6636L45.815 61.2993L30.766 69.9458C30.6985 69.9811 30.6233 69.9995 30.547 69.9995C30.4706 69.9995 30.3955 69.9811 30.3279 69.9458L15.2679 61.2993L0.218898 52.6527C0.150106 52.616 0.0930847 52.5608 0.0543494 52.4934C0.0156141 52.426 -0.00327371 52.3491 -0.000156281 52.2716V17.7181C-0.00107706 17.6354 0.0222654 17.5543 0.0670107 17.4847C0.111756 17.4151 0.17596 17.3599 0.251756 17.326L15.2679 8.71215L30.3279 0.05471C30.3955 0.0194168 30.4706 0.000976563 30.547 0.000976562C30.6233 0.000976563 30.6985 0.0194168 30.766 0.05471ZM45.3769 9.44177L30.547 0.925899L15.706 9.44177L0.865108 17.9685V52.0429L15.6841 60.537L30.5251 69.0528L45.355 60.537L60.2398 52.0429V17.9685L45.4098 9.46355L45.3769 9.44177Z" fill="#C28B71"/>
<path d="M49.6924 24.1318C49.6514 24.0922 49.6187 24.0448 49.5964 23.9924C49.5741 23.9401 49.5626 23.8838 49.5626 23.8269C49.5626 23.77 49.5741 23.7137 49.5964 23.6613C49.6187 23.609 49.6514 23.5616 49.6924 23.522C49.7743 23.4422 49.8844 23.3975 49.9991 23.3975C50.1138 23.3975 50.2239 23.4422 50.3058 23.522L60.9628 34.695C61.0391 34.7741 61.0817 34.8794 61.0817 34.989C61.0817 35.0986 61.0391 35.2039 60.9628 35.283L50.3167 46.4669C50.2348 46.5467 50.1247 46.5914 50.0101 46.5914C49.8954 46.5914 49.7853 46.5467 49.7034 46.4669C49.6623 46.4273 49.6297 46.3799 49.6074 46.3275C49.5851 46.2752 49.5736 46.2189 49.5736 46.162C49.5736 46.1051 49.5851 46.0488 49.6074 45.9964C49.6297 45.9441 49.6623 45.8967 49.7034 45.8571L60.0647 34.9672L49.7034 24.0774L49.6924 24.1318Z" fill="#C28B71"/>
<path d="M10.7775 23.5332C10.8594 23.4534 10.9695 23.4087 11.0842 23.4087C11.1988 23.4087 11.309 23.4534 11.3908 23.5332C11.4711 23.6146 11.5161 23.7241 11.5161 23.8381C11.5161 23.9521 11.4711 24.0616 11.3908 24.143L1.01863 35.0329L11.3908 45.9228C11.4711 46.0042 11.5161 46.1137 11.5161 46.2277C11.5161 46.3417 11.4711 46.4512 11.3908 46.5326C11.309 46.6124 11.1988 46.6571 11.0842 46.6571C10.9695 46.6571 10.8594 46.6124 10.7775 46.5326L0.120506 35.2943C0.0441961 35.2152 0.00158691 35.1098 0.00158691 35.0002C0.00158691 34.8906 0.0441961 34.7853 0.120506 34.7062L10.7775 23.5332Z" fill="#C28B71"/>
<path d="M0.219028 18.0881C0.119617 18.031 0.0467081 17.9374 0.015984 17.8274C-0.0147401 17.7174 -0.000824597 17.5999 0.0547372 17.5C0.0830314 17.4509 0.120912 17.4079 0.166154 17.3736C0.211395 17.3392 0.263085 17.3142 0.318185 17.3C0.373286 17.2858 0.430685 17.2827 0.487012 17.2908C0.543339 17.299 0.597456 17.3183 0.646184 17.3475L10.8322 23.1845L15.0709 8.95146C15.1145 8.85243 15.1936 8.77307 15.2928 8.72879C15.392 8.68451 15.5042 8.67848 15.6076 8.71188L30.098 12.1749V0.435594C30.098 0.320067 30.1442 0.209272 30.2263 0.127583C30.3085 0.0458929 30.4199 2.29576e-08 30.5361 2.29576e-08C30.5932 -1.86197e-05 30.6496 0.0113169 30.7022 0.033338C30.7547 0.0553592 30.8023 0.0876201 30.8421 0.128218C30.8819 0.168816 30.9132 0.21693 30.934 0.269721C30.9548 0.322512 30.9648 0.378912 30.9633 0.435594V12.6649C30.9686 12.6974 30.9686 12.7305 30.9633 12.7629C30.9504 12.8173 30.9269 12.8686 30.894 12.9139C30.8612 12.9592 30.8196 12.9977 30.7718 13.027C30.724 13.0563 30.6708 13.076 30.6153 13.0849C30.5599 13.0938 30.5032 13.0917 30.4485 13.0787L15.7828 9.58307L11.5003 23.9577V24.0448C11.4429 24.1436 11.3488 24.2161 11.2382 24.2467C11.1276 24.2772 11.0093 24.2634 10.9089 24.2081L0.219028 18.0881Z" fill="#C28B71"/>
<path d="M60.4371 17.3473C60.4858 17.3181 60.5399 17.2988 60.5963 17.2906C60.6526 17.2825 60.71 17.2856 60.7651 17.2998C60.8202 17.314 60.8719 17.339 60.9171 17.3733C60.9624 17.4077 61.0002 17.4507 61.0285 17.4998C61.085 17.5984 61.1006 17.715 61.072 17.8248C61.0434 17.9346 60.9728 18.029 60.8752 18.0878L50.2182 24.2079C50.1178 24.2632 49.9995 24.277 49.8889 24.2465C49.7783 24.2159 49.6842 24.1434 49.6268 24.0446C49.6248 24.0156 49.6248 23.9865 49.6268 23.9575L45.3004 9.58287L30.6676 13.0676C30.609 13.091 30.546 13.1015 30.483 13.0985C30.4199 13.0954 30.3582 13.0788 30.3022 13.0498C30.2462 13.0208 30.1971 12.9802 30.1584 12.9306C30.1197 12.881 30.0922 12.8237 30.0778 12.7625C30.0634 12.7014 30.0625 12.6379 30.0751 12.5764C30.0877 12.5149 30.1136 12.4568 30.1509 12.4061C30.1882 12.3555 30.236 12.3134 30.2912 12.2829C30.3464 12.2523 30.4075 12.234 30.4705 12.2291L45.4757 8.71168C45.586 8.68121 45.704 8.69493 45.8043 8.74989C45.9046 8.80484 45.9793 8.89667 46.0124 9.00571L50.262 23.2387L60.4371 17.4018V17.3473Z" fill="#C28B71"/>
<path d="M0.646184 52.6523C0.597456 52.6816 0.543339 52.7009 0.487012 52.709C0.430685 52.7172 0.373286 52.7141 0.318185 52.6999C0.263085 52.6857 0.211395 52.6607 0.166154 52.6263C0.120912 52.592 0.0830314 52.549 0.0547372 52.4999C-0.000824597 52.4 -0.0147401 52.2824 0.015984 52.1725C0.0467081 52.0625 0.119617 51.9689 0.219028 51.9118L10.876 45.7917C10.9765 45.7365 11.0947 45.7226 11.2053 45.7532C11.3159 45.7837 11.4101 45.8562 11.4675 45.9551V46.0531L15.75 60.4277L30.4485 56.9212C30.5032 56.9082 30.5599 56.9061 30.6153 56.915C30.6708 56.9239 30.724 56.9435 30.7718 56.9729C30.8196 57.0022 30.8612 57.0406 30.894 57.0859C30.9269 57.1313 30.9504 57.1826 30.9633 57.237C30.9686 57.2694 30.9686 57.3025 30.9633 57.335V69.5643C30.9648 69.621 30.9548 69.6774 30.934 69.7302C30.9132 69.7829 30.8819 69.8311 30.8421 69.8717C30.8023 69.9123 30.7547 69.9445 30.7022 69.9665C30.6496 69.9886 30.5932 69.9999 30.5361 69.9999C30.4199 69.9999 30.3085 69.954 30.2263 69.8723C30.1442 69.7906 30.098 69.6798 30.098 69.5643V57.8795L15.6185 61.3424C15.5082 61.3729 15.3902 61.3592 15.2899 61.3042C15.1896 61.2493 15.1149 61.1575 15.0819 61.0484L10.8322 46.8263L0.646184 52.6523Z" fill="#C28B71"/>
<path d="M22.4093 35.9038H38.5426V36.7641H22.4093V35.9038Z" fill="#C28B71"/>
<path d="M60.8751 51.9121C60.9727 51.9709 61.0433 52.0653 61.0719 52.1751C61.1006 52.285 61.085 52.4016 61.0285 52.5001C61.0002 52.5492 60.9623 52.5922 60.9171 52.6266C60.8718 52.6609 60.8201 52.6859 60.765 52.7001C60.7099 52.7143 60.6525 52.7174 60.5962 52.7093C60.5399 52.7011 60.4858 52.6818 60.437 52.6526L50.262 46.8265L46.0014 61.0487C45.9683 61.1577 45.8936 61.2495 45.7933 61.3045C45.693 61.3594 45.575 61.3732 45.4647 61.3427L30.4485 57.7164C30.3855 57.7115 30.3244 57.6932 30.2692 57.6626C30.2141 57.6321 30.1662 57.59 30.1289 57.5394C30.0916 57.4887 30.0658 57.4306 30.0531 57.3691C30.0405 57.3076 30.0414 57.2441 30.0558 57.1829C30.0702 57.1218 30.0977 57.0645 30.1364 57.0149C30.1752 56.9653 30.2242 56.9246 30.2802 56.8957C30.3363 56.8667 30.3979 56.8501 30.461 56.847C30.5241 56.8439 30.587 56.8545 30.6456 56.8779L45.3004 60.3735L49.5829 45.9989C49.5788 45.9663 49.5788 45.9334 49.5829 45.9009C49.6403 45.802 49.7344 45.7295 49.845 45.699C49.9556 45.6685 50.0739 45.6823 50.1743 45.7375L60.8313 51.8576L60.8751 51.9121Z" fill="#C28B71"/>
<path d="M18.4553 44.2781C18.4265 44.3268 18.3884 44.3693 18.3431 44.4033C18.2978 44.4372 18.2463 44.462 18.1913 44.4762C18.1364 44.4903 18.0792 44.4936 18.023 44.4858C17.9669 44.4779 17.9128 44.4592 17.8639 44.4306C17.815 44.402 17.7722 44.3641 17.738 44.3191C17.7039 44.274 17.6789 44.2228 17.6647 44.1681C17.6505 44.1135 17.6472 44.0567 17.655 44.0008C17.6629 43.945 17.6818 43.8912 17.7105 43.8425L23.9426 33.116L30.1747 22.3786C30.203 22.3295 30.2409 22.2865 30.2861 22.2522C30.3314 22.2178 30.3831 22.1928 30.4382 22.1786C30.4933 22.1644 30.5507 22.1613 30.607 22.1695C30.6633 22.1776 30.7174 22.1969 30.7662 22.2262C30.8276 22.2656 30.8799 22.3176 30.9195 22.3786L37.1516 33.116L43.3837 43.8425C43.4402 43.9411 43.4558 44.0577 43.4271 44.1675C43.3985 44.2774 43.3279 44.3717 43.2303 44.4306C43.1816 44.4599 43.1275 44.4791 43.0712 44.4873C43.0148 44.4955 42.9574 44.4923 42.9023 44.4781C42.8472 44.4639 42.7956 44.4389 42.7503 44.4046C42.7051 44.3702 42.6672 44.3272 42.6389 44.2781L36.4068 33.5407L30.5471 23.4567L24.6874 33.5407L18.4553 44.2781Z" fill="#C28B71"/>
<path fill-rule="evenodd" clip-rule="evenodd" d="M83.5473 18.6328C81.6086 18.6328 81.2801 18.9595 80.6229 21.3335L76.439 35.9368C76.439 36.1872 76.439 36.2634 76.6799 36.2634H78.0271C78.1914 36.2634 78.2352 36.1872 78.3009 35.9585L79.8672 30.5136H87.2712L88.8046 35.9585C88.8046 36.1872 88.9031 36.2634 89.0674 36.2634H90.4146C90.6446 36.2634 90.6884 36.1872 90.6446 35.9368L86.614 21.3335C85.9459 18.9595 85.6721 18.6328 83.5473 18.6328ZM83.5473 20.2009C84.4454 20.2009 84.5111 20.386 84.8835 21.7473L86.844 28.9781H80.2724L82.3425 21.7799C82.7149 20.4187 82.7915 20.2336 83.5473 20.2336V20.2009ZM102.649 18.6328C101.554 18.6328 99.6587 18.6328 98.1691 18.7526C97.9391 18.7526 97.8625 18.8179 97.8625 19.0575V35.9912C97.8625 36.2199 97.9391 36.2961 98.1691 36.2961H99.3739C99.6149 36.2961 99.6806 36.2199 99.6806 35.9912V29.6533H103.81L107.775 35.8932C107.851 36.0342 107.968 36.1496 108.11 36.2251C108.252 36.3006 108.414 36.3329 108.574 36.3179H109.669C109.976 36.3179 110.075 36.1328 109.899 35.915L105.814 29.5117C108.739 29.185 109.779 28.0416 109.779 24.1866C109.779 19.3079 108.005 18.6328 102.649 18.6328ZM102.539 20.2009C106.833 20.2009 108.016 20.5821 108.016 24.2084C108.016 27.8347 106.92 28.0634 102.539 28.0634H99.6697V20.2009H102.539ZM116.099 18.7526C115.913 18.7526 115.792 18.8397 115.792 19.0248V20.0158C115.787 20.0571 115.791 20.0991 115.804 20.1385C115.818 20.1779 115.84 20.2138 115.87 20.2432C115.9 20.2727 115.936 20.295 115.975 20.3084C116.015 20.3218 116.057 20.326 116.099 20.3207H121.641V35.9912C121.633 36.0329 121.635 36.076 121.648 36.1165C121.661 36.1571 121.683 36.194 121.713 36.224C121.744 36.254 121.781 36.2763 121.821 36.2889C121.862 36.3014 121.905 36.3039 121.947 36.2961H123.13C123.349 36.2961 123.437 36.1981 123.437 35.9912V20.3207H128.979C129.176 20.3207 129.264 20.2227 129.264 20.0158V19.0248C129.264 18.8397 129.176 18.7526 128.979 18.7526H116.099ZM146.416 18.7526C146.368 18.7451 146.319 18.749 146.273 18.7639C146.227 18.7787 146.186 18.8042 146.151 18.8382C146.117 18.8722 146.092 18.9137 146.077 18.9593C146.062 19.005 146.058 19.0536 146.065 19.101V35.9368C146.058 35.9846 146.062 36.0334 146.077 36.0795C146.092 36.1255 146.118 36.1675 146.152 36.2022C146.185 36.2369 146.227 36.2635 146.273 36.2797C146.319 36.296 146.367 36.3016 146.416 36.2961H157.084C157.125 36.3015 157.168 36.2973 157.207 36.2838C157.247 36.2704 157.283 36.2481 157.313 36.2186C157.342 36.1892 157.365 36.1534 157.378 36.1139C157.392 36.0745 157.396 36.0325 157.39 35.9912V35.0002C157.392 34.9606 157.386 34.9211 157.37 34.8845C157.355 34.8478 157.332 34.8148 157.303 34.7878C157.274 34.7609 157.239 34.7406 157.201 34.7284C157.163 34.7161 157.123 34.7123 157.084 34.7171H147.862V28.6188H156.208C156.427 28.6188 156.514 28.5316 156.514 28.3139V27.3338C156.514 27.1486 156.427 27.0506 156.208 27.0506H147.862V20.3207H157.062C157.103 20.326 157.146 20.3218 157.185 20.3084C157.225 20.295 157.261 20.2727 157.291 20.2432C157.32 20.2138 157.343 20.1779 157.356 20.1385C157.37 20.0991 157.374 20.0571 157.369 20.0158V19.0248C157.369 18.8397 157.248 18.7526 157.062 18.7526H146.416ZM170.249 18.6328C166.963 18.6328 164.367 19.1446 164.367 22.4987V23.0214C164.367 24.6331 164.674 26.0161 166.613 26.8219L172.396 29.185C172.974 29.3745 173.471 29.7533 173.805 30.2596C174.139 30.7659 174.291 31.3698 174.236 31.9728V32.4956C174.236 34.3686 172.79 34.8369 170.643 34.8369H164.4C164.364 34.8339 164.327 34.8384 164.293 34.8502C164.258 34.8619 164.227 34.8807 164.2 34.9053C164.173 34.9299 164.152 34.9597 164.137 34.9929C164.123 35.0261 164.115 35.062 164.115 35.0982V35.8714C164.115 36.0565 164.181 36.1546 164.345 36.1546C166.12 36.3397 168.409 36.4159 170.085 36.4159C173.097 36.4159 176.032 36.1328 176.032 32.5173V31.8095C176.108 30.964 175.901 30.1172 175.444 29.4004C174.986 28.6837 174.304 28.1372 173.502 27.8456L168.124 25.6023C166.492 24.938 166.185 24.241 166.185 22.9452V22.5749C166.185 20.9087 167.281 20.2009 169.657 20.2009H174.871C175.035 20.2009 175.112 20.1138 175.112 19.9178V19.1228C175.112 18.9812 175.035 18.8832 174.849 18.8615C173.321 18.7068 171.785 18.6304 170.249 18.6328ZM182.111 18.7526C181.925 18.7526 181.804 18.8397 181.804 19.0248V20.0158C181.799 20.0571 181.803 20.0991 181.816 20.1385C181.83 20.1779 181.852 20.2138 181.882 20.2432C181.912 20.2727 181.948 20.295 181.987 20.3084C182.027 20.3218 182.069 20.326 182.111 20.3207H187.653V35.9912C187.645 36.0329 187.647 36.076 187.66 36.1165C187.673 36.1571 187.695 36.194 187.725 36.224C187.756 36.254 187.793 36.2763 187.833 36.2889C187.874 36.3014 187.917 36.3039 187.959 36.2961H189.142C189.361 36.2961 189.449 36.1981 189.449 35.9912V20.3207H194.958C195.155 20.3207 195.243 20.2227 195.243 20.0158V19.0248C195.243 18.8397 195.155 18.7526 194.958 18.7526H182.111ZM207.784 18.6328C205.845 18.6328 205.517 18.9595 204.859 21.3335L200.687 35.9368C200.687 36.1872 200.687 36.2634 200.917 36.2634H202.264C202.428 36.2634 202.472 36.1872 202.548 35.9585L204.104 30.5136H211.508L213.041 35.9585C213.096 36.1872 213.14 36.2634 213.304 36.2634H214.673C214.903 36.2634 214.958 36.1872 214.903 35.9368L210.873 21.3008C210.215 18.9268 209.931 18.6001 207.806 18.6001L207.784 18.6328ZM207.784 20.2009C208.682 20.2009 208.748 20.386 209.131 21.7473L211.081 28.9781H204.509L206.579 21.7799C206.951 20.4187 207.028 20.2336 207.784 20.2336V20.2009ZM220.686 18.7526C220.5 18.7526 220.38 18.8397 220.38 19.0248V20.0158C220.374 20.0571 220.378 20.0991 220.392 20.1385C220.405 20.1779 220.428 20.2138 220.457 20.2432C220.487 20.2727 220.523 20.295 220.563 20.3084C220.602 20.3218 220.645 20.326 220.686 20.3207H226.228V35.9912C226.22 36.0329 226.223 36.076 226.236 36.1165C226.248 36.1571 226.271 36.194 226.301 36.224C226.331 36.254 226.368 36.2763 226.409 36.2889C226.45 36.3014 226.493 36.3039 226.535 36.2961H227.718C227.76 36.3039 227.803 36.3014 227.844 36.2889C227.885 36.2763 227.922 36.254 227.952 36.224C227.982 36.194 228.005 36.1571 228.017 36.1165C228.03 36.076 228.032 36.0329 228.024 35.9912V20.3207H233.567C233.753 20.3207 233.851 20.2227 233.851 20.0158V19.0248C233.851 18.8397 233.753 18.7526 233.567 18.7526H220.686ZM241.025 18.7526C240.978 18.7451 240.929 18.749 240.883 18.7639C240.837 18.7787 240.795 18.8042 240.761 18.8382C240.727 18.8722 240.701 18.9137 240.686 18.9593C240.671 19.005 240.667 19.0536 240.675 19.101V35.9368C240.675 36.1763 240.784 36.2961 241.025 36.2961H251.693C251.735 36.3015 251.777 36.2973 251.817 36.2838C251.856 36.2704 251.892 36.2481 251.922 36.2186C251.952 36.1892 251.974 36.1534 251.988 36.1139C252.001 36.0745 252.005 36.0325 252 35.9912V35.0002C252.002 34.9606 251.995 34.9211 251.98 34.8845C251.965 34.8478 251.942 34.8148 251.913 34.7878C251.884 34.7609 251.849 34.7406 251.811 34.7284C251.773 34.7161 251.733 34.7123 251.693 34.7171H242.482V28.6188H250.817C251.025 28.6188 251.124 28.5316 251.124 28.3139V27.3338C251.124 27.1486 251.025 27.0506 250.817 27.0506H242.46V20.3207H251.671C251.713 20.326 251.755 20.3218 251.795 20.3084C251.834 20.295 251.871 20.2727 251.9 20.2432C251.93 20.2138 251.952 20.1779 251.966 20.1385C251.979 20.0991 251.983 20.0571 251.978 20.0158V19.0248C251.978 18.8397 251.858 18.7526 251.671 18.7526H241.025Z" fill="#C28B71"/>
<path d="M79.4509 45.6177H80.6448L83.4925 53.5455H82.3972L81.5977 51.2695H78.5419L77.7642 53.5455H76.6689L79.4509 45.6177ZM81.2472 50.3439L80.371 47.8392C80.2286 47.4254 80.0533 46.7502 80.0533 46.7502C80.0533 46.7502 79.8781 47.469 79.7467 47.8392L78.8595 50.3439H81.2472Z" fill="#C28B71"/>
<path d="M85.0587 45.6177H89.4398V46.5869H86.154V53.5455H85.0587V45.6177Z" fill="#C28B71"/>
<path d="M90.9951 45.6177H95.6391V46.5869H92.1123V49.0698H94.9709V50.0281H92.1123V52.5872H95.8253V53.5455H90.9951V45.6177Z" fill="#C28B71"/>
<path d="M97.7091 45.6177H98.8044V49.1024H102.955V45.6177H104.051V53.5455H102.955V50.0934H98.8263V53.5673H97.731L97.7091 45.6177Z" fill="#C28B71"/>
<path d="M108.432 46.5869H105.639V45.6177H112.211V46.5869H109.527V53.5455H108.432V46.5869Z" fill="#C28B71"/>
<path d="M117.03 45.487C118.104 45.4706 119.145 45.8597 119.943 46.576L119.385 47.4036C118.736 46.8617 117.92 46.5579 117.074 46.5433C116.675 46.5303 116.277 46.6004 115.907 46.7493C115.537 46.8981 115.203 47.1224 114.925 47.4076C114.648 47.6927 114.433 48.0325 114.296 48.4051C114.159 48.7776 114.101 49.1747 114.127 49.5707C114.1 49.9739 114.157 50.3783 114.294 50.7587C114.431 51.1391 114.646 51.4874 114.924 51.7817C115.203 52.076 115.539 52.31 115.913 52.4692C116.286 52.6284 116.689 52.7093 117.095 52.7069C118.025 52.6777 118.906 52.2866 119.549 51.618L120.151 52.4129C119.749 52.8205 119.268 53.1426 118.737 53.3597C118.206 53.5769 117.637 53.6845 117.063 53.6761C116.006 53.622 115.01 53.1664 114.281 52.4034C113.552 51.6404 113.146 50.6284 113.146 49.5761C113.146 48.5239 113.552 47.5118 114.281 46.7488C115.01 45.9858 116.006 45.5302 117.063 45.4761L117.03 45.487Z" fill="#C28B71"/>
<path d="M123.766 46.5869H121.016V45.6177H127.588V46.5869H124.861V53.5455H123.766V46.5869Z" fill="#C28B71"/>
<path d="M129.242 45.6174H132.035C132.325 45.5785 132.62 45.6019 132.9 45.6859C133.181 45.77 133.44 45.9128 133.66 46.1048C133.88 46.2967 134.056 46.5333 134.176 46.7987C134.296 47.064 134.358 47.3519 134.357 47.6429C134.369 47.9922 134.282 48.3377 134.106 48.6401C133.929 48.9424 133.671 49.1893 133.36 49.3526C133.764 49.4802 134.113 49.7379 134.353 50.085C134.593 50.4321 134.71 50.8488 134.686 51.2692C134.683 51.5922 134.613 51.911 134.477 52.2048C134.342 52.4985 134.146 52.7605 133.902 52.9734C133.658 53.1864 133.371 53.3455 133.061 53.4403C132.75 53.5351 132.423 53.5634 132.101 53.5234H129.242V45.6174ZM131.98 49.0041C132.141 49.0178 132.303 48.9961 132.454 48.9404C132.605 48.8847 132.742 48.7965 132.855 48.6821C132.968 48.5676 133.055 48.4298 133.108 48.2784C133.161 48.127 133.18 47.9658 133.163 47.8063C133.175 47.6484 133.152 47.4898 133.096 47.3416C133.04 47.1934 132.952 47.0591 132.838 46.9482C132.725 46.8373 132.588 46.7523 132.438 46.6993C132.288 46.6462 132.128 46.6264 131.969 46.6411H130.337V49.0041H131.98ZM132.112 52.6414C132.304 52.657 132.497 52.629 132.676 52.5595C132.856 52.4901 133.017 52.3809 133.148 52.2403C133.279 52.0997 133.376 51.9314 133.431 51.7481C133.487 51.5648 133.5 51.3712 133.47 51.1821C133.481 51.0019 133.454 50.8214 133.389 50.6525C133.325 50.4836 133.225 50.3302 133.097 50.2025C132.969 50.0748 132.814 49.9758 132.644 49.9118C132.475 49.8479 132.293 49.8206 132.112 49.8318H130.337V52.5434L132.112 52.6414Z" fill="#C28B71"/>
<path d="M140.195 45.4871C140.733 45.4768 141.267 45.5741 141.767 45.7731C142.266 45.9721 142.72 46.2688 143.102 46.6455C143.484 47.0223 143.787 47.4715 143.991 47.9665C144.195 48.4615 144.297 48.9922 144.291 49.5272C144.291 50.6074 143.859 51.6433 143.091 52.4071C142.323 53.1709 141.281 53.6 140.195 53.6C139.108 53.6 138.066 53.1709 137.298 52.4071C136.53 51.6433 136.098 50.6074 136.098 49.5272C136.094 48.9926 136.197 48.4626 136.402 47.9683C136.606 47.474 136.909 47.0254 137.29 46.6489C137.672 46.2724 138.126 45.9757 138.624 45.7762C139.123 45.5766 139.657 45.4783 140.195 45.4871ZM140.195 52.6635C140.596 52.6538 140.991 52.5644 141.357 52.4006C141.724 52.2368 142.053 52.0019 142.326 51.7097C142.6 51.4175 142.812 51.0739 142.95 50.6991C143.088 50.3243 143.149 49.9259 143.13 49.5272C143.155 49.1282 143.097 48.7285 142.96 48.3526C142.823 47.9766 142.611 47.6325 142.335 47.3414C142.06 47.0503 141.727 46.8183 141.358 46.6597C140.989 46.5011 140.591 46.4193 140.189 46.4193C139.787 46.4193 139.389 46.5011 139.02 46.6597C138.651 46.8183 138.319 47.0503 138.043 47.3414C137.768 47.6325 137.555 47.9766 137.419 48.3526C137.282 48.7285 137.224 49.1282 137.248 49.5272C137.231 49.9264 137.293 50.3251 137.433 50.7C137.572 51.0748 137.785 51.4183 138.059 51.7104C138.334 52.0024 138.664 52.2371 139.03 52.4008C139.397 52.5644 139.793 52.6537 140.195 52.6635Z" fill="#C28B71"/>
<path d="M149.384 45.6177H150.479V49.1024H154.619V45.6177H155.715V53.5455H154.619V50.0934H150.479V53.5673H149.384V45.6177Z" fill="#C28B71"/>
<path d="M158.201 45.6177H162.845V46.5869H159.318V49.0698H162.177V50.0281H159.318V52.5872H163.042V53.5455H158.201V45.6177Z" fill="#C28B71"/>
<path d="M164.74 52.5872C165.689 50.975 166.125 49.1145 165.988 47.2512V45.6177H170.654V52.5872H171.541V55.1245H170.534V53.5455H164.97V55.1245H163.875V52.5872H164.74ZM169.537 52.5872V46.5869H167.04V47.3165C167.164 49.1398 166.785 50.9621 165.945 52.5872H169.537Z" fill="#C28B71"/>
<path d="M173.392 45.6178H176.185C176.477 45.5736 176.776 45.593 177.059 45.6748C177.343 45.7566 177.606 45.8988 177.829 46.0915C178.051 46.2842 178.23 46.5228 178.351 46.7907C178.472 47.0587 178.533 47.3496 178.529 47.6433C178.541 47.9926 178.454 48.3382 178.278 48.6405C178.101 48.9428 177.843 49.1898 177.532 49.353C177.937 49.479 178.288 49.7363 178.528 50.0837C178.768 50.4312 178.884 50.8488 178.858 51.2697C178.855 51.5916 178.785 51.9094 178.65 52.2023C178.516 52.4952 178.321 52.7565 178.078 52.9693C177.835 53.1821 177.55 53.3415 177.24 53.4371C176.931 53.5326 176.605 53.5622 176.284 53.5239H173.425L173.392 45.6178ZM176.185 49.0046C176.345 49.0166 176.506 48.9935 176.656 48.9371C176.805 48.8807 176.941 48.7922 177.053 48.678C177.165 48.5638 177.25 48.4265 177.302 48.276C177.355 48.1254 177.374 47.9652 177.357 47.8067C177.369 47.6498 177.346 47.4922 177.291 47.3449C177.235 47.1975 177.148 47.0639 177.036 46.9531C176.923 46.8424 176.788 46.7572 176.639 46.7034C176.491 46.6496 176.332 46.6285 176.174 46.6415H174.51V49.0046H176.185ZM176.306 52.6418C176.498 52.657 176.691 52.6289 176.871 52.5595C177.051 52.49 177.213 52.3811 177.345 52.2408C177.476 52.1005 177.574 51.9325 177.631 51.7492C177.689 51.566 177.703 51.3723 177.675 51.1825C177.678 51.0082 177.645 50.8351 177.579 50.6738C177.513 50.5124 177.414 50.3662 177.289 50.2439C177.164 50.1217 177.015 50.026 176.852 49.9627C176.688 49.8994 176.514 49.8698 176.339 49.8758H174.542V52.5873L176.306 52.6418Z" fill="#C28B71"/>
<path d="M180.785 45.6177H181.881V50.7577C181.881 51.2151 181.815 51.9229 181.815 51.9229C181.815 51.9229 182.209 51.1824 182.494 50.7468L186.032 45.6177H187.127V53.5455H186.032V48.4055C186.032 47.959 186.098 47.2512 186.098 47.2512C186.098 47.2512 185.714 47.9699 185.429 48.4055L181.87 53.5455H180.775L180.785 45.6177Z" fill="#C28B71"/>
<path d="M191.092 49.4073L188.901 45.6395H190.117L191.979 48.9718H193.02V45.6177H194.115V49.0044H195.21L197.061 45.6721H198.244L196.054 49.44L198.376 53.5782H197.149L195.166 49.9518H194.071V53.5782H192.976V49.9192H191.935L189.953 53.5455H188.693L191.092 49.4073Z" fill="#C28B71"/>
<path d="M200.04 45.6177H201.136V50.7577C201.136 51.2151 201.07 51.9229 201.07 51.9229C201.07 51.9229 201.464 51.1824 201.749 50.7468L205.287 45.6177H206.382V53.5455H205.287V48.4055C205.287 47.959 205.352 47.2512 205.352 47.2512C205.352 47.2512 204.969 47.9699 204.684 48.4055L201.125 53.5455H200.029L200.04 45.6177Z" fill="#C28B71"/>
<path d="M209.197 45.6177H210.358L212.198 49.9083C212.384 50.3439 212.581 50.9973 212.581 50.9973C212.581 50.9973 212.789 50.3657 212.975 49.9083L214.815 45.6177H215.976L216.623 53.5455H215.527L215.144 48.5471C215.144 48.0679 215.144 47.3818 215.144 47.3818C215.144 47.3818 214.892 48.1115 214.706 48.5471L213.118 52.1189H212.121L210.544 48.5471C210.358 48.1223 210.106 47.3601 210.106 47.3601C210.106 47.3601 210.106 48.0679 210.106 48.5471L209.722 53.5455H208.627L209.197 45.6177Z" fill="#C28B71"/>
<path d="M222.439 45.4871C222.976 45.4768 223.51 45.5741 224.009 45.7732C224.508 45.9724 224.961 46.2692 225.343 46.6461C225.724 47.0231 226.025 47.4724 226.228 47.9673C226.431 48.4623 226.531 48.9928 226.524 49.5272C226.553 50.079 226.468 50.6309 226.276 51.1492C226.083 51.6676 225.786 52.1415 225.404 52.5422C225.021 52.9429 224.56 53.262 224.049 53.4801C223.539 53.6981 222.989 53.8105 222.433 53.8105C221.877 53.8105 221.327 53.6981 220.817 53.4801C220.306 53.262 219.845 52.9429 219.463 52.5422C219.08 52.1415 218.783 51.6676 218.591 51.1492C218.398 50.6309 218.314 50.079 218.342 49.5272C218.338 48.9926 218.441 48.4626 218.646 47.9683C218.85 47.474 219.152 47.0254 219.534 46.6489C219.916 46.2724 220.369 45.9757 220.868 45.7762C221.367 45.5766 221.901 45.4783 222.439 45.4871ZM222.439 52.6635C222.84 52.6538 223.235 52.5644 223.601 52.4006C223.967 52.2368 224.297 52.0019 224.57 51.7097C224.844 51.4176 225.056 51.074 225.194 50.6991C225.332 50.3243 225.393 49.9259 225.374 49.5272C225.398 49.1282 225.341 48.7285 225.204 48.3526C225.067 47.9767 224.854 47.6325 224.579 47.3414C224.303 47.0503 223.971 46.8183 223.602 46.6597C223.233 46.5011 222.835 46.4193 222.433 46.4193C222.031 46.4193 221.633 46.5011 221.264 46.6597C220.895 46.8183 220.563 47.0503 220.287 47.3414C220.012 47.6325 219.799 47.9767 219.662 48.3526C219.526 48.7285 219.468 49.1282 219.492 49.5272C219.475 49.9264 219.537 50.3251 219.677 50.7C219.816 51.0748 220.029 51.4183 220.303 51.7104C220.578 52.0024 220.908 52.2371 221.274 52.4008C221.641 52.5644 222.037 52.6537 222.439 52.6635Z" fill="#C28B71"/>
<path d="M232.044 45.487C233.119 45.4706 234.16 45.8597 234.958 46.576L234.399 47.4036C233.751 46.8617 232.935 46.5579 232.088 46.5433C231.689 46.5303 231.292 46.6004 230.922 46.7493C230.552 46.8981 230.217 47.1224 229.94 47.4076C229.662 47.6927 229.448 48.0325 229.31 48.4051C229.173 48.7776 229.115 49.1747 229.142 49.5707C229.115 49.9739 229.171 50.3783 229.308 50.7587C229.446 51.1391 229.66 51.4874 229.939 51.7817C230.217 52.076 230.554 52.31 230.927 52.4692C231.301 52.6284 231.703 52.7093 232.11 52.7069C233.04 52.6777 233.921 52.2866 234.563 51.618L235.166 52.4129C234.764 52.8205 234.283 53.1426 233.752 53.3597C233.221 53.5769 232.651 53.6845 232.077 53.6761C231.02 53.622 230.024 53.1664 229.296 52.4034C228.567 51.6404 228.16 50.6284 228.16 49.5761C228.16 48.5239 228.567 47.5118 229.296 46.7488C230.024 45.9858 231.02 45.5302 232.077 45.4761L232.044 45.487Z" fill="#C28B71"/>
<path d="M238.769 46.5869H236.031V45.6177H242.603V46.5869H239.864V53.5455H238.769V46.5869Z" fill="#C28B71"/>
<path d="M244.245 45.6177H245.341V50.7577C245.341 51.2151 245.264 51.9229 245.264 51.9229C245.264 51.9229 245.658 51.1824 245.932 50.7468L249.47 45.6177H250.565V53.5455H249.47V48.4055C249.47 47.959 249.536 47.2512 249.536 47.2512C249.536 47.2512 249.152 47.9699 248.868 48.4055L245.341 53.5455H244.245V45.6177Z" fill="#C28B71"/>
</g>
<defs>
<clipPath id="clip0_339_5763">
<rect width="252" height="70" fill="white"/>
</clipPath>
</defs>
</svg>
