<svg width="213" height="60" viewBox="0 0 213 60" fill="none" xmlns="http://www.w3.org/2000/svg">
<g clip-path="url(#clip0_339_5755)">
<path fill-rule="evenodd" clip-rule="evenodd" d="M34.5363 51.6211C34.6494 51.7505 34.7426 51.8963 34.8126 52.0536C34.9531 52.3696 34.995 52.7208 34.933 53.0611C34.871 53.4014 34.7078 53.715 34.465 53.9607L34.4641 53.9619C34.305 54.1208 34.1162 54.2465 33.9084 54.3319C33.7007 54.4173 33.4781 54.4605 33.2536 54.4592C33.0208 54.4597 32.7904 54.413 32.576 54.322C32.4268 54.258 32.2873 54.1731 32.1619 54.0697L21.3321 59.9329L21.2079 60L21.0836 59.9329L10.2714 54.0791C10.1466 54.1805 10.0081 54.2636 9.86003 54.3259C9.64812 54.4144 9.42077 54.4597 9.19123 54.4592C8.73876 54.4581 8.30514 54.2773 7.98521 53.9563C7.66529 53.6354 7.48507 53.2004 7.48399 52.7466C7.48438 52.5147 7.53316 52.2855 7.62721 52.0736C7.69562 51.9191 7.78606 51.7753 7.8957 51.6468L2.475 40.4314C2.43761 40.4338 2.4047 40.4351 2.37404 40.4351C2.14835 40.4375 1.92443 40.3949 1.71524 40.3099C1.50604 40.2249 1.31573 40.0992 1.1553 39.9399C0.994871 39.7807 0.867514 39.5911 0.780597 39.3822C0.693679 39.1732 0.648926 38.9491 0.648926 38.7227C0.648926 38.4963 0.693679 38.2722 0.780597 38.0632C0.867514 37.8543 0.994871 37.6647 1.1553 37.5055C1.31573 37.3462 1.50604 37.2204 1.71524 37.1355C1.92443 37.0505 2.14835 37.0079 2.37404 37.0103C2.40657 37.0103 2.44322 37.0118 2.48341 37.0148L14.3576 12.7015L14.43 12.5534H15.6773L15.492 12.9322L4.28115 35.8593L23.2887 16.3505C23.239 16.2593 23.198 16.1636 23.1661 16.0647C23.1109 15.8951 23.0827 15.7179 23.0825 15.5395C23.0812 15.2078 23.1757 14.8827 23.3546 14.6037C23.4932 14.3888 23.6786 14.2082 23.8968 14.0755L23.6111 12.8765L23.5333 12.5534H24.6778L24.7262 12.7561L24.9857 13.84C25.0913 13.8524 25.1956 13.8748 25.297 13.9069C25.3905 13.9367 25.4813 13.9744 25.5685 14.0194L26.9126 12.634L26.9906 12.5539H27.9851L28.0577 12.7021L33.4425 23.7152V26.2107L27.3475 13.7304L26.3216 14.7858C26.3636 14.8706 26.3983 14.9588 26.4254 15.0495C26.4731 15.2087 26.4974 15.3742 26.4974 15.5405C26.4961 15.8588 26.4048 16.1701 26.2341 16.4384C26.1002 16.6506 25.9232 16.832 25.7145 16.9707L31.2603 41.1304C31.4767 41.1492 31.6875 41.2095 31.8812 41.308C32.0546 41.3958 32.2119 41.5124 32.3464 41.6529L33.4441 41.1465V42.3511L32.8126 42.6456C32.8198 42.7092 32.8236 42.7732 32.8238 42.8372C32.8223 43.1712 32.722 43.4972 32.5355 43.7739C32.39 43.9914 32.1985 44.174 31.9745 44.3087L33.5305 51.0581L33.5664 51.0646L33.573 51.0657L34.9104 48.3007H36.1494L34.5363 51.6211ZM14.9533 11.4862L20.5945 0H20.6352L23.288 11.4862H14.9533ZM21.8046 0.112529L27.4597 11.4862H24.4308L21.8046 0.112529ZM37.4884 31.9864L39.9736 37.069H39.9844C40.4461 37.069 40.8729 37.2655 41.1839 37.5772H41.185C41.4955 37.889 41.6917 38.3173 41.6917 38.7806C41.6905 39.2344 41.5102 39.6692 41.1903 39.9901C40.8704 40.311 40.4368 40.4917 39.9844 40.4929L39.9375 40.4919L38.0708 44.3386L37.4884 44.3357V42.9674L38.8792 40.0917C38.8463 40.064 38.8144 40.0348 38.7835 40.0043C38.751 39.9724 38.7199 39.939 38.69 39.9042L37.4884 40.4644V39.2762L38.2824 38.9092C38.2789 38.8626 38.2771 38.8195 38.277 38.78C38.2774 38.4802 38.3566 38.1857 38.5068 37.9265C38.6154 37.7381 38.7583 37.572 38.9282 37.4368L37.4885 34.4893L37.4884 31.9864ZM30.1811 41.3997L24.6348 17.246C24.5266 17.2358 24.4197 17.2154 24.3154 17.1849C24.2307 17.1602 24.1482 17.1289 24.0684 17.0911L3.86514 37.8925C4.00589 38.1463 4.08013 38.4317 4.0809 38.722C4.08074 38.7915 4.07599 38.861 4.0667 38.9298L19.9653 46.1289C20.1005 45.9849 20.2592 45.8652 20.4346 45.7748C20.6739 45.6517 20.939 45.5874 21.2079 45.5873C21.4792 45.5865 21.7468 45.65 21.9889 45.7727C22.1647 45.8621 22.3236 45.9815 22.4584 46.1257L29.4151 42.9749C29.411 42.9265 29.4089 42.8804 29.4089 42.8367C29.4078 42.5145 29.4969 42.1985 29.666 41.9246C29.7969 41.7133 29.9728 41.5337 30.1811 41.3987V41.3997ZM32.4543 51.2357L30.9135 44.5379C30.7111 44.5139 30.5147 44.4532 30.3339 44.3588C30.157 44.2659 29.9976 44.1429 29.8629 43.9952L22.9075 47.146C22.9124 47.2 22.915 47.2516 22.915 47.3003C22.915 47.3491 22.9122 47.4001 22.9075 47.4532L32.0192 51.5684C32.0847 51.4993 32.1557 51.4357 32.2314 51.3782C32.3022 51.3251 32.3767 51.2771 32.4543 51.2347V51.2357ZM31.5466 52.7475C31.5467 52.6901 31.5497 52.6328 31.5557 52.5757L22.4517 48.4684C22.3168 48.6134 22.158 48.734 21.9822 48.8247C21.7427 48.9482 21.4772 49.0125 21.2079 49.0123C20.9409 49.0117 20.678 48.9466 20.4413 48.8227C20.2654 48.7309 20.1062 48.6101 19.9704 48.4652L10.8878 52.562C10.8947 52.6233 10.8981 52.6849 10.8981 52.7466C10.8981 52.8492 10.8892 52.9516 10.8715 53.0526C10.8674 53.0774 10.8624 53.1021 10.857 53.1265L21.2079 58.7355L31.5849 53.1125C31.5803 53.09 31.576 53.0673 31.572 53.0444C31.5553 52.946 31.5467 52.8464 31.5466 52.7466V52.7475ZM19.5005 47.2998C19.5005 47.2459 19.5035 47.1906 19.5089 47.1336L3.57215 39.9261C3.5585 39.9398 3.54467 39.9529 3.53083 39.9662L3.50316 39.9917L8.84271 51.0725C8.86141 51.0689 8.8788 51.0652 8.89675 51.062C8.99373 51.0437 9.09218 51.0343 9.19086 51.034C9.45502 51.034 9.71552 51.0961 9.95146 51.2152C10.1248 51.3024 10.2821 51.4185 10.4166 51.5586L19.5093 47.4639C19.5035 47.4094 19.5006 47.3546 19.5005 47.2998Z" fill="#00488C"/>
<path fill-rule="evenodd" clip-rule="evenodd" d="M139.768 35.6506H154.411L158.917 47.4463H161.35V47.1753L147.652 12.4656H146.617L132.74 47.1753V47.4463H135.217L139.768 35.6506ZM210.369 47.4463V57.118H212.666V45.3223H208.386V12.556H191.941L189.328 39.1304C188.968 42.7913 188.382 45.3223 185.138 45.3223H183.291V47.4463H210.369ZM36.6374 26.8384V14.7706H53.7132V12.556H34.2947V47.4463H45.783C52.5862 47.4463 56.0104 42.8819 56.0104 37.0968C56.0104 31.3578 52.6312 26.8379 45.783 26.8379L36.6374 26.8384ZM36.6374 29.0074H45.783C51.0543 29.0074 53.7129 32.5333 53.7129 37.1425C53.6228 41.6169 51.0094 45.1871 45.783 45.1871C42.8546 45.2326 39.6105 45.1871 36.6371 45.1871L36.6374 29.0074ZM59.3899 47.4463H60.1565L80.3403 18.0698L80.1605 29.9109V47.4467H82.5031V12.5107H81.602L61.5074 41.7971L61.7327 29.2327V12.5107H59.3899V47.4463ZM116.384 29.9559C116.384 18.6122 109.941 11.9683 101.336 11.9683C92.9552 11.9683 86.4224 18.6122 86.4224 29.9559C86.4224 41.3451 92.8654 47.9437 101.336 47.9437C110.211 47.9437 116.384 41.2997 116.384 29.9559ZM88.7651 29.9559C88.7657 20.2392 94.0824 14.2727 101.426 14.2727C108.815 14.2727 114.041 19.9672 114.041 29.9553C114.041 40.124 108.68 45.6831 101.336 45.6831C94.0813 45.6831 88.7653 39.853 88.7653 29.9553L88.7651 29.9559ZM122.692 14.7706H137.2V12.556H120.304V47.4463H122.692V14.7706ZM164.368 12.556V47.4463H166.666V35.6506H175.812C181.805 35.6506 186.22 31.3117 186.22 24.1259C186.22 16.4882 181.805 12.556 175.812 12.556H164.368ZM166.666 33.3464V14.7706H175.812C180.362 14.7706 183.877 17.6628 183.877 24.0809C183.877 30.499 180.227 33.3458 175.812 33.3458L166.666 33.3464ZM194.104 14.7714H206.089V45.3682H189.509C191.131 44.2384 191.536 41.3911 191.761 39.2671L194.104 14.7714ZM153.51 33.3464H140.624L147.112 16.5795L153.51 33.3464Z" fill="#00488C"/>
</g>
<defs>
<clipPath id="clip0_339_5755">
<rect width="212" height="60" fill="white" transform="translate(0.666626)"/>
</clipPath>
</defs>
</svg>
