<svg width="214" height="61" viewBox="0 0 214 61" fill="none" xmlns="http://www.w3.org/2000/svg">
<g clip-path="url(#clip0_533_7964)">
<g style="mix-blend-mode:luminosity">
<path d="M0.5 13.2861L26.1767 26.5689L52.1452 13.2861V38.4448C52.1452 38.4448 51.4783 43.2861 49.1857 46.0586C46.9348 48.831 39.4736 55.1206 39.4736 55.1206L39.1818 36.293L26.3434 42.9551L13.5468 36.293L13.6301 55.1206C13.6301 55.1206 1.50039 47.7551 0.541686 37.9068V13.2861H0.5Z" fill="#383838"/>
</g>
<g style="mix-blend-mode:luminosity">
<path d="M14.4221 0.5L20.2994 5.38276L26.3435 0.5L32.2208 5.38276L38.2648 0.5V14.1966L26.3435 20.3207L14.4221 14.1966V0.5Z" fill="#383838"/>
</g>
<g style="mix-blend-mode:luminosity">
<path d="M68.1931 13.9067H72.6115L80.9898 31.7826L89.5348 13.9067H94.2033V43.286H89.6182L89.7015 23.7136L82.9489 37.824H79.5309L72.4448 23.8378L72.6115 43.286H68.1931V13.9067Z" fill="#383838"/>
</g>
<g style="mix-blend-mode:luminosity">
<path d="M115.128 38.8171C114.753 38.9412 114.336 39.024 113.961 39.024H106.375V30.3757H113.711C114.836 30.3757 115.962 30.7481 116.837 31.5343C117.587 32.1964 118.254 33.1895 118.296 34.7205C118.338 37.3274 116.254 38.4447 115.128 38.8171ZM106.333 18.0033H113.377C114.503 18.0033 115.545 18.3757 116.379 19.1205C117.087 19.7412 117.713 20.6929 117.754 22.1412C117.838 25.5343 114.086 26.2378 114.086 26.2378H106.333V18.0033ZM118.463 28.1826C118.463 28.1826 122.881 25.9481 122.339 21.2309C121.797 16.5136 119.005 14.8171 114.961 13.9067H101.998V43.286H115.128C115.128 43.286 121.256 42.6654 122.506 37.824C123.798 33.024 121.339 29.0929 118.463 28.1826Z" fill="#383838"/>
</g>
<g style="mix-blend-mode:luminosity">
<path d="M143.806 24.5002L141.055 27.3553C141.055 27.3553 138.762 25.1208 134.719 25.7415C130.676 26.4036 132.468 29.5484 132.468 29.5484C132.468 29.5484 132.552 30.5415 136.678 30.5829C140.805 30.6243 143.264 32.776 143.264 32.776C143.264 32.776 144.556 33.7691 144.556 37.4519C144.556 38.2381 144.348 39.0243 143.973 39.6864C143.306 40.845 141.972 42.5002 139.554 42.9967C136.595 43.6588 133.719 43.4519 132.593 43.3277C132.26 43.2864 131.926 43.245 131.635 43.1208C130.509 42.7898 127.716 41.7967 126.799 40.2657L129.509 37.6174C129.509 37.6174 131.635 39.7691 135.678 39.645C139.721 39.5208 140.096 37.8243 140.096 37.8243C140.096 37.8243 140.888 34.8864 138.137 34.6795C135.386 34.4726 134.094 34.5553 132.468 34.1829C132.468 34.1829 128.759 33.2726 128.258 30.8726C127.925 29.3415 128.008 27.7277 128.133 26.776C128.217 26.1139 128.467 25.4933 128.8 24.9553C129.384 24.0864 130.468 23.1346 132.093 22.5967C134.386 21.8933 138.846 21.2726 143.806 24.5002Z" fill="#383838"/>
</g>
<g style="mix-blend-mode:luminosity">
<path d="M184.947 22.3896H189.491V43.2862H184.947V41.2586C184.947 41.2586 183.113 44.1965 177.319 43.2862C171.525 42.3759 172.192 35.4241 172.192 35.4241L172.151 22.3896H176.486V35.5069C176.486 36.0862 176.611 36.6655 176.819 37.2034C177.278 38.2793 178.32 39.6862 180.487 39.5207C181.988 39.4379 182.988 38.8172 183.655 38.1552C184.447 37.369 184.864 36.2931 184.864 35.1759V22.3896H184.947Z" fill="#383838"/>
</g>
<g style="mix-blend-mode:luminosity">
<path d="M200.286 22.3895H195.951V43.286H200.286V29.755C200.286 29.755 200.578 25.9895 204.58 25.9895C208.581 25.9895 208.79 29.424 208.79 29.424V43.286H213.292V28.3895C213.292 28.3895 213.125 23.0102 207.748 22.0998C202.371 21.1481 200.37 24.2516 200.37 24.2516L200.286 22.3895Z" fill="#383838"/>
</g>
<g style="mix-blend-mode:luminosity">
<path d="M160.229 39.0239C159.062 39.9757 156.394 39.7274 155.561 39.6446C155.436 39.6446 155.311 39.6032 155.185 39.6032C154.769 39.5619 153.518 39.3136 153.268 37.1619C153.101 35.7963 153.977 35.0101 154.81 34.5963C155.477 34.2653 156.228 34.0998 156.978 34.0998H161.605V36.5412C161.563 36.4998 161.605 37.9067 160.229 39.0239ZM164.564 24.5412C163.897 23.7136 162.938 22.9274 161.521 22.5136C157.52 21.2722 153.518 22.3894 153.518 22.3894C153.518 22.3894 151.142 23.1343 149.642 25.2032L152.476 27.8929C152.476 27.8929 153.935 26.0308 156.144 25.9067C157.52 25.8239 158.729 26.1136 159.437 26.3205C159.937 26.486 160.354 26.7343 160.688 27.1481C160.938 27.4377 161.229 27.8101 161.438 28.3067C161.563 28.5964 161.605 28.886 161.605 29.217V31.0377H154.018C154.018 31.0377 150.725 31.3688 149.475 34.0998C148.224 36.8308 149.225 39.8101 149.225 39.8101C149.225 39.8101 149.933 42.4584 153.268 43.3688C156.603 44.2791 160.396 42.6653 160.396 42.6653L161.771 41.4239V43.5343H165.981V28.6377C165.981 27.1481 165.481 25.6998 164.564 24.5412Z" fill="#383838"/>
</g>
<g style="mix-blend-mode:luminosity">
<path d="M105.749 55.0791C105.791 55.3687 105.833 55.8239 105.833 56.4446C105.833 57.0653 105.791 57.5205 105.749 57.8101C105.708 58.0998 105.541 58.348 105.291 58.5549C104.957 58.886 104.499 59.0515 103.999 59.0515C103.457 59.0515 103.04 58.886 102.707 58.5549C102.498 58.348 102.331 58.0584 102.29 57.8101C102.248 57.5205 102.206 57.0653 102.206 56.4446C102.206 55.7825 102.248 55.3273 102.29 55.0791C102.331 54.7894 102.498 54.5411 102.707 54.3342C103.04 54.0032 103.499 53.8377 103.999 53.8377C104.541 53.8377 104.957 54.0032 105.291 54.3342C105.541 54.5825 105.666 54.8308 105.749 55.0791ZM105.208 57.6446C105.249 57.3963 105.291 57.0239 105.291 56.4446C105.291 55.8653 105.249 55.4929 105.208 55.2446C105.166 54.9963 105.083 54.8308 104.916 54.6653C104.666 54.417 104.374 54.2929 103.999 54.2929C103.624 54.2929 103.332 54.417 103.082 54.6653C102.915 54.8308 102.832 55.0377 102.79 55.2446C102.748 55.4929 102.707 55.8653 102.707 56.4446C102.707 57.0239 102.748 57.3963 102.79 57.6446C102.832 57.8929 102.915 58.0584 103.082 58.2239C103.332 58.4722 103.624 58.5963 103.999 58.5963C104.374 58.5963 104.666 58.4722 104.916 58.2239C105.041 58.0584 105.166 57.8929 105.208 57.6446ZM110.043 54.3756H108.542V59.0515H108V54.3756H106.5V53.8791H110.085V54.3756H110.043ZM110.001 58.5549H110.46C110.918 57.8929 111.127 56.8998 111.127 55.617V53.8791H113.961V58.5549H114.586V60.2929H114.044V59.0515H110.543V60.2929H110.001V58.5549ZM111.085 58.5549H113.419V54.3756H111.668V55.948C111.627 57.0239 111.46 57.8929 111.085 58.5549ZM118.88 59.0515H115.628V53.8791H118.88V54.3756H116.212V56.1963H118.504V56.6929H116.212V58.5549H118.88V59.0515ZM123.465 59.0515H122.923V54.3756H121.172V56.1549C121.172 57.1894 121.047 57.9756 120.797 58.3894C120.547 58.8446 120.172 59.0515 119.63 59.0515H119.38V58.5549H119.505C119.672 58.5549 119.838 58.5136 119.963 58.4308C120.088 58.348 120.213 58.2239 120.297 58.0584C120.38 57.8929 120.464 57.6032 120.547 57.2722C120.589 56.9411 120.63 56.486 120.63 55.948V53.8791H123.506V59.0515H123.465ZM125.549 59.0515H125.007V53.8791H125.549V59.0515ZM128.675 59.0515H127.925L125.549 56.3618L127.8 53.8791H128.508L126.216 56.3205L128.675 59.0515ZM133.26 59.0515H132.635L132.218 57.8929H129.926L129.509 59.0515H128.925L130.843 53.8791H131.301L133.26 59.0515ZM132.093 57.3963L131.134 54.6653L130.134 57.3963H132.093ZM139.471 59.0515H138.929V54.3756H136.47V59.0515H135.928V53.8791H139.513V59.0515H139.471ZM144.64 59.0515H144.056L143.639 57.8929H141.347L140.93 59.0515H140.346L142.264 53.8791H142.722L144.64 59.0515ZM143.473 57.3963L142.514 54.6653L141.513 57.3963H143.473ZM149.016 55.4101C149.016 55.8653 148.85 56.2377 148.558 56.5273C148.266 56.817 147.891 56.9411 147.391 56.9411H146.015V59.0515H145.473V53.8791H147.391C147.849 53.8791 148.266 54.0032 148.558 54.2929C148.85 54.5825 149.016 54.9549 149.016 55.4101ZM148.141 56.1549C148.349 55.9894 148.433 55.7411 148.433 55.3687C148.433 55.0377 148.349 54.7894 148.141 54.6239C147.933 54.4584 147.683 54.3756 147.349 54.3756H146.015V56.4446H147.349C147.683 56.4032 147.974 56.3205 148.141 56.1549ZM153.643 59.0515H153.101V56.6929H150.642V59.0515H150.1V53.8791H150.642V56.1963H153.101V53.8791H153.643V59.0515ZM159.979 59.0515H159.437V53.8791H159.979V59.0515ZM158.729 57.5204C158.729 57.9756 158.562 58.348 158.27 58.6377C157.978 58.9274 157.603 59.0515 157.103 59.0515H155.144V53.8791H155.686V55.9894H157.103C157.603 55.9894 157.978 56.1136 158.27 56.4032C158.562 56.6929 158.729 57.0653 158.729 57.5204ZM157.853 58.2653C158.062 58.0998 158.145 57.8515 158.145 57.5204C158.145 57.1894 158.062 56.9411 157.853 56.7756C157.645 56.6101 157.395 56.486 157.061 56.486H155.727V58.5549H157.061C157.395 58.5549 157.686 58.4722 157.853 58.2653ZM164.648 59.0515H164.022L162.772 56.8998L161.48 59.0515H160.854L162.438 56.4032L160.938 53.8791H161.563L162.73 55.9067L163.897 53.8791H164.522L163.022 56.4032L164.648 59.0515ZM170.9 59.0515H170.358V54.3756H167.899V59.0515H167.357V53.8791H170.942V59.0515H170.9ZM175.777 55.0791C175.819 55.3687 175.86 55.8239 175.86 56.4446C175.86 57.0653 175.819 57.5205 175.777 57.8101C175.735 58.0998 175.568 58.348 175.318 58.5549C174.985 58.886 174.526 59.0515 174.026 59.0515C173.484 59.0515 173.067 58.886 172.734 58.5549C172.526 58.348 172.359 58.0584 172.317 57.8101C172.276 57.5205 172.234 57.0653 172.234 56.4446C172.234 55.7825 172.276 55.3273 172.317 55.0791C172.359 54.7894 172.526 54.5411 172.734 54.3342C173.067 54.0032 173.526 53.8377 174.026 53.8377C174.568 53.8377 174.985 54.0032 175.318 54.3342C175.568 54.5825 175.694 54.8308 175.777 55.0791ZM175.235 57.6446C175.277 57.3963 175.318 57.0239 175.318 56.4446C175.318 55.8653 175.277 55.4929 175.235 55.2446C175.193 54.9963 175.11 54.8308 174.943 54.6653C174.693 54.417 174.401 54.2929 174.026 54.2929C173.651 54.2929 173.359 54.417 173.109 54.6653C172.942 54.8308 172.859 55.0377 172.817 55.2446C172.776 55.4929 172.734 55.8653 172.734 56.4446C172.734 57.0239 172.776 57.3963 172.817 57.6446C172.859 57.8929 172.942 58.0584 173.109 58.2239C173.359 58.4722 173.651 58.5963 174.026 58.5963C174.401 58.5963 174.693 58.4722 174.943 58.2239C175.11 58.0584 175.193 57.8929 175.235 57.6446ZM181.612 59.0515H181.071V55.1205L179.653 58.2239H179.195L177.736 55.1205V59.0515H177.194V53.8791H177.736L179.445 57.5618L181.112 53.8791H181.654V59.0515H181.612ZM186.364 59.0515H183.113V53.8791H186.364V54.3756H183.697V56.1963H185.989V56.6929H183.697V58.5549H186.364V59.0515ZM193.909 60.2929H193.367V59.0515H187.531V53.8791H188.073V58.5549H190.116V53.8791H190.699V58.5549H192.742V53.8791H193.284V58.5549H193.909V60.2929ZM198.202 59.0515H194.951V53.8791H198.202V54.3756H195.535V56.1963H197.827V56.6929H195.535V58.5549H198.202V59.0515ZM202.954 59.0515H202.412V56.6929H199.953V59.0515H199.411V53.8791H199.953V56.1963H202.412V53.8791H202.954V59.0515ZM208.165 59.0515H207.623V54.8308L204.997 59.0515H204.455V53.8791H204.997V58.0998L207.664 53.8791H208.206V59.0515H208.165ZM212.625 52.6377C212.583 53.2584 212.249 53.548 211.541 53.548C210.874 53.548 210.499 53.2584 210.457 52.6377H210.916C210.957 53.0101 211.124 53.1756 211.499 53.1756C211.874 53.1756 212.083 53.0101 212.083 52.6377H212.625ZM213.417 59.0515H212.875V54.8308L210.249 59.0515H209.707V53.8791H210.249V58.0998L212.875 53.8791H213.417V59.0515Z" fill="#383838"/>
</g>
</g>
<defs>
<clipPath id="clip0_533_7964">
<rect width="213" height="60" fill="white" transform="translate(0.5 0.5)"/>
</clipPath>
</defs>
</svg>
